<svg width="3847" height="3101" viewBox="0 0 3847 3101" fill="none" xmlns="http://www.w3.org/2000/svg">
<path d="M3593.93 1448.23H432.569V577.692C432.569 460.267 527.76 365.075 645.186 365.075H3381.31C3498.74 365.075 3593.93 460.267 3593.93 577.691V1448.23Z" fill="#FDE5E3"/>
<path d="M562.034 365.075V906.653H429.938" stroke="white" stroke-width="5" stroke-miterlimit="10"/>
<path d="M562.034 906.653H429.938V1448.23H562.034V906.653Z" stroke="white" stroke-width="5" stroke-miterlimit="10"/>
<path d="M694.131 365.075H562.035V906.653H694.131V365.075Z" stroke="white" stroke-width="5" stroke-miterlimit="10"/>
<path d="M694.131 906.653H562.034V1448.23H694.131V906.653Z" stroke="white" stroke-width="5" stroke-miterlimit="10"/>
<path d="M826.228 365.075H694.132V906.653H826.228V365.075Z" stroke="white" stroke-width="5" stroke-miterlimit="10"/>
<path d="M826.228 906.653H694.131V1448.23H826.228V906.653Z" stroke="white" stroke-width="5" stroke-miterlimit="10"/>
<path d="M958.325 365.075H826.229V906.653H958.325V365.075Z" stroke="white" stroke-width="5" stroke-miterlimit="10"/>
<path d="M958.325 906.653H826.229V1448.23H958.325V906.653Z" stroke="white" stroke-width="5" stroke-miterlimit="10"/>
<path d="M1090.42 365.075H958.326V906.653H1090.42V365.075Z" stroke="white" stroke-width="5" stroke-miterlimit="10"/>
<path d="M1090.42 906.653H958.325V1448.23H1090.42V906.653Z" stroke="white" stroke-width="5" stroke-miterlimit="10"/>
<path d="M1222.52 365.075H1090.42V906.653H1222.52V365.075Z" stroke="white" stroke-width="5" stroke-miterlimit="10"/>
<path d="M1222.52 906.653H1090.42V1448.23H1222.52V906.653Z" stroke="white" stroke-width="5" stroke-miterlimit="10"/>
<path d="M1354.62 365.075H1222.52V906.653H1354.62V365.075Z" stroke="white" stroke-width="5" stroke-miterlimit="10"/>
<path d="M1354.61 906.653H1222.52V1448.23H1354.61V906.653Z" stroke="white" stroke-width="5" stroke-miterlimit="10"/>
<path d="M1486.71 365.075H1354.61V906.653H1486.71V365.075Z" stroke="white" stroke-width="5" stroke-miterlimit="10"/>
<path d="M1486.71 906.653H1354.61V1448.23H1486.71V906.653Z" stroke="white" stroke-width="5" stroke-miterlimit="10"/>
<path d="M1618.81 365.075H1486.71V906.653H1618.81V365.075Z" stroke="white" stroke-width="5" stroke-miterlimit="10"/>
<path d="M1618.81 906.653H1486.71V1448.23H1618.81V906.653Z" stroke="white" stroke-width="5" stroke-miterlimit="10"/>
<path d="M1750.91 365.075H1618.81V906.653H1750.91V365.075Z" stroke="white" stroke-width="5" stroke-miterlimit="10"/>
<path d="M1750.91 906.653H1618.81V1448.23H1750.91V906.653Z" stroke="white" stroke-width="5" stroke-miterlimit="10"/>
<path d="M1883 365.075H1750.91V906.653H1883V365.075Z" stroke="white" stroke-width="5" stroke-miterlimit="10"/>
<path d="M1883 906.653H1750.91V1448.23H1883V906.653Z" stroke="white" stroke-width="5" stroke-miterlimit="10"/>
<path d="M2015.1 365.075H1883V906.653H2015.1V365.075Z" stroke="white" stroke-width="5" stroke-miterlimit="10"/>
<path d="M2015.1 906.653H1883V1448.23H2015.1V906.653Z" stroke="white" stroke-width="5" stroke-miterlimit="10"/>
<path d="M2147.2 365.075H2015.1V906.653H2147.2V365.075Z" stroke="white" stroke-width="5" stroke-miterlimit="10"/>
<path d="M2147.19 906.653H2015.1V1448.23H2147.19V906.653Z" stroke="white" stroke-width="5" stroke-miterlimit="10"/>
<path d="M2279.29 365.075H2147.2V906.653H2279.29V365.075Z" stroke="white" stroke-width="5" stroke-miterlimit="10"/>
<path d="M2279.29 906.654H2147.2V1448.23H2279.29V906.654Z" stroke="white" stroke-width="5" stroke-miterlimit="10"/>
<path d="M2411.39 365.075H2279.29V906.653H2411.39V365.075Z" stroke="white" stroke-width="5" stroke-miterlimit="10"/>
<path d="M2411.39 906.653H2279.29V1448.23H2411.39V906.653Z" stroke="white" stroke-width="5" stroke-miterlimit="10"/>
<path d="M2543.49 365.075H2411.39V906.653H2543.49V365.075Z" stroke="white" stroke-width="5" stroke-miterlimit="10"/>
<path d="M2543.49 906.654H2411.39V1448.23H2543.49V906.654Z" stroke="white" stroke-width="5" stroke-miterlimit="10"/>
<path d="M2675.58 365.075H2543.49V906.653H2675.58V365.075Z" stroke="white" stroke-width="5" stroke-miterlimit="10"/>
<path d="M2675.58 906.653H2543.49V1448.23H2675.58V906.653Z" stroke="white" stroke-width="5" stroke-miterlimit="10"/>
<path d="M2807.68 365.075H2675.58V906.653H2807.68V365.075Z" stroke="white" stroke-width="5" stroke-miterlimit="10"/>
<path d="M2807.68 906.654H2675.58V1448.23H2807.68V906.654Z" stroke="white" stroke-width="5" stroke-miterlimit="10"/>
<path d="M2939.77 365.075H2807.68V906.653H2939.77V365.075Z" stroke="white" stroke-width="5" stroke-miterlimit="10"/>
<path d="M2939.77 906.654H2807.68V1448.23H2939.77V906.654Z" stroke="white" stroke-width="5" stroke-miterlimit="10"/>
<path d="M3071.87 365.076H2939.77V906.654H3071.87V365.076Z" stroke="white" stroke-width="5" stroke-miterlimit="10"/>
<path d="M3071.87 906.654H2939.77V1448.23H3071.87V906.654Z" stroke="white" stroke-width="5" stroke-miterlimit="10"/>
<path d="M3203.97 365.075H3071.87V906.653H3203.97V365.075Z" stroke="white" stroke-width="5" stroke-miterlimit="10"/>
<path d="M3203.97 906.654H3071.87V1448.23H3203.97V906.654Z" stroke="white" stroke-width="5" stroke-miterlimit="10"/>
<path d="M3336.07 365.076H3203.97V906.654H3336.07V365.076Z" stroke="white" stroke-width="5" stroke-miterlimit="10"/>
<path d="M3336.07 906.654H3203.97V1448.23H3336.07V906.654Z" stroke="white" stroke-width="5" stroke-miterlimit="10"/>
<path d="M3468.16 365.076H3336.07V906.654H3468.16V365.076Z" stroke="white" stroke-width="5" stroke-miterlimit="10"/>
<path d="M3468.16 906.654H3336.07V1448.23H3468.16V906.654Z" stroke="white" stroke-width="5" stroke-miterlimit="10"/>
<path d="M3600.26 906.654H3468.16V365.076" stroke="white" stroke-width="5" stroke-miterlimit="10"/>
<path d="M3600.26 906.654H3468.16V1448.23H3600.26V906.654Z" stroke="white" stroke-width="5" stroke-miterlimit="10"/>
<path d="M1673.74 898.162H1977.77C2035.4 898.162 2088.06 930.772 2113.74 982.358L2266.13 1288.44C2302.71 1361.92 2249.27 1448.23 2167.19 1448.23H1486.12C1397.66 1448.23 1338.7 1356.9 1375.13 1276.28L1493.36 1014.6C1525.39 943.716 1595.96 898.162 1673.74 898.162Z" fill="#FF6E00"/>
<path d="M1708.6 897.007L1536.77 1448.23H2075.65L1969.42 897.007H1934.9L1945.06 1008.66C1949.77 1059.87 1909.46 1104.06 1858.03 1104.06H1813.81C1758.36 1104.06 1716.93 1053.09 1728.26 998.814L1749.26 897.008H1708.6V897.007Z" fill="white"/>
<path d="M1982.91 1392.87L2017.56 1047.8H2052.27L2075.36 1392.87H1982.91Z" fill="#573240"/>
<path d="M1773.67 1392.87L1831.44 1047.8H2017.56L1982.91 1392.87H1773.67Z" fill="#E38824"/>
<path d="M2030.94 1047.8C2008.9 1047.8 1990.45 1064.49 1988.24 1086.42L1986.47 1104.06H1788.8L1790.56 1086.42C1792.77 1064.49 1811.22 1047.8 1833.27 1047.8H2030.94Z" fill="#E38824" stroke="#573240" stroke-width="5" stroke-miterlimit="10" stroke-linecap="round"/>
<path d="M1856.19 1205.58H1852.03C1839.83 1205.58 1829.95 1215.46 1829.95 1227.65C1829.95 1230.24 1832.05 1232.34 1834.64 1232.34H1932.95" stroke="white" stroke-width="4" stroke-miterlimit="10" stroke-linecap="round"/>
<path d="M1886.99 1192.79H1880.82C1864.65 1192.79 1851.54 1205.9 1851.54 1222.07V1222.29C1851.54 1227.84 1856.03 1232.34 1861.58 1232.34" stroke="white" stroke-width="4" stroke-miterlimit="10" stroke-linecap="round"/>
<path d="M1939.18 1200.85C1935.68 1190.37 1925.79 1182.81 1914.14 1182.81H1908.02C1893.44 1182.81 1881.63 1194.63 1881.63 1209.2V1221.66C1881.63 1227.56 1886.41 1232.34 1892.31 1232.34" stroke="white" stroke-width="4" stroke-miterlimit="10" stroke-linecap="round"/>
<path d="M1916.88 1225.94V1219.78C1916.88 1209.32 1925.35 1200.85 1935.81 1200.85H1937.6C1946.85 1200.85 1955.53 1205.35 1960.85 1212.91L1966.26 1220.59C1969.74 1225.53 1966.21 1232.34 1960.17 1232.34H1923.27C1919.74 1232.34 1916.88 1229.47 1916.88 1225.94Z" stroke="white" stroke-width="4" stroke-miterlimit="10" stroke-linecap="round"/>
<path d="M1848.53 1254.16H1945.64" stroke="white" stroke-width="4" stroke-miterlimit="10" stroke-linecap="round"/>
<path d="M1468.96 1448.23H2020.76C2030.71 1448.23 2040.2 1444.07 2046.95 1436.76L2067.7 1414.24C2073.47 1407.99 2076.31 1399.58 2075.52 1391.11L2072.14 1354.64H2063.96C2056.51 1354.64 2049.94 1359.52 2047.78 1366.66L2043.11 1382.09C2041.18 1388.49 2035.28 1392.87 2028.59 1392.87H1964.34L1973.52 1390.07C1985.82 1386.3 1994.38 1375.16 1994.84 1362.3L1494.45 1238.73C1427.43 1222.19 1362.67 1272.9 1362.67 1341.93C1362.67 1400.64 1410.26 1448.23 1468.96 1448.23Z" fill="#F6ACC1"/>
<path d="M2270.93 1296.7L2116.93 987.391C2104.03 961.463 2077.56 945.074 2048.59 945.074H1993.4C1962.95 945.074 1935.71 964.034 1925.15 992.592L1905.67 1045.24C1900.71 1058.64 1908.17 1073.44 1921.89 1077.42L1969.28 1091.17C1982.51 1095.01 1996.66 1089.54 2003.88 1077.82L2016.65 1057.07C2020.19 1051.31 2026.47 1047.8 2033.23 1047.8H2052.27L2072.52 1350.41C2076.2 1405.46 2121.93 1448.23 2177.1 1448.23C2254.94 1448.23 2305.62 1366.38 2270.93 1296.7Z" fill="#F6ACC1"/>
<path d="M1951.73 1000.68L1932.25 1053.33C1927.3 1066.73 1934.76 1081.53 1948.48 1085.51" stroke="#573240" stroke-width="5" stroke-miterlimit="10" stroke-linecap="round"/>
<path d="M1974.85 1006.46L1955.37 1059.11C1950.42 1072.51 1957.87 1087.31 1971.6 1091.29" stroke="#573240" stroke-width="5" stroke-miterlimit="10" stroke-linecap="round"/>
<path d="M2001.44 1012.24L1981.96 1064.89C1978.66 1073.8 1980.86 1083.33 1986.73 1089.88" stroke="#573240" stroke-width="5" stroke-miterlimit="10" stroke-linecap="round"/>
<path d="M2066.46 1030.01C2066.46 1041.75 2056.94 1051.27 2045.2 1051.27H2031.82" stroke="#573240" stroke-width="5" stroke-miterlimit="10" stroke-linecap="round"/>
<path d="M1976.96 879.048C1955.74 851.431 1960.11 753.673 1957.13 749.012C1951.73 740.574 1885.79 706.734 1862.78 706.885C1849.6 706.971 1778.02 745.943 1778.02 791.586C1778.02 822.27 1801.42 862.543 1859.72 876.735C1918.02 890.927 1976.96 879.048 1976.96 879.048Z" fill="#573240"/>
<path d="M1921.71 898.162V823.294L1837.8 816.435L1783.01 898.162C1783.01 898.162 1783.52 950.123 1854.09 950.123C1924.67 950.123 1921.71 898.162 1921.71 898.162Z" fill="#F6ACC1"/>
<path d="M1941.23 799.261C1939.55 817.147 1933.98 835.422 1929.63 847.563C1926.71 855.703 1918.08 860.272 1909.7 858.14L1876.88 849.78C1861.94 845.978 1851.02 833.532 1848.91 818.618L1830.41 815.918C1817.3 814.007 1808.22 801.834 1810.13 788.727L1810.82 783.948C1812.73 770.84 1824.91 761.755 1838.03 763.667L1846.19 764.853C1850.23 765.442 1853.76 767.332 1856.42 770.042C1862.78 752.355 1873.95 734.815 1893.09 735.971C1895.97 736.149 1898.68 736.422 1901.24 736.79C1902.28 745.171 1905.87 758.625 1917.84 767.227C1927.9 774.464 1936.32 775.283 1941.32 774.842C1942.3 782.561 1942.01 790.879 1941.23 799.261Z" fill="#F6ACC1"/>
<path d="M1833.38 775.84C1841.71 777.054 1847.48 784.792 1846.27 793.124" stroke="#573240" stroke-width="5" stroke-miterlimit="10" stroke-linecap="round"/>
<path d="M1870.85 773.104C1876.48 764.015 1889.15 761.671 1899.16 767.867" stroke="#573240" stroke-width="5" stroke-miterlimit="10" stroke-linecap="round"/>
<path d="M1941.44 774.151C1925.2 772.26 1911.12 779.74 1908.52 809.474" stroke="#573240" stroke-width="4" stroke-miterlimit="10" stroke-linecap="round"/>
<path d="M1933.1 795.549C1933.61 792.056 1932.27 788.968 1930.1 788.652C1927.93 788.336 1925.76 790.913 1925.25 794.406C1924.75 797.9 1926.09 800.988 1928.26 801.304C1930.42 801.62 1932.59 799.043 1933.1 795.549Z" fill="#573240"/>
<path d="M1891.91 787.401C1892.42 783.904 1891.08 780.814 1888.91 780.498C1886.74 780.182 1884.57 782.76 1884.06 786.257C1883.55 789.754 1884.89 792.844 1887.06 793.16C1889.23 793.476 1891.4 790.898 1891.91 787.401Z" fill="#573240"/>
<path d="M1849.68 815.625C1849.68 832.831 1861.35 847.846 1878.03 852.091L1912.01 860.448C1920.39 862.581 1929.02 858.012 1931.94 849.874" stroke="#573240" stroke-width="5" stroke-miterlimit="10" stroke-linecap="round"/>
<path d="M1891.64 813.095C1892.54 820.717 1899.43 825.181 1907.05 824.286" stroke="#573240" stroke-width="4" stroke-miterlimit="10" stroke-linecap="round"/>
<path d="M3725.38 1448.23H3604.05C3574.19 1448.23 3553.89 1417.93 3565.23 1390.32L3614.26 1271.03H3715.17L3764.19 1390.32C3775.54 1417.93 3755.24 1448.23 3725.38 1448.23Z" fill="#FF6E00"/>
<path d="M3664.71 1322.12C3693.44 1322.12 3716.73 1303.69 3716.73 1280.95C3716.73 1258.21 3693.44 1239.78 3664.71 1239.78C3635.98 1239.78 3612.69 1258.21 3612.69 1280.95C3612.69 1303.69 3635.98 1322.12 3664.71 1322.12Z" fill="#573240"/>
<path d="M3680.24 1300.24V905.119" stroke="#E38824" stroke-width="4" stroke-miterlimit="10" stroke-linecap="round"/>
<path d="M3726.46 804.453C3726.46 840.338 3680.24 916.825 3680.24 916.825C3680.24 916.825 3634.03 840.338 3634.03 804.453C3634.03 768.568 3654.72 739.477 3680.24 739.477C3705.77 739.477 3726.46 768.568 3726.46 804.453Z" fill="#E38824"/>
<path d="M3615.07 952.174C3627.42 972.384 3627.71 1031.37 3627.71 1031.37C3627.71 1031.37 3575.36 1004.19 3563.01 983.981C3550.66 963.77 3552.31 940.266 3566.68 931.482C3581.06 922.698 3602.73 931.963 3615.07 952.174Z" fill="#E38824"/>
<path d="M3627.39 1054.12C3644.58 1063.22 3666.95 1109.58 3666.95 1109.58C3666.95 1109.58 3616.04 1117.14 3598.85 1108.04C3581.66 1098.94 3574.11 1079.49 3581.99 1064.6C3589.88 1049.71 3610.2 1045.02 3627.39 1054.12Z" fill="#E38824"/>
<path d="M3755.29 1109.12C3746.68 1129.43 3707.04 1163.7 3707.04 1163.7C3707.04 1163.7 3704.13 1111.38 3712.74 1091.07C3721.36 1070.76 3737.87 1058.34 3749.61 1063.32C3761.36 1068.31 3763.91 1088.81 3755.29 1109.12Z" fill="#E38824"/>
<path d="M3639.91 1177.61C3649.86 1198.04 3644.28 1254.63 3644.28 1254.63C3644.28 1254.63 3596.28 1224.14 3586.33 1203.71C3576.38 1183.28 3580.31 1160.88 3595.1 1153.67C3609.9 1146.46 3629.96 1157.18 3639.91 1177.61Z" fill="#E38824"/>
<path d="M3834.01 1156.16C3820.77 1168.35 3776.89 1177.31 3776.89 1177.31C3776.89 1177.31 3789.47 1134.33 3802.72 1122.15C3815.96 1109.97 3833.7 1107.7 3842.34 1117.09C3850.99 1126.49 3847.25 1143.98 3834.01 1156.16Z" fill="#E38824"/>
<path d="M3743.28 1264.73C3735.54 1273.54 3707.72 1282.39 3707.72 1282.39C3707.72 1282.39 3712.9 1253.66 3720.64 1244.84C3728.38 1236.03 3739.73 1233.33 3745.98 1238.82C3752.23 1244.31 3751.03 1255.91 3743.28 1264.73Z" fill="#E38824"/>
<path d="M3776.34 975.575C3755.24 998.33 3680.94 1019.64 3680.94 1019.64C3680.94 1019.64 3696.63 943.96 3717.73 921.206C3738.84 898.452 3769.07 892.177 3785.26 907.19C3801.44 922.205 3797.45 952.822 3776.34 975.575Z" fill="#E38824"/>
<path d="M3709.32 1280.59V1157.5" stroke="#E38824" stroke-width="4" stroke-miterlimit="10" stroke-linecap="round"/>
<path d="M3709.32 1264.17C3709.32 1240.52 3720.61 1218.29 3739.71 1204.33L3796.01 1163.2" stroke="#E38824" stroke-width="4" stroke-miterlimit="10" stroke-linecap="round"/>
<path d="M3680.24 1167.3C3680.24 1145.7 3675.11 1124.4 3665.27 1105.18L3625.33 1027.14" stroke="#E38824" stroke-width="4" stroke-miterlimit="10" stroke-linecap="round"/>
<path d="M3623.38 1234.82L3636.94 1244.48C3645.89 1250.85 3651.21 1261.16 3651.21 1272.15V1300.95" stroke="#E38824" stroke-width="4" stroke-miterlimit="10" stroke-linecap="round"/>
<path d="M3749.24 883.719C3755.4 883.719 3760.4 878.721 3760.4 872.557C3760.4 866.392 3755.4 861.394 3749.24 861.394C3743.07 861.394 3738.07 866.392 3738.07 872.557C3738.07 878.721 3743.07 883.719 3749.24 883.719Z" stroke="#573240" stroke-width="4" stroke-miterlimit="10" stroke-linecap="round"/>
<path d="M3762.67 1098.19C3769.38 1098.19 3774.81 1092.76 3774.81 1086.06C3774.81 1079.35 3769.38 1073.92 3762.67 1073.92C3755.97 1073.92 3750.53 1079.35 3750.53 1086.06C3750.53 1092.76 3755.97 1098.19 3762.67 1098.19Z" stroke="#573240" stroke-width="4" stroke-miterlimit="10" stroke-linecap="round"/>
<path d="M3596.56 1265.8C3602.72 1265.8 3607.72 1260.8 3607.72 1254.63C3607.72 1248.47 3602.72 1243.47 3596.56 1243.47C3590.39 1243.47 3585.4 1248.47 3585.4 1254.63C3585.4 1260.8 3590.39 1265.8 3596.56 1265.8Z" stroke="#573240" stroke-width="4" stroke-miterlimit="10" stroke-linecap="round"/>
<path d="M3622.86 981.319C3629.88 981.319 3635.58 975.626 3635.58 968.603C3635.58 961.58 3629.88 955.887 3622.86 955.887C3615.84 955.887 3610.15 961.58 3610.15 968.603C3610.15 975.626 3615.84 981.319 3622.86 981.319Z" stroke="#573240" stroke-width="4" stroke-miterlimit="10" stroke-linecap="round"/>
<path d="M3728.85 1181.87C3733.64 1181.87 3737.52 1177.99 3737.52 1173.2C3737.52 1168.41 3733.64 1164.53 3728.85 1164.53C3724.06 1164.53 3720.18 1168.41 3720.18 1173.2C3720.18 1177.99 3724.06 1181.87 3728.85 1181.87Z" stroke="#573240" stroke-width="4" stroke-miterlimit="10" stroke-linecap="round"/>
<path d="M3662.4 755.227C3668.57 755.227 3673.56 750.23 3673.56 744.065C3673.56 737.9 3668.57 732.902 3662.4 732.902C3656.24 732.902 3651.24 737.9 3651.24 744.065C3651.24 750.23 3656.24 755.227 3662.4 755.227Z" stroke="#573240" stroke-width="4" stroke-miterlimit="10" stroke-linecap="round"/>
<path d="M3472.53 2951.76H553.965C485.467 2951.76 429.938 2896.23 429.938 2827.74V1542.9H3596.56V2827.73C3596.56 2896.23 3541.03 2951.76 3472.53 2951.76Z" fill="#E38824"/>
<path d="M429.938 1627.14V1542.9H3596.56V1543.66L429.938 1627.14Z" fill="#573240"/>
<path d="M3805.21 1448.23H196.831V1542.9H3805.21V1448.23Z" fill="white" stroke="#573240" stroke-width="5" stroke-miterlimit="10" stroke-linecap="round"/>
<path d="M3426.09 3H2886.04V800.792H3426.09V3Z" fill="white" stroke="#573240" stroke-width="5" stroke-miterlimit="10" stroke-linecap="round"/>
<path d="M3093.93 139.637H3086.73C3065.64 139.637 3048.55 156.73 3048.55 177.817C3048.55 182.292 3052.18 185.92 3056.65 185.92H3226.71" stroke="#E38824" stroke-width="5" stroke-miterlimit="10" stroke-linecap="round"/>
<path d="M3147.21 117.514H3136.53C3108.56 117.514 3085.88 140.19 3085.88 168.164V168.543C3085.88 178.14 3093.66 185.92 3103.26 185.92" stroke="#E38824" stroke-width="5" stroke-miterlimit="10" stroke-linecap="round"/>
<path d="M3237.48 131.454C3231.43 113.327 3214.32 100.26 3194.17 100.26H3183.58C3158.37 100.26 3137.93 120.698 3137.93 145.909V167.45C3137.93 177.65 3146.2 185.919 3156.4 185.919" stroke="#E38824" stroke-width="5" stroke-miterlimit="10" stroke-linecap="round"/>
<path d="M3198.9 174.864V164.2C3198.9 146.115 3213.56 131.455 3231.65 131.455H3234.75C3250.75 131.455 3265.75 139.24 3274.97 152.325L3284.33 165.611C3290.34 174.15 3284.23 185.921 3273.79 185.921H3209.96C3203.85 185.919 3198.9 180.97 3198.9 174.864Z" stroke="#E38824" stroke-width="5" stroke-miterlimit="10" stroke-linecap="round"/>
<path d="M2969.34 279.318H3193.34" stroke="#573240" stroke-width="5" stroke-miterlimit="10" stroke-linecap="round"/>
<path d="M2969.34 338.043H3193.34" stroke="#573240" stroke-width="5" stroke-miterlimit="10" stroke-linecap="round"/>
<path d="M2969.34 396.768H3123.98" stroke="#573240" stroke-width="5" stroke-miterlimit="10" stroke-linecap="round"/>
<path d="M2969.34 514.216H3077.74" stroke="#573240" stroke-width="5" stroke-miterlimit="10" stroke-linecap="round"/>
<path d="M2969.34 572.94H3077.74" stroke="#573240" stroke-width="5" stroke-miterlimit="10" stroke-linecap="round"/>
<path d="M2969.34 455.492H3251.14" stroke="#573240" stroke-width="5" stroke-miterlimit="10" stroke-linecap="round"/>
<path d="M3327.2 279.318H3367.47" stroke="#E38824" stroke-width="5" stroke-miterlimit="10" stroke-linecap="round"/>
<path d="M3327.2 338.043H3367.47" stroke="#E38824" stroke-width="5" stroke-miterlimit="10" stroke-linecap="round"/>
<path d="M3327.2 396.768H3367.47" stroke="#E38824" stroke-width="5" stroke-miterlimit="10" stroke-linecap="round"/>
<path d="M3327.2 455.492H3367.47" stroke="#E38824" stroke-width="5" stroke-miterlimit="10" stroke-linecap="round"/>
<path d="M3327.2 514.216H3367.47" stroke="#E38824" stroke-width="5" stroke-miterlimit="10" stroke-linecap="round"/>
<path d="M3327.2 572.94H3367.47" stroke="#E38824" stroke-width="5" stroke-miterlimit="10" stroke-linecap="round"/>
<path d="M2823.82 3H2283.77V800.792H2823.82V3Z" fill="white" stroke="#573240" stroke-width="5" stroke-miterlimit="10" stroke-linecap="round"/>
<path d="M2714.52 279.318H2754.8" stroke="#E38824" stroke-width="5" stroke-miterlimit="10" stroke-linecap="round"/>
<path d="M2714.52 338.043H2754.8" stroke="#E38824" stroke-width="5" stroke-miterlimit="10" stroke-linecap="round"/>
<path d="M2714.52 396.768H2754.8" stroke="#E38824" stroke-width="5" stroke-miterlimit="10" stroke-linecap="round"/>
<path d="M2714.52 455.492H2754.8" stroke="#E38824" stroke-width="5" stroke-miterlimit="10" stroke-linecap="round"/>
<path d="M2714.52 514.216H2754.8" stroke="#E38824" stroke-width="5" stroke-miterlimit="10" stroke-linecap="round"/>
<path d="M2714.52 572.94H2754.8" stroke="#E38824" stroke-width="5" stroke-miterlimit="10" stroke-linecap="round"/>
<path d="M2714.52 631.896H2754.8" stroke="#E38824" stroke-width="5" stroke-miterlimit="10" stroke-linecap="round"/>
<path d="M2621.35 101.366V137.129C2621.35 171.956 2593.11 200.198 2558.28 200.198H2545.58C2510.74 200.198 2482.5 171.956 2482.5 137.129V104.381C2491.24 112.069 2518.43 117.677 2550.64 117.677C2586.92 117.677 2616.84 110.556 2621.19 101.366H2621.35V101.366Z" stroke="#E38824" stroke-width="5" stroke-miterlimit="10" stroke-linecap="round"/>
<path d="M2621.73 99.0559C2621.73 99.8436 2621.54 100.61 2621.19 101.367C2616.84 110.557 2586.92 117.677 2550.64 117.677C2518.43 117.677 2491.24 112.069 2482.5 104.381C2480.58 102.69 2479.55 100.904 2479.55 99.0559C2479.55 88.7631 2511.37 80.4238 2550.64 80.4238C2589.9 80.4238 2621.73 88.7631 2621.73 99.0559Z" fill="#E38824"/>
<path d="M2621.69 101.364H2639.13C2652.89 101.364 2664.05 112.524 2664.05 126.291C2664.05 140.058 2652.89 151.218 2639.13 151.218H2620.33" stroke="#E38824" stroke-width="5" stroke-miterlimit="10" stroke-linecap="round"/>
<path d="M2356.67 279.318H2580.66" stroke="#573240" stroke-width="5" stroke-miterlimit="10" stroke-linecap="round"/>
<path d="M2356.67 338.043H2580.66" stroke="#573240" stroke-width="5" stroke-miterlimit="10" stroke-linecap="round"/>
<path d="M2356.67 455.492H2545.98" stroke="#573240" stroke-width="5" stroke-miterlimit="10" stroke-linecap="round"/>
<path d="M2356.67 514.216H2548.2" stroke="#573240" stroke-width="5" stroke-miterlimit="10" stroke-linecap="round"/>
<path d="M2356.67 572.94H2465.06" stroke="#573240" stroke-width="5" stroke-miterlimit="10" stroke-linecap="round"/>
<path d="M2356.67 631.896H2465.06" stroke="#573240" stroke-width="5" stroke-miterlimit="10" stroke-linecap="round"/>
<path d="M2356.67 396.768H2638.46" stroke="#573240" stroke-width="5" stroke-miterlimit="10" stroke-linecap="round"/>
<path d="M1797.67 1913.1H1248.46V1908.99C1248.46 1886.45 1266.74 1868.17 1289.28 1868.17H1756.85C1779.39 1868.17 1797.67 1886.45 1797.67 1908.99V1913.1Z" fill="white"/>
<path d="M1248.46 3082.17V1913.1H1604.02V3082.17" stroke="#573240" stroke-width="5" stroke-miterlimit="10" stroke-linecap="round"/>
<path d="M1604.02 3082.17V1913.1H1797.67V3082.17" stroke="#573240" stroke-width="5" stroke-miterlimit="10" stroke-linecap="round"/>
<path d="M1347.72 1632.28C1249.53 1632.28 1190.93 1707.33 1216.84 1799.9L1248.51 1913.1H1604.07L1572.4 1799.9C1546.49 1707.33 1445.9 1632.28 1347.72 1632.28Z" stroke="#573240" stroke-width="5" stroke-miterlimit="10" stroke-linecap="round"/>
<path d="M1395.14 1913.1L1347.21 1633.44" stroke="#573240" stroke-width="5" stroke-miterlimit="10" stroke-linecap="round"/>
<path d="M1524.03 1717.46C1452.25 1748.51 1409.46 1827.66 1425.22 1910.85" stroke="#573240" stroke-width="5" stroke-miterlimit="10" stroke-linecap="round"/>
<path d="M1215.58 1721.28C1299.71 1739.48 1363.01 1818.44 1363.01 1913.1" stroke="#573240" stroke-width="5" stroke-miterlimit="10" stroke-linecap="round"/>
<path d="M1248.46 2799.59C1248.46 2776.45 1268.36 2757.68 1292.91 2757.68H1559.58C1584.12 2757.68 1604.02 2776.45 1604.02 2799.59" stroke="#573240" stroke-width="5" stroke-miterlimit="10" stroke-linecap="round"/>
<path d="M1604.03 2799.59C1604.03 2776.45 1623.93 2757.68 1648.48 2757.68H1753.3C1777.85 2757.68 1797.74 2776.45 1797.74 2799.59" stroke="#573240" stroke-width="5" stroke-miterlimit="10" stroke-linecap="round"/>
<path d="M986.827 2951.76H569.515L777.593 1970.63H778.748L986.827 2951.76Z" fill="#573240"/>
<path d="M3 3082.17L30.6603 2951.74H569.441L541.78 3082.17" stroke="#573240" stroke-width="5" stroke-miterlimit="10" stroke-linecap="round"/>
<path d="M983.433 2951.74L1011.09 3082.17" stroke="#573240" stroke-width="5" stroke-miterlimit="10" stroke-linecap="round"/>
<path d="M569.52 2951.76H30.7432L238.822 1970.63H777.598L569.52 2951.76Z" fill="white" stroke="#573240" stroke-width="5" stroke-miterlimit="10" stroke-linecap="round"/>
<path d="M634.262 2037.31L586.335 2252.54H458.02L505.946 2037.31H634.262Z" fill="#FDE5E3"/>
<path d="M238.811 2272.11L376.89 2203.06" stroke="#573240" stroke-width="5" stroke-miterlimit="10" stroke-linecap="round"/>
<path d="M224.214 2332.39L564.459 2162.27" stroke="#573240" stroke-width="5" stroke-miterlimit="10" stroke-linecap="round"/>
<path d="M596.396 2495.98H217.71L234.48 2420.26H613.165L596.396 2495.98Z" fill="#B2DDDA"/>
<path d="M200.371 2462.45H544.376" stroke="#573240" stroke-width="5" stroke-miterlimit="10" stroke-linecap="round"/>
<path d="M187.655 2520.25H531.659" stroke="#573240" stroke-width="5" stroke-miterlimit="10" stroke-linecap="round"/>
<path d="M395.94 2861.42C462.467 2861.42 516.397 2807.49 516.397 2740.97C516.397 2674.44 462.467 2620.51 395.94 2620.51C329.413 2620.51 275.483 2674.44 275.483 2740.97C275.483 2807.49 329.413 2861.42 395.94 2861.42Z" fill="#E38824"/>
<path d="M373.976 2142.7C404.883 2142.7 429.938 2117.64 429.938 2086.73C429.938 2055.83 404.883 2030.77 373.976 2030.77C343.068 2030.77 318.013 2055.83 318.013 2086.73C318.013 2117.64 343.068 2142.7 373.976 2142.7Z" fill="#F6ACC1"/>
<path d="M144.421 2713.62H366.43" stroke="#573240" stroke-width="5" stroke-miterlimit="10" stroke-linecap="round"/>
<path d="M134.117 2762.17H400.138" stroke="#573240" stroke-width="5" stroke-miterlimit="10" stroke-linecap="round"/>
<path d="M285.999 2133.82C319.365 2090.54 387.973 2060.85 467.192 2060.85C547.574 2060.85 617.033 2091.42 649.833 2135.73" stroke="#573240" stroke-width="5" stroke-miterlimit="10" stroke-linecap="round"/>
<path d="M2477.51 1346.97H2132.31L2247.91 1104.06H2593.11L2477.51 1346.97Z" fill="#A9D8D5"/>
<path d="M2457.86 1346.97H2112.66L2228.26 1104.06H2573.46L2457.86 1346.97Z" stroke="#573240" stroke-width="5" stroke-miterlimit="10" stroke-linecap="round"/>
<path d="M2420.58 1448.23H2323.93L2289.25 1284.84H2385.9L2420.58 1448.23Z" stroke="#573240" stroke-width="5" stroke-miterlimit="10" stroke-linecap="round"/>
<path d="M2511.3 3097.51H3805.21" stroke="#573240" stroke-width="5" stroke-miterlimit="10" stroke-linecap="round"/>
<path d="M3511.72 1107.12L3393.88 1527.24L3413.06 1645.37C3413.06 1645.37 3165.28 1754.16 2971.2 1542.9L2969.34 1188.17L2804.37 1186.25L2836.58 1021.38C2847.5 966.31 2890.44 923.18 2945.49 912.048L3092.55 882.293C3109.24 878.917 3122.34 865.97 3125.9 849.324L3127.64 841.197H3275.92L3279.41 848.307C3287.38 864.537 3301.5 876.906 3318.65 882.651L3408.91 912.915C3489.44 939.919 3534.67 1025.33 3511.72 1107.12Z" fill="#573240"/>
<path d="M3403.85 2905.74C3403.85 2905.74 3270.11 2939.49 3170.38 2905.74L3128.67 2023.22L3020.3 2247.33C3166.06 2477.24 3159.92 2776.13 3159.92 2776.13C3123.1 2806.81 2952.8 2865.85 2952.8 2865.85L2754.28 2390.69C2719.59 2307.63 2717.95 2214.46 2749.72 2130.23L2971.2 1542.9C3027.66 1604.36 3088.67 1638.74 3146.8 1656.56C3180.22 1666.84 3212.68 1671.64 3242.77 1672.97C3333.14 1677 3402.23 1649.87 3411.9 1645.86L3413.06 2274.46C3413.06 2274.46 3537.34 2601.96 3403.85 2905.74Z" fill="#A9D8D5"/>
<path d="M3159.91 2776.13C3159.91 2776.13 3166.05 2477.23 3020.3 2247.33L3242.76 1787.29H3288.54" stroke="#573240" stroke-width="5" stroke-miterlimit="10" stroke-linecap="round"/>
<path d="M3215.41 2894.79L2993.77 3097.51H2899.61V3088.41C2899.61 3076.52 2903.54 3064.99 2910.73 3055.52C2930.68 3029.25 2970.18 2968.38 2967.12 2901.64C2967.12 2901.64 3044.52 2881.75 3154.12 2810.13L3215.68 2868.85C3223.12 2875.95 3223 2887.86 3215.41 2894.79Z" fill="#573240"/>
<path d="M3215.68 2871.16L2987.99 3079.02H2893.83" stroke="white" stroke-width="5" stroke-miterlimit="10" stroke-linecap="round"/>
<path d="M2952.8 2865.85L2967.12 2901.64C2967.12 2901.64 3059.35 2875.1 3154.12 2810.13L3153.05 2781.18C3153.05 2781.18 3061.21 2829.03 2952.8 2865.85Z" fill="white"/>
<path d="M3393.12 2951.76L3423.17 3073.83C3426.14 3085.87 3417.02 3097.51 3404.61 3097.51H3085.01C3073.56 3097.51 3068.1 3083.45 3076.54 3075.73L3212.08 2951.76H3393.12Z" fill="#573240"/>
<path d="M3427.73 3076.71H3073.45" stroke="white" stroke-width="5" stroke-miterlimit="10" stroke-linecap="round"/>
<path d="M3403.86 2905.74L3393.12 2951.76C3393.12 2951.76 3268.84 2974.27 3212.08 2951.76V2916.49C3212.08 2916.49 3299.02 2928.75 3403.86 2905.74Z" fill="white"/>
<path d="M2804.37 1186.25L3030.66 1188.89L2969.1 1383.73C2957.62 1420.06 2923.91 1444.76 2885.81 1444.76H2313.09C2308.5 1444.76 2306.64 1438.85 2310.42 1436.24C2348.42 1409.88 2485.01 1326.55 2792.48 1245.32L2804.37 1186.25Z" fill="#E38824"/>
<path d="M3024.2 1200.6L3043.04 1140.99" stroke="#E38824" stroke-width="5" stroke-miterlimit="10" stroke-linecap="round"/>
<path d="M3275.92 841.197H3127.64L3138.44 788.507H3251.21L3275.92 841.197Z" fill="#E38824"/>
<path d="M3251.84 739.058C3260.84 741.799 3267.38 751.221 3267.38 761.114V768.865C3267.38 780.989 3257.55 790.816 3245.43 790.816H3214.27C3210.82 805.268 3197.82 816.013 3182.32 816.013H3128.15C3122.81 816.013 3118.48 811.682 3118.48 806.339V769.727L3107.51 767.773C3104.34 767.206 3102.57 763.792 3103.92 760.873L3133.38 697.666C3136.35 698.349 3139.43 698.706 3142.62 698.706C3153.53 698.706 3163.39 694.474 3170.5 687.647H3177.75C3185.06 687.647 3190.98 693.571 3190.98 700.88V728.209C3190.98 740.98 3201.34 751.326 3214.11 751.326C3214.01 744.712 3219.31 739.282 3225.93 739.237L3251.84 739.058Z" fill="#E38824"/>
<path d="M3225.54 767.615C3225.54 758.282 3233.11 750.715 3242.44 750.715" stroke="#573240" stroke-width="5" stroke-miterlimit="10" stroke-linecap="round"/>
<path d="M3133.94 818.32H3182.32C3198.58 818.32 3212.08 806.506 3214.7 790.995H3239.07" stroke="#573240" stroke-width="5" stroke-miterlimit="10" stroke-linecap="round"/>
<path d="M3135.09 714.236L3157.12 716.842" stroke="#573240" stroke-width="5" stroke-miterlimit="10" stroke-linecap="round"/>
<path d="M3144.38 744.066C3146.85 744.066 3148.85 741.148 3148.85 737.549C3148.85 733.95 3146.85 731.032 3144.38 731.032C3141.92 731.032 3139.92 733.95 3139.92 737.549C3139.92 741.148 3141.92 744.066 3144.38 744.066Z" fill="#573240"/>
<path d="M3120.79 781.187C3120.79 781.187 3133.88 782.344 3138.76 774.15" stroke="#573240" stroke-width="5" stroke-miterlimit="10" stroke-linecap="round" stroke-linejoin="round"/>
<path d="M3251.84 739.058C3249.81 738.438 3247.66 739.153 3245.43 739.153H3232.36C3224.18 739.153 3217.19 744.184 3214.29 751.325H3214.11C3201.34 751.325 3190.98 740.98 3190.98 728.209V700.88C3190.98 693.57 3185.06 687.647 3177.75 687.647H3170.5C3163.39 694.473 3153.53 698.706 3142.62 698.706C3120.99 698.706 3103.46 682.08 3103.46 661.558C3103.46 641.045 3120.99 624.419 3142.62 624.419C3162.29 624.419 3178.57 638.168 3181.36 656.086C3227.19 649.857 3234.33 687.647 3234.33 687.647C3234.33 687.647 3259.64 680.736 3265.4 702.214C3269.22 716.508 3260.16 729.637 3251.84 739.058Z" fill="#FCD4D0"/>
<path d="M1059.28 1223.98C1056.57 1229.24 1051.19 1232.5 1045.29 1232.5H817.151V1221.51C817.151 1198.86 835.577 1180.43 858.223 1180.43H864.696C874.441 1167.04 890.232 1158.31 908.023 1158.31H917.999C926.901 1147.77 940.217 1141.05 955.083 1141.05H965.66C985.959 1141.05 1003.99 1153.62 1011.09 1172.48C1026.16 1173.89 1040.01 1181.84 1048.82 1194.35L1058.19 1207.63C1061.58 1212.47 1062.01 1218.73 1059.28 1223.98Z" fill="#E38824"/>
<path d="M865.426 1183.32H858.224C837.138 1183.32 820.044 1200.42 820.044 1221.5V1229.61H981.452" stroke="#573240" stroke-width="5" stroke-miterlimit="10" stroke-linecap="round"/>
<path d="M857.376 1229.61V1211.85C857.376 1183.88 880.053 1161.2 908.026 1161.2H918.703" stroke="#573240" stroke-width="5" stroke-miterlimit="10" stroke-linecap="round"/>
<path d="M909.427 1229.61V1189.59C909.427 1164.38 929.866 1143.95 955.077 1143.95H965.658C985.818 1143.95 1002.93 1157.01 1008.97 1175.14" stroke="#573240" stroke-width="5" stroke-miterlimit="10" stroke-linecap="round"/>
<path d="M970.397 1218.55V1207.89C970.397 1189.8 985.057 1175.14 1003.14 1175.14H1006.24C1022.24 1175.14 1037.25 1182.93 1046.46 1196.01L1055.82 1209.3C1061.83 1217.84 1055.73 1229.61 1045.28 1229.61H981.452C975.347 1229.61 970.397 1224.66 970.397 1218.55Z" stroke="#573240" stroke-width="5" stroke-miterlimit="10" stroke-linecap="round"/>
<path d="M766.819 1223.98C764.102 1229.24 758.728 1232.5 752.82 1232.5H524.685V1221.51C524.685 1198.86 543.112 1180.43 565.758 1180.43H572.23C581.975 1167.04 597.766 1158.31 615.557 1158.31H625.534C634.435 1147.77 647.751 1141.05 662.617 1141.05H673.194C693.493 1141.05 711.527 1153.62 718.625 1172.48C733.699 1173.89 747.547 1181.84 756.356 1194.35L765.719 1207.63C769.119 1212.47 769.547 1218.73 766.819 1223.98Z" fill="#E38824"/>
<path d="M572.96 1183.32H565.759C544.672 1183.32 527.579 1200.42 527.579 1221.5V1229.61H688.987" stroke="#573240" stroke-width="5" stroke-miterlimit="10" stroke-linecap="round"/>
<path d="M564.911 1229.61V1211.85C564.911 1183.88 587.588 1161.2 615.561 1161.2H626.237" stroke="#573240" stroke-width="5" stroke-miterlimit="10" stroke-linecap="round"/>
<path d="M616.962 1229.61V1189.59C616.962 1164.38 637.401 1143.95 662.612 1143.95H673.194C693.353 1143.95 710.461 1157.01 716.507 1175.14" stroke="#573240" stroke-width="5" stroke-miterlimit="10" stroke-linecap="round"/>
<path d="M677.932 1218.55V1207.89C677.932 1189.8 692.592 1175.14 710.676 1175.14H713.775C729.779 1175.14 744.782 1182.93 753.997 1196.01L763.353 1209.3C769.366 1217.84 763.26 1229.61 752.816 1229.61H688.987C682.882 1229.61 677.932 1224.66 677.932 1218.55Z" stroke="#573240" stroke-width="5" stroke-miterlimit="10" stroke-linecap="round"/>
<path d="M1032.68 1350.44C1048.36 1350.44 1061.07 1337.73 1061.07 1322.06C1061.07 1306.38 1048.36 1293.67 1032.68 1293.67C1017.01 1293.67 1004.3 1306.38 1004.3 1322.06C1004.3 1337.73 1017.01 1350.44 1032.68 1350.44Z" fill="#A9D8D5"/>
<path d="M1074.03 1309.16C1089.7 1309.16 1102.41 1296.45 1102.41 1280.77C1102.41 1265.1 1089.7 1252.39 1074.03 1252.39C1058.35 1252.39 1045.64 1265.1 1045.64 1280.77C1045.64 1296.45 1058.35 1309.16 1074.03 1309.16Z" fill="#F6ACC1"/>
<path d="M1085.71 1399.56C1086.34 1399.42 1086.97 1399.28 1087.6 1399.12C1091.02 1398.25 1094.35 1396.83 1097.5 1395.26C1103.69 1392.16 1109.34 1388.01 1114.18 1383.05C1124.13 1372.86 1130.43 1359.4 1132.02 1345.24C1132.3 1342.79 1132.44 1340.32 1132.44 1337.85C1132.44 1337.85 1008.41 1337.85 1008.41 1337.85C1008.07 1337.85 1009.15 1347.77 1009.3 1348.67C1009.89 1352.21 1010.77 1355.71 1011.94 1359.11C1014.21 1365.72 1017.56 1371.96 1021.84 1377.5C1026 1382.89 1031.03 1387.61 1036.69 1391.39C1040.19 1393.73 1043.85 1395.87 1047.74 1397.48C1051.46 1399.02 1055.27 1399.19 1059.05 1400.33C1065.45 1402.27 1069.94 1408.34 1069.94 1415.02V1422.93C1069.94 1436.9 1058.98 1448.23 1045.47 1448.23H1095.37C1081.86 1448.23 1070.9 1436.9 1070.9 1422.93C1070.9 1422.93 1070.9 1415.02 1070.9 1415.02C1070.9 1410.43 1073.01 1406 1076.57 1403.11C1079.22 1400.96 1082.48 1400.29 1085.71 1399.56Z" stroke="#573240" stroke-width="5" stroke-miterlimit="10" stroke-linecap="round"/>
<path d="M1057.37 1336.69L1136 1252.39" stroke="#573240" stroke-width="5" stroke-miterlimit="10" stroke-linecap="round"/>
<path d="M1103.99 1359.63C1121.71 1359.63 1136.08 1345.27 1136.08 1327.55C1136.08 1309.83 1121.71 1295.47 1103.99 1295.47C1086.28 1295.47 1071.91 1309.83 1071.91 1327.55C1071.91 1345.27 1086.28 1359.63 1103.99 1359.63Z" fill="#FF6E00"/>
<path d="M848.88 1353.88C865.504 1353.88 878.981 1340.4 878.981 1323.78C878.981 1307.15 865.504 1293.67 848.88 1293.67C832.255 1293.67 818.779 1307.15 818.779 1323.78C818.779 1340.4 832.255 1353.88 848.88 1353.88Z" fill="#E38824"/>
<path d="M887.912 1309.16C903.587 1309.16 916.295 1296.45 916.295 1280.77C916.295 1265.1 903.587 1252.39 887.912 1252.39C872.236 1252.39 859.529 1265.1 859.529 1280.77C859.529 1296.45 872.236 1309.16 887.912 1309.16Z" fill="#A9D8D5"/>
<path d="M871.254 1336.69L949.882 1252.39" stroke="#FF6E00" stroke-width="5" stroke-miterlimit="10" stroke-linecap="round"/>
<path d="M917.881 1359.63C935.599 1359.63 949.962 1345.27 949.962 1327.55C949.962 1309.83 935.599 1295.47 917.881 1295.47C900.163 1295.47 885.8 1309.83 885.8 1327.55C885.8 1345.27 900.163 1359.63 917.881 1359.63Z" fill="#573240"/>
<path d="M898.433 1399.56C899.065 1399.42 899.695 1399.28 900.32 1399.12C903.739 1398.25 907.07 1396.83 910.221 1395.26C916.415 1392.16 922.067 1388.01 926.903 1383.05C936.858 1372.86 943.159 1359.4 944.747 1345.24C945.022 1342.79 945.16 1340.32 945.16 1337.85C945.16 1337.85 821.139 1337.85 821.134 1337.85C820.799 1337.85 821.873 1347.77 822.022 1348.67C822.612 1352.21 823.494 1355.71 824.661 1359.11C826.932 1365.72 830.287 1371.96 834.562 1377.5C838.725 1382.89 843.754 1387.61 849.419 1391.39C852.913 1393.73 856.573 1395.87 860.462 1397.48C864.184 1399.02 867.996 1399.19 871.769 1400.33C878.17 1402.27 882.666 1408.34 882.666 1415.02V1422.93C882.666 1436.9 871.707 1448.23 858.193 1448.23H908.097C894.584 1448.23 883.625 1436.9 883.625 1422.93C883.625 1422.93 883.625 1415.02 883.625 1415.02C883.625 1410.43 885.733 1406 889.291 1403.11C891.94 1400.96 895.202 1400.29 898.433 1399.56Z" stroke="#573240" stroke-width="5" stroke-miterlimit="10" stroke-linecap="round"/>
<path d="M662.765 1353.88C680.348 1353.88 694.601 1339.62 694.601 1322.04C694.601 1304.46 680.348 1290.21 662.765 1290.21C645.183 1290.21 630.93 1304.46 630.93 1322.04C630.93 1339.62 645.183 1353.88 662.765 1353.88Z" fill="#A9D8D5"/>
<path d="M701.798 1309.16C717.473 1309.16 730.18 1296.45 730.18 1280.77C730.18 1265.1 717.473 1252.39 701.798 1252.39C686.122 1252.39 673.415 1265.1 673.415 1280.77C673.415 1296.45 686.122 1309.16 701.798 1309.16Z" fill="#573240"/>
<path d="M685.14 1336.69L763.768 1252.39" stroke="#E38824" stroke-width="5" stroke-miterlimit="10" stroke-linecap="round"/>
<path d="M713.549 1399.56C714.181 1399.42 714.811 1399.28 715.436 1399.12C718.855 1398.25 722.186 1396.83 725.337 1395.26C731.531 1392.16 737.183 1388.01 742.019 1383.05C751.975 1372.86 758.275 1359.4 759.863 1345.24C760.138 1342.79 760.276 1340.32 760.276 1337.85C760.276 1337.85 636.255 1337.85 636.25 1337.85C635.915 1337.85 636.989 1347.77 637.138 1348.67C637.728 1352.21 638.61 1355.71 639.777 1359.11C642.049 1365.72 645.403 1371.96 649.678 1377.5C653.84 1382.89 658.87 1387.61 664.535 1391.39C668.03 1393.73 671.689 1395.87 675.578 1397.48C679.3 1399.02 683.113 1399.19 686.886 1400.33C693.287 1402.27 697.783 1408.34 697.783 1415.02V1422.93C697.783 1436.9 686.824 1448.23 673.31 1448.23H723.215C709.702 1448.23 698.742 1436.9 698.742 1422.93C698.742 1422.93 698.742 1415.02 698.742 1415.02C698.742 1410.43 700.85 1406 704.408 1403.11C707.056 1400.96 710.318 1400.29 713.549 1399.56Z" stroke="#573240" stroke-width="5" stroke-miterlimit="10" stroke-linecap="round"/>
<path d="M731.726 1359.55C749.422 1359.55 763.767 1345.21 763.767 1327.51C763.767 1309.81 749.422 1295.47 731.726 1295.47C714.03 1295.47 699.685 1309.81 699.685 1327.51C699.685 1345.21 714.03 1359.55 731.726 1359.55Z" fill="#F6ACC1"/>
<path d="M395.491 1376.56L379.485 1448.23H316.614L301.259 1379.48C304.673 1381.11 309.031 1382.1 314.535 1382.1C321.834 1382.1 330.583 1380.6 334.396 1374.82C333.944 1385.7 340.309 1399.48 355.601 1399.44C366.671 1399.4 373.067 1388.78 374.695 1381.29C374.695 1381.29 386.511 1382.18 395.491 1376.56Z" fill="#E38824"/>
<path d="M314.537 1382.1C321.832 1382.1 330.583 1380.61 334.397 1374.81C333.943 1385.7 340.305 1399.48 355.598 1399.44C366.675 1399.4 373.066 1388.78 374.696 1381.29C374.696 1381.29 403.509 1383.47 405.364 1359.61C407.075 1337.62 376.915 1320.25 347.518 1320.25C318.133 1320.25 289.673 1337.87 289.673 1359.61C289.673 1368.76 294.31 1382.1 314.537 1382.1Z" fill="#A9D8D5"/>
<path d="M313.154 1363.05C315.881 1363.05 318.091 1360.84 318.091 1358.11C318.091 1355.38 315.881 1353.17 313.154 1353.17C310.427 1353.17 308.216 1355.38 308.216 1358.11C308.216 1360.84 310.427 1363.05 313.154 1363.05Z" fill="#573240"/>
<path d="M325.305 1343.25C328.032 1343.25 330.243 1341.04 330.243 1338.31C330.243 1335.58 328.032 1333.37 325.305 1333.37C322.578 1333.37 320.368 1335.58 320.368 1338.31C320.368 1341.04 322.578 1343.25 325.305 1343.25Z" fill="#573240"/>
<path d="M340.305 1351.63C343.032 1351.63 345.242 1349.42 345.242 1346.7C345.242 1343.97 343.032 1341.76 340.305 1341.76C337.578 1341.76 335.368 1343.97 335.368 1346.7C335.368 1349.42 337.578 1351.63 340.305 1351.63Z" fill="#573240"/>
<path d="M359.393 1378.07C362.12 1378.07 364.331 1375.86 364.331 1373.14C364.331 1370.41 362.12 1368.2 359.393 1368.2C356.667 1368.2 354.456 1370.41 354.456 1373.14C354.456 1375.86 356.667 1378.07 359.393 1378.07Z" fill="#573240"/>
<path d="M373.266 1361.89C375.992 1361.89 378.203 1359.68 378.203 1356.95C378.203 1354.23 375.992 1352.02 373.266 1352.02C370.539 1352.02 368.328 1354.23 368.328 1356.95C368.328 1359.68 370.539 1361.89 373.266 1361.89Z" fill="#573240"/>
<path d="M387.137 1337.62C389.863 1337.62 392.074 1335.41 392.074 1332.68C392.074 1329.95 389.863 1327.74 387.137 1327.74C384.41 1327.74 382.199 1329.95 382.199 1332.68C382.199 1335.41 384.41 1337.62 387.137 1337.62Z" fill="#573240"/>
<path d="M361.704 1339.93C364.431 1339.93 366.642 1337.72 366.642 1334.99C366.642 1332.26 364.431 1330.05 361.704 1330.05C358.978 1330.05 356.767 1332.26 356.767 1334.99C356.767 1337.72 358.978 1339.93 361.704 1339.93Z" fill="#573240"/>
<path d="M414.049 1153.73L396.877 1228.45H334.007L319.408 1164.93C323.147 1167.55 328.01 1169.26 334.238 1169.26C341.527 1169.26 347.975 1165.45 351.788 1159.66C354.151 1169.16 362.753 1176.19 372.983 1176.19C381.206 1176.19 394.514 1168.3 392.087 1153.42C392.087 1153.42 405.573 1159.35 414.049 1153.73Z" fill="#573240"/>
<path d="M334.238 1169.25C341.532 1169.25 347.971 1165.45 351.786 1159.66C354.155 1169.16 362.756 1176.19 372.987 1176.19C381.206 1176.19 394.515 1168.3 392.084 1153.41C392.084 1153.41 417.181 1164.46 420.441 1142.14C423.171 1123.45 401.897 1102.78 364.907 1102.78C335.522 1102.78 308.217 1120.4 308.217 1142.14C308.217 1151.29 314.01 1169.25 334.238 1169.25Z" fill="#FF6E00"/>
<path d="M408.439 1179.76C412.908 1179.76 416.532 1176.14 416.532 1171.67C416.532 1167.2 412.908 1163.58 408.439 1163.58C403.97 1163.58 400.347 1167.2 400.347 1171.67C400.347 1176.14 403.97 1179.76 408.439 1179.76Z" fill="#FF6E00"/>
<path d="M330.733 1133.32C333.46 1133.32 335.67 1131.1 335.67 1128.38C335.67 1125.65 333.46 1123.44 330.733 1123.44C328.006 1123.44 325.795 1125.65 325.795 1128.38C325.795 1131.1 328.006 1133.32 330.733 1133.32Z" fill="#E38824"/>
<path d="M344.31 1148.13C347.037 1148.13 349.247 1145.92 349.247 1143.19C349.247 1140.46 347.037 1138.25 344.31 1138.25C341.583 1138.25 339.373 1140.46 339.373 1143.19C339.373 1145.92 341.583 1148.13 344.31 1148.13Z" fill="#E38824"/>
<path d="M357.886 1120.97C360.612 1120.97 362.823 1118.76 362.823 1116.03C362.823 1113.31 360.612 1111.1 357.886 1111.1C355.159 1111.1 352.948 1113.31 352.948 1116.03C352.948 1118.76 355.159 1120.97 357.886 1120.97Z" fill="#E38824"/>
<path d="M370.229 1159.23C372.956 1159.23 375.166 1157.02 375.166 1154.3C375.166 1151.57 372.956 1149.36 370.229 1149.36C367.502 1149.36 365.292 1151.57 365.292 1154.3C365.292 1157.02 367.502 1159.23 370.229 1159.23Z" fill="#E38824"/>
<path d="M382.572 1133.32C385.299 1133.32 387.509 1131.1 387.509 1128.38C387.509 1125.65 385.299 1123.44 382.572 1123.44C379.845 1123.44 377.634 1125.65 377.634 1128.38C377.634 1131.1 379.845 1133.32 382.572 1133.32Z" fill="#E38824"/>
<path d="M395.411 1114.36C398.137 1114.36 400.348 1112.15 400.348 1109.43C400.348 1106.7 398.137 1104.49 395.411 1104.49C392.684 1104.49 390.473 1106.7 390.473 1109.43C390.473 1112.15 392.684 1114.36 395.411 1114.36Z" fill="#E38824"/>
<path d="M408.491 1145.66C411.218 1145.66 413.429 1143.45 413.429 1140.72C413.429 1137.99 411.218 1135.78 408.491 1135.78C405.764 1135.78 403.554 1137.99 403.554 1140.72C403.554 1143.45 405.764 1145.66 408.491 1145.66Z" fill="#E38824"/>
<path d="M562.201 1377.95L546.5 1448.23H483.63L468.978 1382.66C472.602 1385.3 477.454 1387.03 483.861 1387.03C491.16 1387.03 497.598 1383.4 501.411 1377.86C503.785 1386.94 512.386 1393.66 522.616 1393.66C530.829 1393.66 537.982 1389.33 541.71 1382.94C541.71 1382.94 554.156 1384.75 562.201 1377.95Z" fill="#573240"/>
<path d="M483.865 1387.03C491.159 1387.03 497.599 1383.39 501.413 1377.86C503.783 1386.94 512.383 1393.66 522.614 1393.66C530.834 1393.66 537.978 1389.34 541.712 1382.94C541.712 1382.94 568.912 1386.91 568.912 1361.12C568.912 1339.07 543.931 1323.5 514.534 1323.5C485.149 1323.5 459 1340.34 459 1361.12C459 1369.86 463.638 1387.03 483.865 1387.03Z" fill="#F6ACC1"/>
<path d="M479.835 1370.48C482.622 1370.48 484.881 1368.22 484.881 1365.44C484.881 1362.65 482.622 1360.39 479.835 1360.39C477.048 1360.39 474.79 1362.65 474.79 1365.44C474.79 1368.22 477.048 1370.48 479.835 1370.48Z" fill="white"/>
<path d="M495.987 1346.59C498.773 1346.59 501.032 1344.33 501.032 1341.54C501.032 1338.76 498.773 1336.5 495.987 1336.5C493.2 1336.5 490.941 1338.76 490.941 1341.54C490.941 1344.33 493.2 1346.59 495.987 1346.59Z" fill="white"/>
<path d="M507.851 1362C510.638 1362 512.897 1359.74 512.897 1356.95C512.897 1354.17 510.638 1351.91 507.851 1351.91C505.065 1351.91 502.806 1354.17 502.806 1356.95C502.806 1359.74 505.065 1362 507.851 1362Z" fill="white"/>
<path d="M532.841 1351.74C535.628 1351.74 537.887 1349.48 537.887 1346.7C537.887 1343.91 535.628 1341.65 532.841 1341.65C530.055 1341.65 527.796 1343.91 527.796 1346.7C527.796 1349.48 530.055 1351.74 532.841 1351.74Z" fill="white"/>
<path d="M512.897 1328.55C515.684 1328.55 517.943 1326.29 517.943 1323.5C517.943 1320.72 515.684 1318.46 512.897 1318.46C510.11 1318.46 507.852 1320.72 507.852 1323.5C507.852 1326.29 510.11 1328.55 512.897 1328.55Z" fill="white"/>
<path d="M556.989 1345.08C559.776 1345.08 562.035 1342.82 562.035 1340.04C562.035 1337.25 559.776 1334.99 556.989 1334.99C554.202 1334.99 551.943 1337.25 551.943 1340.04C551.943 1342.82 554.202 1345.08 556.989 1345.08Z" fill="white"/>
<path d="M542.933 1376.74C545.72 1376.74 547.979 1374.48 547.979 1371.7C547.979 1368.91 545.72 1366.65 542.933 1366.65C540.147 1366.65 537.888 1368.91 537.888 1371.7C537.888 1374.48 540.147 1376.74 542.933 1376.74Z" fill="white"/>
<path d="M1264.14 1448.23H243.422V944.242H756.543C937.814 944.242 1101.19 1053.54 1170.37 1221.09L1264.14 1448.23Z" stroke="#573240" stroke-width="5" stroke-miterlimit="10" stroke-linecap="round"/>
<path d="M244.125 1229.61H1171.41" stroke="#573240" stroke-width="5" stroke-miterlimit="10" stroke-linecap="round"/>
<path d="M650.307 1448.23H243.421V945.017C376.21 967.2 490.399 1060.92 542.927 1188.16L650.307 1448.23Z" stroke="#573240" stroke-width="5" stroke-miterlimit="10" stroke-linecap="round"/>
<path d="M1509.5 492.293C1509.5 506.484 1498 517.988 1483.81 517.988C1469.62 517.988 1458.12 506.484 1458.12 492.293" stroke="#573240" stroke-width="5" stroke-miterlimit="10"/>
<path d="M1485.48 3V413.456" stroke="#573240" stroke-width="5" stroke-miterlimit="10" stroke-linecap="round"/>
<path d="M1688.63 492.041H1282.34C1284.43 483.175 1288.96 475.245 1295.19 469.014C1303.93 460.286 1316 454.876 1329.33 454.876H1376.71C1382.63 454.876 1388.24 452.252 1392.03 447.72L1410.74 425.364C1417.07 417.816 1426.4 413.457 1436.24 413.457H1534.72C1544.56 413.457 1553.9 417.814 1560.21 425.364L1578.94 447.732C1582.73 452.264 1588.34 454.876 1594.24 454.876H1641.64C1664.47 454.876 1683.62 470.736 1688.63 492.041Z" fill="#F6ACC1"/>
<path d="M860.093 3V413.456" stroke="#573240" stroke-width="5" stroke-miterlimit="10" stroke-linecap="round"/>
<path d="M1063.24 492.041H656.944C659.037 483.175 663.569 475.245 669.799 469.014C678.538 460.286 690.607 454.876 703.935 454.876H751.319C757.237 454.876 762.844 452.252 766.635 447.72L785.35 425.364C791.673 417.816 801.003 413.457 810.851 413.457H909.33C919.167 413.457 928.508 417.814 934.819 425.364L953.546 447.732C957.338 452.264 962.944 454.876 968.852 454.876H1016.25C1039.08 454.876 1058.22 470.736 1063.24 492.041Z" fill="#A9D8D5"/>
<path d="M886.425 492.293C886.425 506.484 874.922 517.987 860.731 517.987C846.541 517.987 835.037 506.484 835.037 492.293" stroke="#573240" stroke-width="5" stroke-miterlimit="10"/>
</svg>
