<svg width="4028" height="3500" viewBox="0 0 4028 3500" fill="none" xmlns="http://www.w3.org/2000/svg">
<path d="M4028 0H0V3500H4028V0Z" fill="white"/>
<path d="M3682.93 1648.23H521.569V777.692C521.569 660.267 616.76 565.075 734.186 565.075H3470.31C3587.74 565.075 3682.93 660.267 3682.93 777.691V1648.23Z" fill="#FDE5E3"/>
<path d="M651.034 565.075V1106.65H518.938" stroke="white" stroke-width="5" stroke-miterlimit="10"/>
<path d="M651.034 1106.65H518.938V1648.23H651.034V1106.65Z" stroke="white" stroke-width="5" stroke-miterlimit="10"/>
<path d="M783.131 565.075H651.035V1106.65H783.131V565.075Z" stroke="white" stroke-width="5" stroke-miterlimit="10"/>
<path d="M783.131 1106.65H651.034V1648.23H783.131V1106.65Z" stroke="white" stroke-width="5" stroke-miterlimit="10"/>
<path d="M915.228 565.075H783.132V1106.65H915.228V565.075Z" stroke="white" stroke-width="5" stroke-miterlimit="10"/>
<path d="M915.228 1106.65H783.131V1648.23H915.228V1106.65Z" stroke="white" stroke-width="5" stroke-miterlimit="10"/>
<path d="M1047.33 565.075H915.229V1106.65H1047.33V565.075Z" stroke="white" stroke-width="5" stroke-miterlimit="10"/>
<path d="M1047.33 1106.65H915.229V1648.23H1047.33V1106.65Z" stroke="white" stroke-width="5" stroke-miterlimit="10"/>
<path d="M1179.42 565.075H1047.33V1106.65H1179.42V565.075Z" stroke="white" stroke-width="5" stroke-miterlimit="10"/>
<path d="M1179.42 1106.65H1047.33V1648.23H1179.42V1106.65Z" stroke="white" stroke-width="5" stroke-miterlimit="10"/>
<path d="M1311.52 565.075H1179.42V1106.65H1311.52V565.075Z" stroke="white" stroke-width="5" stroke-miterlimit="10"/>
<path d="M1311.52 1106.65H1179.42V1648.23H1311.52V1106.65Z" stroke="white" stroke-width="5" stroke-miterlimit="10"/>
<path d="M1443.62 565.075H1311.52V1106.65H1443.62V565.075Z" stroke="white" stroke-width="5" stroke-miterlimit="10"/>
<path d="M1443.61 1106.65H1311.52V1648.23H1443.61V1106.65Z" stroke="white" stroke-width="5" stroke-miterlimit="10"/>
<path d="M1575.71 565.075H1443.61V1106.65H1575.71V565.075Z" stroke="white" stroke-width="5" stroke-miterlimit="10"/>
<path d="M1575.71 1106.65H1443.61V1648.23H1575.71V1106.65Z" stroke="white" stroke-width="5" stroke-miterlimit="10"/>
<path d="M1707.81 565.075H1575.71V1106.65H1707.81V565.075Z" stroke="white" stroke-width="5" stroke-miterlimit="10"/>
<path d="M1707.81 1106.65H1575.71V1648.23H1707.81V1106.65Z" stroke="white" stroke-width="5" stroke-miterlimit="10"/>
<path d="M1839.91 565.075H1707.81V1106.65H1839.91V565.075Z" stroke="white" stroke-width="5" stroke-miterlimit="10"/>
<path d="M1839.91 1106.65H1707.81V1648.23H1839.91V1106.65Z" stroke="white" stroke-width="5" stroke-miterlimit="10"/>
<path d="M1972 565.075H1839.91V1106.65H1972V565.075Z" stroke="white" stroke-width="5" stroke-miterlimit="10"/>
<path d="M1972 1106.65H1839.91V1648.23H1972V1106.65Z" stroke="white" stroke-width="5" stroke-miterlimit="10"/>
<path d="M2104.1 565.075H1972V1106.65H2104.1V565.075Z" stroke="white" stroke-width="5" stroke-miterlimit="10"/>
<path d="M2104.1 1106.65H1972V1648.23H2104.1V1106.65Z" stroke="white" stroke-width="5" stroke-miterlimit="10"/>
<path d="M2236.2 565.075H2104.1V1106.65H2236.2V565.075Z" stroke="white" stroke-width="5" stroke-miterlimit="10"/>
<path d="M2236.19 1106.65H2104.1V1648.23H2236.19V1106.65Z" stroke="white" stroke-width="5" stroke-miterlimit="10"/>
<path d="M2368.29 565.075H2236.2V1106.65H2368.29V565.075Z" stroke="white" stroke-width="5" stroke-miterlimit="10"/>
<path d="M2368.29 1106.65H2236.2V1648.23H2368.29V1106.65Z" stroke="white" stroke-width="5" stroke-miterlimit="10"/>
<path d="M2500.39 565.075H2368.29V1106.65H2500.39V565.075Z" stroke="white" stroke-width="5" stroke-miterlimit="10"/>
<path d="M2500.39 1106.65H2368.29V1648.23H2500.39V1106.65Z" stroke="white" stroke-width="5" stroke-miterlimit="10"/>
<path d="M2632.49 565.075H2500.39V1106.65H2632.49V565.075Z" stroke="white" stroke-width="5" stroke-miterlimit="10"/>
<path d="M2632.49 1106.65H2500.39V1648.23H2632.49V1106.65Z" stroke="white" stroke-width="5" stroke-miterlimit="10"/>
<path d="M2764.58 565.075H2632.49V1106.65H2764.58V565.075Z" stroke="white" stroke-width="5" stroke-miterlimit="10"/>
<path d="M2764.58 1106.65H2632.49V1648.23H2764.58V1106.65Z" stroke="white" stroke-width="5" stroke-miterlimit="10"/>
<path d="M2896.68 565.075H2764.58V1106.65H2896.68V565.075Z" stroke="white" stroke-width="5" stroke-miterlimit="10"/>
<path d="M2896.68 1106.65H2764.58V1648.23H2896.68V1106.65Z" stroke="white" stroke-width="5" stroke-miterlimit="10"/>
<path d="M3028.77 565.075H2896.68V1106.65H3028.77V565.075Z" stroke="white" stroke-width="5" stroke-miterlimit="10"/>
<path d="M3028.77 1106.65H2896.68V1648.23H3028.77V1106.65Z" stroke="white" stroke-width="5" stroke-miterlimit="10"/>
<path d="M3160.87 565.076H3028.77V1106.65H3160.87V565.076Z" stroke="white" stroke-width="5" stroke-miterlimit="10"/>
<path d="M3160.87 1106.65H3028.77V1648.23H3160.87V1106.65Z" stroke="white" stroke-width="5" stroke-miterlimit="10"/>
<path d="M3292.97 565.075H3160.87V1106.65H3292.97V565.075Z" stroke="white" stroke-width="5" stroke-miterlimit="10"/>
<path d="M3292.97 1106.65H3160.87V1648.23H3292.97V1106.65Z" stroke="white" stroke-width="5" stroke-miterlimit="10"/>
<path d="M3425.07 565.076H3292.97V1106.65H3425.07V565.076Z" stroke="white" stroke-width="5" stroke-miterlimit="10"/>
<path d="M3425.07 1106.65H3292.97V1648.23H3425.07V1106.65Z" stroke="white" stroke-width="5" stroke-miterlimit="10"/>
<path d="M3557.16 565.076H3425.07V1106.65H3557.16V565.076Z" stroke="white" stroke-width="5" stroke-miterlimit="10"/>
<path d="M3557.16 1106.65H3425.07V1648.23H3557.16V1106.65Z" stroke="white" stroke-width="5" stroke-miterlimit="10"/>
<path d="M3689.26 1106.65H3557.16V565.076" stroke="white" stroke-width="5" stroke-miterlimit="10"/>
<path d="M3689.26 1106.65H3557.16V1648.23H3689.26V1106.65Z" stroke="white" stroke-width="5" stroke-miterlimit="10"/>
<path d="M1762.74 1098.16H2066.77C2124.4 1098.16 2177.06 1130.77 2202.74 1182.36L2355.13 1488.44C2391.71 1561.92 2338.27 1648.23 2256.19 1648.23H1575.12C1486.66 1648.23 1427.7 1556.9 1464.13 1476.28L1582.36 1214.6C1614.39 1143.72 1684.96 1098.16 1762.74 1098.16Z" fill="#FF6E00"/>
<path d="M1797.6 1097.01L1625.77 1648.23H2164.65L2058.42 1097.01H2023.9L2034.06 1208.66C2038.77 1259.87 1998.46 1304.06 1947.03 1304.06H1902.81C1847.36 1304.06 1805.93 1253.09 1817.26 1198.81L1838.26 1097.01H1797.6V1097.01Z" fill="white"/>
<path d="M2071.91 1592.87L2106.56 1247.8H2141.27L2164.36 1592.87H2071.91Z" fill="#573240"/>
<path d="M1862.67 1592.87L1920.44 1247.8H2106.56L2071.91 1592.87H1862.67Z" fill="#E38824"/>
<path d="M2119.94 1247.8C2097.9 1247.8 2079.45 1264.49 2077.24 1286.42L2075.47 1304.06H1877.8L1879.56 1286.42C1881.77 1264.49 1900.22 1247.8 1922.27 1247.8H2119.94Z" fill="#E38824" stroke="#573240" stroke-width="5" stroke-miterlimit="10" stroke-linecap="round"/>
<path d="M1945.19 1405.58H1941.03C1928.83 1405.58 1918.95 1415.46 1918.95 1427.65C1918.95 1430.24 1921.05 1432.34 1923.64 1432.34H2021.95" stroke="white" stroke-width="4" stroke-miterlimit="10" stroke-linecap="round"/>
<path d="M1975.99 1392.79H1969.82C1953.65 1392.79 1940.54 1405.9 1940.54 1422.07V1422.29C1940.54 1427.84 1945.03 1432.34 1950.58 1432.34" stroke="white" stroke-width="4" stroke-miterlimit="10" stroke-linecap="round"/>
<path d="M2028.18 1400.85C2024.68 1390.37 2014.79 1382.81 2003.14 1382.81H1997.02C1982.44 1382.81 1970.63 1394.63 1970.63 1409.2V1421.66C1970.63 1427.56 1975.41 1432.34 1981.31 1432.34" stroke="white" stroke-width="4" stroke-miterlimit="10" stroke-linecap="round"/>
<path d="M2005.88 1425.94V1419.78C2005.88 1409.32 2014.35 1400.85 2024.81 1400.85H2026.6C2035.85 1400.85 2044.53 1405.35 2049.85 1412.91L2055.26 1420.59C2058.74 1425.53 2055.21 1432.34 2049.17 1432.34H2012.27C2008.74 1432.34 2005.88 1429.47 2005.88 1425.94Z" stroke="white" stroke-width="4" stroke-miterlimit="10" stroke-linecap="round"/>
<path d="M1937.53 1454.16H2034.64" stroke="white" stroke-width="4" stroke-miterlimit="10" stroke-linecap="round"/>
<path d="M1557.96 1648.23H2109.76C2119.71 1648.23 2129.2 1644.07 2135.95 1636.76L2156.7 1614.24C2162.47 1607.99 2165.31 1599.58 2164.52 1591.11L2161.14 1554.64H2152.96C2145.51 1554.64 2138.94 1559.52 2136.78 1566.66L2132.11 1582.09C2130.18 1588.49 2124.28 1592.87 2117.59 1592.87H2053.34L2062.52 1590.07C2074.82 1586.3 2083.38 1575.16 2083.84 1562.3L1583.45 1438.73C1516.43 1422.19 1451.67 1472.9 1451.67 1541.93C1451.67 1600.64 1499.26 1648.23 1557.96 1648.23Z" fill="#F6ACC1"/>
<path d="M2359.93 1496.7L2205.93 1187.39C2193.03 1161.46 2166.56 1145.07 2137.59 1145.07H2082.4C2051.95 1145.07 2024.71 1164.03 2014.15 1192.59L1994.67 1245.24C1989.71 1258.64 1997.17 1273.44 2010.89 1277.42L2058.28 1291.17C2071.51 1295.01 2085.66 1289.54 2092.88 1277.82L2105.65 1257.07C2109.19 1251.31 2115.47 1247.8 2122.23 1247.8H2141.27L2161.52 1550.41C2165.2 1605.46 2210.93 1648.23 2266.1 1648.23C2343.94 1648.23 2394.62 1566.38 2359.93 1496.7Z" fill="#F6ACC1"/>
<path d="M2040.73 1200.68L2021.25 1253.33C2016.3 1266.73 2023.76 1281.53 2037.48 1285.51" stroke="#573240" stroke-width="5" stroke-miterlimit="10" stroke-linecap="round"/>
<path d="M2063.85 1206.46L2044.37 1259.11C2039.42 1272.51 2046.87 1287.31 2060.6 1291.29" stroke="#573240" stroke-width="5" stroke-miterlimit="10" stroke-linecap="round"/>
<path d="M2090.44 1212.24L2070.96 1264.89C2067.66 1273.8 2069.86 1283.33 2075.73 1289.88" stroke="#573240" stroke-width="5" stroke-miterlimit="10" stroke-linecap="round"/>
<path d="M2155.46 1230.01C2155.46 1241.75 2145.94 1251.27 2134.2 1251.27H2120.82" stroke="#573240" stroke-width="5" stroke-miterlimit="10" stroke-linecap="round"/>
<path d="M2065.96 1079.05C2044.74 1051.43 2049.11 953.673 2046.13 949.012C2040.73 940.574 1974.79 906.734 1951.78 906.885C1938.6 906.971 1867.02 945.943 1867.02 991.586C1867.02 1022.27 1890.42 1062.54 1948.72 1076.73C2007.02 1090.93 2065.96 1079.05 2065.96 1079.05Z" fill="#573240"/>
<path d="M2010.71 1098.16V1023.29L1926.8 1016.43L1872.01 1098.16C1872.01 1098.16 1872.52 1150.12 1943.09 1150.12C2013.67 1150.12 2010.71 1098.16 2010.71 1098.16Z" fill="#F6ACC1"/>
<path d="M2030.23 999.261C2028.55 1017.15 2022.98 1035.42 2018.63 1047.56C2015.71 1055.7 2007.08 1060.27 1998.7 1058.14L1965.88 1049.78C1950.94 1045.98 1940.02 1033.53 1937.91 1018.62L1919.41 1015.92C1906.3 1014.01 1897.22 1001.83 1899.13 988.727L1899.82 983.948C1901.73 970.84 1913.91 961.755 1927.03 963.667L1935.19 964.853C1939.23 965.442 1942.76 967.332 1945.42 970.042C1951.78 952.355 1962.95 934.815 1982.09 935.971C1984.97 936.149 1987.68 936.422 1990.24 936.79C1991.28 945.171 1994.87 958.625 2006.84 967.227C2016.9 974.464 2025.32 975.283 2030.32 974.842C2031.3 982.561 2031.01 990.879 2030.23 999.261Z" fill="#F6ACC1"/>
<path d="M1922.38 975.84C1930.71 977.054 1936.48 984.792 1935.27 993.124" stroke="#573240" stroke-width="5" stroke-miterlimit="10" stroke-linecap="round"/>
<path d="M1959.85 973.104C1965.48 964.015 1978.15 961.671 1988.16 967.867" stroke="#573240" stroke-width="5" stroke-miterlimit="10" stroke-linecap="round"/>
<path d="M2030.44 974.151C2014.2 972.26 2000.12 979.74 1997.52 1009.47" stroke="#573240" stroke-width="4" stroke-miterlimit="10" stroke-linecap="round"/>
<path d="M2022.1 995.549C2022.61 992.056 2021.27 988.968 2019.1 988.652C2016.93 988.336 2014.76 990.913 2014.25 994.406C2013.75 997.9 2015.09 1000.99 2017.26 1001.3C2019.42 1001.62 2021.59 999.043 2022.1 995.549Z" fill="#573240"/>
<path d="M1980.91 987.401C1981.42 983.904 1980.08 980.814 1977.91 980.498C1975.74 980.182 1973.57 982.76 1973.06 986.257C1972.55 989.754 1973.89 992.844 1976.06 993.16C1978.23 993.476 1980.4 990.898 1980.91 987.401Z" fill="#573240"/>
<path d="M1938.68 1015.63C1938.68 1032.83 1950.35 1047.85 1967.03 1052.09L2001.01 1060.45C2009.39 1062.58 2018.02 1058.01 2020.94 1049.87" stroke="#573240" stroke-width="5" stroke-miterlimit="10" stroke-linecap="round"/>
<path d="M1980.64 1013.09C1981.54 1020.72 1988.43 1025.18 1996.05 1024.29" stroke="#573240" stroke-width="4" stroke-miterlimit="10" stroke-linecap="round"/>
<path d="M3814.38 1648.23H3693.05C3663.19 1648.23 3642.89 1617.93 3654.23 1590.32L3703.26 1471.03H3804.17L3853.19 1590.32C3864.54 1617.93 3844.24 1648.23 3814.38 1648.23Z" fill="#FF6E00"/>
<path d="M3753.71 1522.12C3782.44 1522.12 3805.73 1503.69 3805.73 1480.95C3805.73 1458.21 3782.44 1439.78 3753.71 1439.78C3724.98 1439.78 3701.69 1458.21 3701.69 1480.95C3701.69 1503.69 3724.98 1522.12 3753.71 1522.12Z" fill="#573240"/>
<path d="M3769.24 1500.24V1105.12" stroke="#E38824" stroke-width="4" stroke-miterlimit="10" stroke-linecap="round"/>
<path d="M3815.46 1004.45C3815.46 1040.34 3769.24 1116.83 3769.24 1116.83C3769.24 1116.83 3723.03 1040.34 3723.03 1004.45C3723.03 968.568 3743.72 939.477 3769.24 939.477C3794.77 939.477 3815.46 968.568 3815.46 1004.45Z" fill="#E38824"/>
<path d="M3704.07 1152.17C3716.42 1172.38 3716.71 1231.37 3716.71 1231.37C3716.71 1231.37 3664.36 1204.19 3652.01 1183.98C3639.66 1163.77 3641.31 1140.27 3655.68 1131.48C3670.06 1122.7 3691.73 1131.96 3704.07 1152.17Z" fill="#E38824"/>
<path d="M3716.39 1254.12C3733.58 1263.22 3755.95 1309.58 3755.95 1309.58C3755.95 1309.58 3705.04 1317.14 3687.85 1308.04C3670.66 1298.94 3663.11 1279.49 3670.99 1264.6C3678.88 1249.71 3699.2 1245.02 3716.39 1254.12Z" fill="#E38824"/>
<path d="M3844.29 1309.12C3835.68 1329.43 3796.04 1363.7 3796.04 1363.7C3796.04 1363.7 3793.13 1311.38 3801.74 1291.07C3810.36 1270.76 3826.87 1258.34 3838.61 1263.32C3850.36 1268.31 3852.91 1288.81 3844.29 1309.12Z" fill="#E38824"/>
<path d="M3728.91 1377.61C3738.86 1398.04 3733.28 1454.63 3733.28 1454.63C3733.28 1454.63 3685.28 1424.14 3675.33 1403.71C3665.38 1383.28 3669.31 1360.88 3684.1 1353.67C3698.9 1346.46 3718.96 1357.18 3728.91 1377.61Z" fill="#E38824"/>
<path d="M3923.01 1356.16C3909.77 1368.35 3865.89 1377.31 3865.89 1377.31C3865.89 1377.31 3878.47 1334.33 3891.72 1322.15C3904.96 1309.97 3922.7 1307.7 3931.34 1317.09C3939.99 1326.49 3936.25 1343.98 3923.01 1356.16Z" fill="#E38824"/>
<path d="M3832.28 1464.73C3824.54 1473.54 3796.72 1482.39 3796.72 1482.39C3796.72 1482.39 3801.9 1453.66 3809.64 1444.84C3817.38 1436.03 3828.73 1433.33 3834.98 1438.82C3841.23 1444.31 3840.03 1455.91 3832.28 1464.73Z" fill="#E38824"/>
<path d="M3865.34 1175.58C3844.24 1198.33 3769.94 1219.64 3769.94 1219.64C3769.94 1219.64 3785.63 1143.96 3806.73 1121.21C3827.84 1098.45 3858.07 1092.18 3874.26 1107.19C3890.44 1122.2 3886.45 1152.82 3865.34 1175.58Z" fill="#E38824"/>
<path d="M3798.32 1480.59V1357.5" stroke="#E38824" stroke-width="4" stroke-miterlimit="10" stroke-linecap="round"/>
<path d="M3798.32 1464.17C3798.32 1440.52 3809.61 1418.29 3828.71 1404.33L3885.01 1363.2" stroke="#E38824" stroke-width="4" stroke-miterlimit="10" stroke-linecap="round"/>
<path d="M3769.24 1367.3C3769.24 1345.7 3764.11 1324.4 3754.27 1305.18L3714.33 1227.14" stroke="#E38824" stroke-width="4" stroke-miterlimit="10" stroke-linecap="round"/>
<path d="M3712.38 1434.82L3725.94 1444.48C3734.89 1450.85 3740.21 1461.16 3740.21 1472.15V1500.95" stroke="#E38824" stroke-width="4" stroke-miterlimit="10" stroke-linecap="round"/>
<path d="M3838.24 1083.72C3844.4 1083.72 3849.4 1078.72 3849.4 1072.56C3849.4 1066.39 3844.4 1061.39 3838.24 1061.39C3832.07 1061.39 3827.07 1066.39 3827.07 1072.56C3827.07 1078.72 3832.07 1083.72 3838.24 1083.72Z" stroke="#573240" stroke-width="4" stroke-miterlimit="10" stroke-linecap="round"/>
<path d="M3851.67 1298.19C3858.38 1298.19 3863.81 1292.76 3863.81 1286.06C3863.81 1279.35 3858.38 1273.92 3851.67 1273.92C3844.97 1273.92 3839.53 1279.35 3839.53 1286.06C3839.53 1292.76 3844.97 1298.19 3851.67 1298.19Z" stroke="#573240" stroke-width="4" stroke-miterlimit="10" stroke-linecap="round"/>
<path d="M3685.56 1465.8C3691.72 1465.8 3696.72 1460.8 3696.72 1454.63C3696.72 1448.47 3691.72 1443.47 3685.56 1443.47C3679.39 1443.47 3674.4 1448.47 3674.4 1454.63C3674.4 1460.8 3679.39 1465.8 3685.56 1465.8Z" stroke="#573240" stroke-width="4" stroke-miterlimit="10" stroke-linecap="round"/>
<path d="M3711.86 1181.32C3718.88 1181.32 3724.58 1175.63 3724.58 1168.6C3724.58 1161.58 3718.88 1155.89 3711.86 1155.89C3704.84 1155.89 3699.15 1161.58 3699.15 1168.6C3699.15 1175.63 3704.84 1181.32 3711.86 1181.32Z" stroke="#573240" stroke-width="4" stroke-miterlimit="10" stroke-linecap="round"/>
<path d="M3817.85 1381.87C3822.64 1381.87 3826.52 1377.99 3826.52 1373.2C3826.52 1368.41 3822.64 1364.53 3817.85 1364.53C3813.06 1364.53 3809.18 1368.41 3809.18 1373.2C3809.18 1377.99 3813.06 1381.87 3817.85 1381.87Z" stroke="#573240" stroke-width="4" stroke-miterlimit="10" stroke-linecap="round"/>
<path d="M3751.4 955.227C3757.57 955.227 3762.56 950.23 3762.56 944.065C3762.56 937.9 3757.57 932.902 3751.4 932.902C3745.24 932.902 3740.24 937.9 3740.24 944.065C3740.24 950.23 3745.24 955.227 3751.4 955.227Z" stroke="#573240" stroke-width="4" stroke-miterlimit="10" stroke-linecap="round"/>
<path d="M3561.53 3151.76H642.965C574.467 3151.76 518.938 3096.23 518.938 3027.74V1742.9H3685.56V3027.73C3685.56 3096.23 3630.03 3151.76 3561.53 3151.76Z" fill="#E38824"/>
<path d="M518.938 1827.14V1742.9H3685.56V1743.66L518.938 1827.14Z" fill="#573240"/>
<path d="M3894.21 1648.23H285.831V1742.9H3894.21V1648.23Z" fill="white" stroke="#573240" stroke-width="5" stroke-miterlimit="10" stroke-linecap="round"/>
<path d="M3515.09 203H2975.04V1000.79H3515.09V203Z" fill="white" stroke="#573240" stroke-width="5" stroke-miterlimit="10" stroke-linecap="round"/>
<path d="M3182.93 339.637H3175.73C3154.64 339.637 3137.55 356.73 3137.55 377.817C3137.55 382.292 3141.18 385.92 3145.65 385.92H3315.71" stroke="#E38824" stroke-width="5" stroke-miterlimit="10" stroke-linecap="round"/>
<path d="M3236.21 317.514H3225.53C3197.56 317.514 3174.88 340.19 3174.88 368.164V368.543C3174.88 378.14 3182.66 385.92 3192.26 385.92" stroke="#E38824" stroke-width="5" stroke-miterlimit="10" stroke-linecap="round"/>
<path d="M3326.48 331.454C3320.43 313.327 3303.32 300.26 3283.17 300.26H3272.58C3247.37 300.26 3226.93 320.698 3226.93 345.909V367.45C3226.93 377.65 3235.2 385.919 3245.4 385.919" stroke="#E38824" stroke-width="5" stroke-miterlimit="10" stroke-linecap="round"/>
<path d="M3287.9 374.864V364.2C3287.9 346.115 3302.56 331.455 3320.65 331.455H3323.75C3339.75 331.455 3354.75 339.24 3363.97 352.325L3373.33 365.611C3379.34 374.15 3373.23 385.921 3362.79 385.921H3298.96C3292.85 385.919 3287.9 380.97 3287.9 374.864Z" stroke="#E38824" stroke-width="5" stroke-miterlimit="10" stroke-linecap="round"/>
<path d="M3058.34 479.318H3282.34" stroke="#573240" stroke-width="5" stroke-miterlimit="10" stroke-linecap="round"/>
<path d="M3058.34 538.043H3282.34" stroke="#573240" stroke-width="5" stroke-miterlimit="10" stroke-linecap="round"/>
<path d="M3058.34 596.768H3212.98" stroke="#573240" stroke-width="5" stroke-miterlimit="10" stroke-linecap="round"/>
<path d="M3058.34 714.216H3166.74" stroke="#573240" stroke-width="5" stroke-miterlimit="10" stroke-linecap="round"/>
<path d="M3058.34 772.94H3166.74" stroke="#573240" stroke-width="5" stroke-miterlimit="10" stroke-linecap="round"/>
<path d="M3058.34 655.492H3340.14" stroke="#573240" stroke-width="5" stroke-miterlimit="10" stroke-linecap="round"/>
<path d="M3416.2 479.318H3456.47" stroke="#E38824" stroke-width="5" stroke-miterlimit="10" stroke-linecap="round"/>
<path d="M3416.2 538.043H3456.47" stroke="#E38824" stroke-width="5" stroke-miterlimit="10" stroke-linecap="round"/>
<path d="M3416.2 596.768H3456.47" stroke="#E38824" stroke-width="5" stroke-miterlimit="10" stroke-linecap="round"/>
<path d="M3416.2 655.492H3456.47" stroke="#E38824" stroke-width="5" stroke-miterlimit="10" stroke-linecap="round"/>
<path d="M3416.2 714.216H3456.47" stroke="#E38824" stroke-width="5" stroke-miterlimit="10" stroke-linecap="round"/>
<path d="M3416.2 772.94H3456.47" stroke="#E38824" stroke-width="5" stroke-miterlimit="10" stroke-linecap="round"/>
<path d="M2912.82 203H2372.77V1000.79H2912.82V203Z" fill="white" stroke="#573240" stroke-width="5" stroke-miterlimit="10" stroke-linecap="round"/>
<path d="M2803.52 479.318H2843.8" stroke="#E38824" stroke-width="5" stroke-miterlimit="10" stroke-linecap="round"/>
<path d="M2803.52 538.043H2843.8" stroke="#E38824" stroke-width="5" stroke-miterlimit="10" stroke-linecap="round"/>
<path d="M2803.52 596.768H2843.8" stroke="#E38824" stroke-width="5" stroke-miterlimit="10" stroke-linecap="round"/>
<path d="M2803.52 655.492H2843.8" stroke="#E38824" stroke-width="5" stroke-miterlimit="10" stroke-linecap="round"/>
<path d="M2803.52 714.216H2843.8" stroke="#E38824" stroke-width="5" stroke-miterlimit="10" stroke-linecap="round"/>
<path d="M2803.52 772.94H2843.8" stroke="#E38824" stroke-width="5" stroke-miterlimit="10" stroke-linecap="round"/>
<path d="M2803.52 831.896H2843.8" stroke="#E38824" stroke-width="5" stroke-miterlimit="10" stroke-linecap="round"/>
<path d="M2710.35 301.366V337.129C2710.35 371.956 2682.11 400.198 2647.28 400.198H2634.58C2599.74 400.198 2571.5 371.956 2571.5 337.129V304.381C2580.24 312.069 2607.43 317.677 2639.64 317.677C2675.92 317.677 2705.84 310.556 2710.19 301.366H2710.35V301.366Z" stroke="#E38824" stroke-width="5" stroke-miterlimit="10" stroke-linecap="round"/>
<path d="M2710.73 299.056C2710.73 299.844 2710.54 300.61 2710.19 301.367C2705.84 310.557 2675.92 317.677 2639.64 317.677C2607.43 317.677 2580.24 312.069 2571.5 304.381C2569.58 302.69 2568.55 300.904 2568.55 299.056C2568.55 288.763 2600.37 280.424 2639.64 280.424C2678.9 280.424 2710.73 288.763 2710.73 299.056Z" fill="#E38824"/>
<path d="M2710.69 301.364H2728.13C2741.89 301.364 2753.05 312.524 2753.05 326.291C2753.05 340.058 2741.89 351.218 2728.13 351.218H2709.33" stroke="#E38824" stroke-width="5" stroke-miterlimit="10" stroke-linecap="round"/>
<path d="M2445.67 479.318H2669.66" stroke="#573240" stroke-width="5" stroke-miterlimit="10" stroke-linecap="round"/>
<path d="M2445.67 538.043H2669.66" stroke="#573240" stroke-width="5" stroke-miterlimit="10" stroke-linecap="round"/>
<path d="M2445.67 655.492H2634.98" stroke="#573240" stroke-width="5" stroke-miterlimit="10" stroke-linecap="round"/>
<path d="M2445.67 714.216H2637.2" stroke="#573240" stroke-width="5" stroke-miterlimit="10" stroke-linecap="round"/>
<path d="M2445.67 772.94H2554.06" stroke="#573240" stroke-width="5" stroke-miterlimit="10" stroke-linecap="round"/>
<path d="M2445.67 831.896H2554.06" stroke="#573240" stroke-width="5" stroke-miterlimit="10" stroke-linecap="round"/>
<path d="M2445.67 596.768H2727.46" stroke="#573240" stroke-width="5" stroke-miterlimit="10" stroke-linecap="round"/>
<path d="M1886.67 2113.1H1337.46V2108.99C1337.46 2086.45 1355.74 2068.17 1378.28 2068.17H1845.85C1868.39 2068.17 1886.67 2086.45 1886.67 2108.99V2113.1Z" fill="white"/>
<path d="M1337.46 3282.17V2113.1H1693.02V3282.17" stroke="#573240" stroke-width="5" stroke-miterlimit="10" stroke-linecap="round"/>
<path d="M1693.02 3282.17V2113.1H1886.67V3282.17" stroke="#573240" stroke-width="5" stroke-miterlimit="10" stroke-linecap="round"/>
<path d="M1436.72 1832.28C1338.53 1832.28 1279.93 1907.33 1305.84 1999.9L1337.51 2113.1H1693.07L1661.4 1999.9C1635.49 1907.33 1534.9 1832.28 1436.72 1832.28Z" stroke="#573240" stroke-width="5" stroke-miterlimit="10" stroke-linecap="round"/>
<path d="M1484.14 2113.1L1436.21 1833.44" stroke="#573240" stroke-width="5" stroke-miterlimit="10" stroke-linecap="round"/>
<path d="M1613.03 1917.46C1541.25 1948.51 1498.46 2027.66 1514.22 2110.85" stroke="#573240" stroke-width="5" stroke-miterlimit="10" stroke-linecap="round"/>
<path d="M1304.58 1921.28C1388.71 1939.48 1452.01 2018.44 1452.01 2113.1" stroke="#573240" stroke-width="5" stroke-miterlimit="10" stroke-linecap="round"/>
<path d="M1337.46 2999.59C1337.46 2976.45 1357.36 2957.68 1381.91 2957.68H1648.58C1673.12 2957.68 1693.02 2976.45 1693.02 2999.59" stroke="#573240" stroke-width="5" stroke-miterlimit="10" stroke-linecap="round"/>
<path d="M1693.03 2999.59C1693.03 2976.45 1712.93 2957.68 1737.48 2957.68H1842.3C1866.85 2957.68 1886.74 2976.45 1886.74 2999.59" stroke="#573240" stroke-width="5" stroke-miterlimit="10" stroke-linecap="round"/>
<path d="M1075.83 3151.76H658.515L866.593 2170.63H867.748L1075.83 3151.76Z" fill="#573240"/>
<path d="M92 3282.17L119.66 3151.74H658.441L630.78 3282.17" stroke="#573240" stroke-width="5" stroke-miterlimit="10" stroke-linecap="round"/>
<path d="M1072.43 3151.74L1100.09 3282.17" stroke="#573240" stroke-width="5" stroke-miterlimit="10" stroke-linecap="round"/>
<path d="M658.52 3151.76H119.743L327.822 2170.63H866.598L658.52 3151.76Z" fill="white" stroke="#573240" stroke-width="5" stroke-miterlimit="10" stroke-linecap="round"/>
<path d="M723.262 2237.31L675.335 2452.54H547.02L594.946 2237.31H723.262Z" fill="#FDE5E3"/>
<path d="M327.811 2472.11L465.89 2403.06" stroke="#573240" stroke-width="5" stroke-miterlimit="10" stroke-linecap="round"/>
<path d="M313.214 2532.39L653.459 2362.27" stroke="#573240" stroke-width="5" stroke-miterlimit="10" stroke-linecap="round"/>
<path d="M685.396 2695.98H306.71L323.48 2620.26H702.165L685.396 2695.98Z" fill="#B2DDDA"/>
<path d="M289.371 2662.45H633.376" stroke="#573240" stroke-width="5" stroke-miterlimit="10" stroke-linecap="round"/>
<path d="M276.655 2720.25H620.659" stroke="#573240" stroke-width="5" stroke-miterlimit="10" stroke-linecap="round"/>
<path d="M484.94 3061.42C551.467 3061.42 605.397 3007.49 605.397 2940.97C605.397 2874.44 551.467 2820.51 484.94 2820.51C418.413 2820.51 364.483 2874.44 364.483 2940.97C364.483 3007.49 418.413 3061.42 484.94 3061.42Z" fill="#E38824"/>
<path d="M462.976 2342.7C493.883 2342.7 518.938 2317.64 518.938 2286.73C518.938 2255.83 493.883 2230.77 462.976 2230.77C432.068 2230.77 407.013 2255.83 407.013 2286.73C407.013 2317.64 432.068 2342.7 462.976 2342.7Z" fill="#F6ACC1"/>
<path d="M233.421 2913.62H455.43" stroke="#573240" stroke-width="5" stroke-miterlimit="10" stroke-linecap="round"/>
<path d="M223.117 2962.17H489.138" stroke="#573240" stroke-width="5" stroke-miterlimit="10" stroke-linecap="round"/>
<path d="M374.999 2333.82C408.365 2290.54 476.973 2260.85 556.192 2260.85C636.574 2260.85 706.033 2291.42 738.833 2335.73" stroke="#573240" stroke-width="5" stroke-miterlimit="10" stroke-linecap="round"/>
<path d="M2566.51 1546.97H2221.31L2336.91 1304.06H2682.11L2566.51 1546.97Z" fill="#A9D8D5"/>
<path d="M2546.86 1546.97H2201.66L2317.26 1304.06H2662.46L2546.86 1546.97Z" stroke="#573240" stroke-width="5" stroke-miterlimit="10" stroke-linecap="round"/>
<path d="M2509.58 1648.23H2412.93L2378.25 1484.84H2474.9L2509.58 1648.23Z" stroke="#573240" stroke-width="5" stroke-miterlimit="10" stroke-linecap="round"/>
<path d="M2600.3 3297.51H3894.21" stroke="#573240" stroke-width="5" stroke-miterlimit="10" stroke-linecap="round"/>
<path d="M3600.72 1307.12L3482.88 1727.24L3502.06 1845.37C3502.06 1845.37 3254.28 1954.16 3060.2 1742.9L3058.34 1388.17L2893.37 1386.25L2925.58 1221.38C2936.5 1166.31 2979.44 1123.18 3034.49 1112.05L3181.55 1082.29C3198.24 1078.92 3211.34 1065.97 3214.9 1049.32L3216.64 1041.2H3364.92L3368.41 1048.31C3376.38 1064.54 3390.5 1076.91 3407.65 1082.65L3497.91 1112.91C3578.44 1139.92 3623.67 1225.33 3600.72 1307.12Z" fill="#573240"/>
<path d="M3492.85 3105.74C3492.85 3105.74 3359.11 3139.49 3259.38 3105.74L3217.67 2223.22L3109.3 2447.33C3255.06 2677.24 3248.92 2976.13 3248.92 2976.13C3212.1 3006.81 3041.8 3065.85 3041.8 3065.85L2843.28 2590.69C2808.59 2507.63 2806.95 2414.46 2838.72 2330.23L3060.2 1742.9C3116.66 1804.36 3177.67 1838.74 3235.8 1856.56C3269.22 1866.84 3301.68 1871.64 3331.77 1872.97C3422.14 1877 3491.23 1849.87 3500.9 1845.86L3502.06 2474.46C3502.06 2474.46 3626.34 2801.96 3492.85 3105.74Z" fill="#A9D8D5"/>
<path d="M3248.91 2976.13C3248.91 2976.13 3255.05 2677.23 3109.3 2447.33L3331.76 1987.29H3377.54" stroke="#573240" stroke-width="5" stroke-miterlimit="10" stroke-linecap="round"/>
<path d="M3304.41 3094.79L3082.77 3297.51H2988.61V3288.41C2988.61 3276.52 2992.54 3264.99 2999.73 3255.52C3019.68 3229.25 3059.18 3168.38 3056.12 3101.64C3056.12 3101.64 3133.52 3081.75 3243.12 3010.13L3304.68 3068.85C3312.12 3075.95 3312 3087.86 3304.41 3094.79Z" fill="#573240"/>
<path d="M3304.68 3071.16L3076.99 3279.02H2982.83" stroke="white" stroke-width="5" stroke-miterlimit="10" stroke-linecap="round"/>
<path d="M3041.8 3065.85L3056.12 3101.64C3056.12 3101.64 3148.35 3075.1 3243.12 3010.13L3242.05 2981.18C3242.05 2981.18 3150.21 3029.03 3041.8 3065.85Z" fill="white"/>
<path d="M3482.12 3151.76L3512.17 3273.83C3515.14 3285.87 3506.02 3297.51 3493.61 3297.51H3174.01C3162.56 3297.51 3157.1 3283.45 3165.54 3275.73L3301.08 3151.76H3482.12Z" fill="#573240"/>
<path d="M3516.73 3276.71H3162.45" stroke="white" stroke-width="5" stroke-miterlimit="10" stroke-linecap="round"/>
<path d="M3492.86 3105.74L3482.12 3151.76C3482.12 3151.76 3357.84 3174.27 3301.08 3151.76V3116.49C3301.08 3116.49 3388.02 3128.75 3492.86 3105.74Z" fill="white"/>
<path d="M2893.37 1386.25L3119.66 1388.89L3058.1 1583.73C3046.62 1620.06 3012.91 1644.76 2974.81 1644.76H2402.09C2397.5 1644.76 2395.64 1638.85 2399.42 1636.24C2437.42 1609.88 2574.01 1526.55 2881.48 1445.32L2893.37 1386.25Z" fill="#E38824"/>
<path d="M3113.2 1400.6L3132.04 1340.99" stroke="#E38824" stroke-width="5" stroke-miterlimit="10" stroke-linecap="round"/>
<path d="M3364.92 1041.2H3216.64L3227.44 988.507H3340.21L3364.92 1041.2Z" fill="#E38824"/>
<path d="M3340.84 939.058C3349.84 941.799 3356.38 951.221 3356.38 961.114V968.865C3356.38 980.989 3346.55 990.816 3334.43 990.816H3303.27C3299.82 1005.27 3286.82 1016.01 3271.32 1016.01H3217.15C3211.81 1016.01 3207.48 1011.68 3207.48 1006.34V969.727L3196.51 967.773C3193.34 967.206 3191.57 963.792 3192.92 960.873L3222.38 897.666C3225.35 898.349 3228.43 898.706 3231.62 898.706C3242.53 898.706 3252.39 894.474 3259.5 887.647H3266.75C3274.06 887.647 3279.98 893.571 3279.98 900.88V928.209C3279.98 940.98 3290.34 951.326 3303.11 951.326C3303.01 944.712 3308.31 939.282 3314.93 939.237L3340.84 939.058Z" fill="#E38824"/>
<path d="M3314.54 967.615C3314.54 958.282 3322.11 950.715 3331.44 950.715" stroke="#573240" stroke-width="5" stroke-miterlimit="10" stroke-linecap="round"/>
<path d="M3222.94 1018.32H3271.32C3287.58 1018.32 3301.08 1006.51 3303.7 990.995H3328.07" stroke="#573240" stroke-width="5" stroke-miterlimit="10" stroke-linecap="round"/>
<path d="M3224.09 914.236L3246.12 916.842" stroke="#573240" stroke-width="5" stroke-miterlimit="10" stroke-linecap="round"/>
<path d="M3233.38 944.066C3235.85 944.066 3237.85 941.148 3237.85 937.549C3237.85 933.95 3235.85 931.032 3233.38 931.032C3230.92 931.032 3228.92 933.95 3228.92 937.549C3228.92 941.148 3230.92 944.066 3233.38 944.066Z" fill="#573240"/>
<path d="M3209.79 981.187C3209.79 981.187 3222.88 982.344 3227.76 974.15" stroke="#573240" stroke-width="5" stroke-miterlimit="10" stroke-linecap="round" stroke-linejoin="round"/>
<path d="M3340.84 939.058C3338.81 938.438 3336.66 939.153 3334.43 939.153H3321.36C3313.18 939.153 3306.19 944.184 3303.29 951.325H3303.11C3290.34 951.325 3279.98 940.98 3279.98 928.209V900.88C3279.98 893.57 3274.06 887.647 3266.75 887.647H3259.5C3252.39 894.473 3242.53 898.706 3231.62 898.706C3209.99 898.706 3192.46 882.08 3192.46 861.558C3192.46 841.045 3209.99 824.419 3231.62 824.419C3251.29 824.419 3267.57 838.168 3270.36 856.086C3316.19 849.857 3323.33 887.647 3323.33 887.647C3323.33 887.647 3348.64 880.736 3354.4 902.214C3358.22 916.508 3349.16 929.637 3340.84 939.058Z" fill="#FCD4D0"/>
<path d="M1148.28 1423.98C1145.57 1429.24 1140.19 1432.5 1134.29 1432.5H906.151V1421.51C906.151 1398.86 924.577 1380.43 947.223 1380.43H953.696C963.441 1367.04 979.232 1358.31 997.023 1358.31H1007C1015.9 1347.77 1029.22 1341.05 1044.08 1341.05H1054.66C1074.96 1341.05 1092.99 1353.62 1100.09 1372.48C1115.16 1373.89 1129.01 1381.84 1137.82 1394.35L1147.19 1407.63C1150.58 1412.47 1151.01 1418.73 1148.28 1423.98Z" fill="#E38824"/>
<path d="M954.426 1383.32H947.224C926.138 1383.32 909.044 1400.42 909.044 1421.5V1429.61H1070.45" stroke="#573240" stroke-width="5" stroke-miterlimit="10" stroke-linecap="round"/>
<path d="M946.376 1429.61V1411.85C946.376 1383.88 969.053 1361.2 997.026 1361.2H1007.7" stroke="#573240" stroke-width="5" stroke-miterlimit="10" stroke-linecap="round"/>
<path d="M998.427 1429.61V1389.59C998.427 1364.38 1018.87 1343.95 1044.08 1343.95H1054.66C1074.82 1343.95 1091.93 1357.01 1097.97 1375.14" stroke="#573240" stroke-width="5" stroke-miterlimit="10" stroke-linecap="round"/>
<path d="M1059.4 1418.55V1407.89C1059.4 1389.8 1074.06 1375.14 1092.14 1375.14H1095.24C1111.24 1375.14 1126.25 1382.93 1135.46 1396.01L1144.82 1409.3C1150.83 1417.84 1144.73 1429.61 1134.28 1429.61H1070.45C1064.35 1429.61 1059.4 1424.66 1059.4 1418.55Z" stroke="#573240" stroke-width="5" stroke-miterlimit="10" stroke-linecap="round"/>
<path d="M855.819 1423.98C853.102 1429.24 847.728 1432.5 841.82 1432.5H613.685V1421.51C613.685 1398.86 632.112 1380.43 654.758 1380.43H661.23C670.975 1367.04 686.766 1358.31 704.557 1358.31H714.534C723.435 1347.77 736.751 1341.05 751.617 1341.05H762.194C782.493 1341.05 800.527 1353.62 807.625 1372.48C822.699 1373.89 836.547 1381.84 845.356 1394.35L854.719 1407.63C858.119 1412.47 858.547 1418.73 855.819 1423.98Z" fill="#E38824"/>
<path d="M661.96 1383.32H654.759C633.672 1383.32 616.579 1400.42 616.579 1421.5V1429.61H777.987" stroke="#573240" stroke-width="5" stroke-miterlimit="10" stroke-linecap="round"/>
<path d="M653.911 1429.61V1411.85C653.911 1383.88 676.588 1361.2 704.561 1361.2H715.237" stroke="#573240" stroke-width="5" stroke-miterlimit="10" stroke-linecap="round"/>
<path d="M705.962 1429.61V1389.59C705.962 1364.38 726.401 1343.95 751.612 1343.95H762.194C782.353 1343.95 799.461 1357.01 805.507 1375.14" stroke="#573240" stroke-width="5" stroke-miterlimit="10" stroke-linecap="round"/>
<path d="M766.932 1418.55V1407.89C766.932 1389.8 781.592 1375.14 799.676 1375.14H802.775C818.779 1375.14 833.782 1382.93 842.997 1396.01L852.353 1409.3C858.366 1417.84 852.26 1429.61 841.816 1429.61H777.987C771.882 1429.61 766.932 1424.66 766.932 1418.55Z" stroke="#573240" stroke-width="5" stroke-miterlimit="10" stroke-linecap="round"/>
<path d="M1121.68 1550.44C1137.36 1550.44 1150.07 1537.73 1150.07 1522.06C1150.07 1506.38 1137.36 1493.67 1121.68 1493.67C1106.01 1493.67 1093.3 1506.38 1093.3 1522.06C1093.3 1537.73 1106.01 1550.44 1121.68 1550.44Z" fill="#A9D8D5"/>
<path d="M1163.03 1509.16C1178.7 1509.16 1191.41 1496.45 1191.41 1480.77C1191.41 1465.1 1178.7 1452.39 1163.03 1452.39C1147.35 1452.39 1134.64 1465.1 1134.64 1480.77C1134.64 1496.45 1147.35 1509.16 1163.03 1509.16Z" fill="#F6ACC1"/>
<path d="M1174.71 1599.56C1175.34 1599.42 1175.97 1599.28 1176.6 1599.12C1180.02 1598.25 1183.35 1596.83 1186.5 1595.26C1192.69 1592.16 1198.34 1588.01 1203.18 1583.05C1213.13 1572.86 1219.43 1559.4 1221.02 1545.24C1221.3 1542.79 1221.44 1540.32 1221.44 1537.85C1221.44 1537.85 1097.41 1537.85 1097.41 1537.85C1097.07 1537.85 1098.15 1547.77 1098.3 1548.67C1098.89 1552.21 1099.77 1555.71 1100.94 1559.11C1103.21 1565.72 1106.56 1571.96 1110.84 1577.5C1115 1582.89 1120.03 1587.61 1125.69 1591.39C1129.19 1593.73 1132.85 1595.87 1136.74 1597.48C1140.46 1599.02 1144.27 1599.19 1148.05 1600.33C1154.45 1602.27 1158.94 1608.34 1158.94 1615.02V1622.93C1158.94 1636.9 1147.98 1648.23 1134.47 1648.23H1184.37C1170.86 1648.23 1159.9 1636.9 1159.9 1622.93C1159.9 1622.93 1159.9 1615.02 1159.9 1615.02C1159.9 1610.43 1162.01 1606 1165.57 1603.11C1168.22 1600.96 1171.48 1600.29 1174.71 1599.56Z" stroke="#573240" stroke-width="5" stroke-miterlimit="10" stroke-linecap="round"/>
<path d="M1146.37 1536.69L1225 1452.39" stroke="#573240" stroke-width="5" stroke-miterlimit="10" stroke-linecap="round"/>
<path d="M1192.99 1559.63C1210.71 1559.63 1225.08 1545.27 1225.08 1527.55C1225.08 1509.83 1210.71 1495.47 1192.99 1495.47C1175.28 1495.47 1160.91 1509.83 1160.91 1527.55C1160.91 1545.27 1175.28 1559.63 1192.99 1559.63Z" fill="#FF6E00"/>
<path d="M937.88 1553.88C954.504 1553.88 967.981 1540.4 967.981 1523.78C967.981 1507.15 954.504 1493.67 937.88 1493.67C921.255 1493.67 907.779 1507.15 907.779 1523.78C907.779 1540.4 921.255 1553.88 937.88 1553.88Z" fill="#E38824"/>
<path d="M976.912 1509.16C992.587 1509.16 1005.29 1496.45 1005.29 1480.77C1005.29 1465.1 992.587 1452.39 976.912 1452.39C961.236 1452.39 948.529 1465.1 948.529 1480.77C948.529 1496.45 961.236 1509.16 976.912 1509.16Z" fill="#A9D8D5"/>
<path d="M960.254 1536.69L1038.88 1452.39" stroke="#FF6E00" stroke-width="5" stroke-miterlimit="10" stroke-linecap="round"/>
<path d="M1006.88 1559.63C1024.6 1559.63 1038.96 1545.27 1038.96 1527.55C1038.96 1509.83 1024.6 1495.47 1006.88 1495.47C989.163 1495.47 974.8 1509.83 974.8 1527.55C974.8 1545.27 989.163 1559.63 1006.88 1559.63Z" fill="#573240"/>
<path d="M987.433 1599.56C988.065 1599.42 988.695 1599.28 989.32 1599.12C992.739 1598.25 996.07 1596.83 999.221 1595.26C1005.41 1592.16 1011.07 1588.01 1015.9 1583.05C1025.86 1572.86 1032.16 1559.4 1033.75 1545.24C1034.02 1542.79 1034.16 1540.32 1034.16 1537.85C1034.16 1537.85 910.139 1537.85 910.134 1537.85C909.799 1537.85 910.873 1547.77 911.022 1548.67C911.612 1552.21 912.494 1555.71 913.661 1559.11C915.932 1565.72 919.287 1571.96 923.562 1577.5C927.725 1582.89 932.754 1587.61 938.419 1591.39C941.913 1593.73 945.573 1595.87 949.462 1597.48C953.184 1599.02 956.996 1599.19 960.769 1600.33C967.17 1602.27 971.666 1608.34 971.666 1615.02V1622.93C971.666 1636.9 960.707 1648.23 947.193 1648.23H997.097C983.584 1648.23 972.625 1636.9 972.625 1622.93C972.625 1622.93 972.625 1615.02 972.625 1615.02C972.625 1610.43 974.733 1606 978.291 1603.11C980.94 1600.96 984.202 1600.29 987.433 1599.56Z" stroke="#573240" stroke-width="5" stroke-miterlimit="10" stroke-linecap="round"/>
<path d="M751.765 1553.88C769.348 1553.88 783.601 1539.62 783.601 1522.04C783.601 1504.46 769.348 1490.21 751.765 1490.21C734.183 1490.21 719.93 1504.46 719.93 1522.04C719.93 1539.62 734.183 1553.88 751.765 1553.88Z" fill="#A9D8D5"/>
<path d="M790.798 1509.16C806.473 1509.16 819.18 1496.45 819.18 1480.77C819.18 1465.1 806.473 1452.39 790.798 1452.39C775.122 1452.39 762.415 1465.1 762.415 1480.77C762.415 1496.45 775.122 1509.16 790.798 1509.16Z" fill="#573240"/>
<path d="M774.14 1536.69L852.768 1452.39" stroke="#E38824" stroke-width="5" stroke-miterlimit="10" stroke-linecap="round"/>
<path d="M802.549 1599.56C803.181 1599.42 803.811 1599.28 804.436 1599.12C807.855 1598.25 811.186 1596.83 814.337 1595.26C820.531 1592.16 826.183 1588.01 831.019 1583.05C840.975 1572.86 847.275 1559.4 848.863 1545.24C849.138 1542.79 849.276 1540.32 849.276 1537.85C849.276 1537.85 725.255 1537.85 725.25 1537.85C724.915 1537.85 725.989 1547.77 726.138 1548.67C726.728 1552.21 727.61 1555.71 728.777 1559.11C731.049 1565.72 734.403 1571.96 738.678 1577.5C742.84 1582.89 747.87 1587.61 753.535 1591.39C757.03 1593.73 760.689 1595.87 764.578 1597.48C768.3 1599.02 772.113 1599.19 775.886 1600.33C782.287 1602.27 786.783 1608.34 786.783 1615.02V1622.93C786.783 1636.9 775.824 1648.23 762.31 1648.23H812.215C798.702 1648.23 787.742 1636.9 787.742 1622.93C787.742 1622.93 787.742 1615.02 787.742 1615.02C787.742 1610.43 789.85 1606 793.408 1603.11C796.056 1600.96 799.318 1600.29 802.549 1599.56Z" stroke="#573240" stroke-width="5" stroke-miterlimit="10" stroke-linecap="round"/>
<path d="M820.726 1559.55C838.422 1559.55 852.767 1545.21 852.767 1527.51C852.767 1509.81 838.422 1495.47 820.726 1495.47C803.03 1495.47 788.685 1509.81 788.685 1527.51C788.685 1545.21 803.03 1559.55 820.726 1559.55Z" fill="#F6ACC1"/>
<path d="M484.491 1576.56L468.485 1648.23H405.614L390.259 1579.48C393.673 1581.11 398.031 1582.1 403.535 1582.1C410.834 1582.1 419.583 1580.6 423.396 1574.82C422.944 1585.7 429.309 1599.48 444.601 1599.44C455.671 1599.4 462.067 1588.78 463.695 1581.29C463.695 1581.29 475.511 1582.18 484.491 1576.56Z" fill="#E38824"/>
<path d="M403.537 1582.1C410.832 1582.1 419.583 1580.61 423.397 1574.81C422.943 1585.7 429.305 1599.48 444.598 1599.44C455.675 1599.4 462.066 1588.78 463.696 1581.29C463.696 1581.29 492.509 1583.47 494.364 1559.61C496.075 1537.62 465.915 1520.25 436.518 1520.25C407.133 1520.25 378.673 1537.87 378.673 1559.61C378.673 1568.76 383.31 1582.1 403.537 1582.1Z" fill="#A9D8D5"/>
<path d="M402.154 1563.05C404.881 1563.05 407.091 1560.84 407.091 1558.11C407.091 1555.38 404.881 1553.17 402.154 1553.17C399.427 1553.17 397.216 1555.38 397.216 1558.11C397.216 1560.84 399.427 1563.05 402.154 1563.05Z" fill="#573240"/>
<path d="M414.305 1543.25C417.032 1543.25 419.243 1541.04 419.243 1538.31C419.243 1535.58 417.032 1533.37 414.305 1533.37C411.578 1533.37 409.368 1535.58 409.368 1538.31C409.368 1541.04 411.578 1543.25 414.305 1543.25Z" fill="#573240"/>
<path d="M429.305 1551.63C432.032 1551.63 434.242 1549.42 434.242 1546.7C434.242 1543.97 432.032 1541.76 429.305 1541.76C426.578 1541.76 424.368 1543.97 424.368 1546.7C424.368 1549.42 426.578 1551.63 429.305 1551.63Z" fill="#573240"/>
<path d="M448.393 1578.07C451.12 1578.07 453.331 1575.86 453.331 1573.14C453.331 1570.41 451.12 1568.2 448.393 1568.2C445.667 1568.2 443.456 1570.41 443.456 1573.14C443.456 1575.86 445.667 1578.07 448.393 1578.07Z" fill="#573240"/>
<path d="M462.266 1561.89C464.992 1561.89 467.203 1559.68 467.203 1556.95C467.203 1554.23 464.992 1552.02 462.266 1552.02C459.539 1552.02 457.328 1554.23 457.328 1556.95C457.328 1559.68 459.539 1561.89 462.266 1561.89Z" fill="#573240"/>
<path d="M476.137 1537.62C478.863 1537.62 481.074 1535.41 481.074 1532.68C481.074 1529.95 478.863 1527.74 476.137 1527.74C473.41 1527.74 471.199 1529.95 471.199 1532.68C471.199 1535.41 473.41 1537.62 476.137 1537.62Z" fill="#573240"/>
<path d="M450.704 1539.93C453.431 1539.93 455.642 1537.72 455.642 1534.99C455.642 1532.26 453.431 1530.05 450.704 1530.05C447.978 1530.05 445.767 1532.26 445.767 1534.99C445.767 1537.72 447.978 1539.93 450.704 1539.93Z" fill="#573240"/>
<path d="M503.049 1353.73L485.877 1428.45H423.007L408.408 1364.93C412.147 1367.55 417.01 1369.26 423.238 1369.26C430.527 1369.26 436.975 1365.45 440.788 1359.66C443.151 1369.16 451.753 1376.19 461.983 1376.19C470.206 1376.19 483.514 1368.3 481.087 1353.42C481.087 1353.42 494.573 1359.35 503.049 1353.73Z" fill="#573240"/>
<path d="M423.238 1369.25C430.532 1369.25 436.971 1365.45 440.786 1359.66C443.155 1369.16 451.756 1376.19 461.987 1376.19C470.206 1376.19 483.515 1368.3 481.084 1353.41C481.084 1353.41 506.181 1364.46 509.441 1342.14C512.171 1323.45 490.897 1302.78 453.907 1302.78C424.522 1302.78 397.217 1320.4 397.217 1342.14C397.217 1351.29 403.01 1369.25 423.238 1369.25Z" fill="#FF6E00"/>
<path d="M497.439 1379.76C501.908 1379.76 505.532 1376.14 505.532 1371.67C505.532 1367.2 501.908 1363.58 497.439 1363.58C492.97 1363.58 489.347 1367.2 489.347 1371.67C489.347 1376.14 492.97 1379.76 497.439 1379.76Z" fill="#FF6E00"/>
<path d="M419.733 1333.32C422.46 1333.32 424.67 1331.1 424.67 1328.38C424.67 1325.65 422.46 1323.44 419.733 1323.44C417.006 1323.44 414.795 1325.65 414.795 1328.38C414.795 1331.1 417.006 1333.32 419.733 1333.32Z" fill="#E38824"/>
<path d="M433.31 1348.13C436.037 1348.13 438.247 1345.92 438.247 1343.19C438.247 1340.46 436.037 1338.25 433.31 1338.25C430.583 1338.25 428.373 1340.46 428.373 1343.19C428.373 1345.92 430.583 1348.13 433.31 1348.13Z" fill="#E38824"/>
<path d="M446.886 1320.97C449.612 1320.97 451.823 1318.76 451.823 1316.03C451.823 1313.31 449.612 1311.1 446.886 1311.1C444.159 1311.1 441.948 1313.31 441.948 1316.03C441.948 1318.76 444.159 1320.97 446.886 1320.97Z" fill="#E38824"/>
<path d="M459.229 1359.23C461.956 1359.23 464.166 1357.02 464.166 1354.3C464.166 1351.57 461.956 1349.36 459.229 1349.36C456.502 1349.36 454.292 1351.57 454.292 1354.3C454.292 1357.02 456.502 1359.23 459.229 1359.23Z" fill="#E38824"/>
<path d="M471.572 1333.32C474.299 1333.32 476.509 1331.1 476.509 1328.38C476.509 1325.65 474.299 1323.44 471.572 1323.44C468.845 1323.44 466.634 1325.65 466.634 1328.38C466.634 1331.1 468.845 1333.32 471.572 1333.32Z" fill="#E38824"/>
<path d="M484.411 1314.36C487.137 1314.36 489.348 1312.15 489.348 1309.43C489.348 1306.7 487.137 1304.49 484.411 1304.49C481.684 1304.49 479.473 1306.7 479.473 1309.43C479.473 1312.15 481.684 1314.36 484.411 1314.36Z" fill="#E38824"/>
<path d="M497.491 1345.66C500.218 1345.66 502.429 1343.45 502.429 1340.72C502.429 1337.99 500.218 1335.78 497.491 1335.78C494.764 1335.78 492.554 1337.99 492.554 1340.72C492.554 1343.45 494.764 1345.66 497.491 1345.66Z" fill="#E38824"/>
<path d="M651.201 1577.95L635.5 1648.23H572.63L557.978 1582.66C561.602 1585.3 566.454 1587.03 572.861 1587.03C580.16 1587.03 586.598 1583.4 590.411 1577.86C592.785 1586.94 601.386 1593.66 611.616 1593.66C619.829 1593.66 626.982 1589.33 630.71 1582.94C630.71 1582.94 643.156 1584.75 651.201 1577.95Z" fill="#573240"/>
<path d="M572.865 1587.03C580.159 1587.03 586.599 1583.39 590.413 1577.86C592.783 1586.94 601.383 1593.66 611.614 1593.66C619.834 1593.66 626.978 1589.34 630.712 1582.94C630.712 1582.94 657.912 1586.91 657.912 1561.12C657.912 1539.07 632.931 1523.5 603.534 1523.5C574.149 1523.5 548 1540.34 548 1561.12C548 1569.86 552.638 1587.03 572.865 1587.03Z" fill="#F6ACC1"/>
<path d="M568.835 1570.48C571.622 1570.48 573.881 1568.22 573.881 1565.44C573.881 1562.65 571.622 1560.39 568.835 1560.39C566.048 1560.39 563.79 1562.65 563.79 1565.44C563.79 1568.22 566.048 1570.48 568.835 1570.48Z" fill="white"/>
<path d="M584.987 1546.59C587.773 1546.59 590.032 1544.33 590.032 1541.54C590.032 1538.76 587.773 1536.5 584.987 1536.5C582.2 1536.5 579.941 1538.76 579.941 1541.54C579.941 1544.33 582.2 1546.59 584.987 1546.59Z" fill="white"/>
<path d="M596.851 1562C599.638 1562 601.897 1559.74 601.897 1556.95C601.897 1554.17 599.638 1551.91 596.851 1551.91C594.065 1551.91 591.806 1554.17 591.806 1556.95C591.806 1559.74 594.065 1562 596.851 1562Z" fill="white"/>
<path d="M621.841 1551.74C624.628 1551.74 626.887 1549.48 626.887 1546.7C626.887 1543.91 624.628 1541.65 621.841 1541.65C619.055 1541.65 616.796 1543.91 616.796 1546.7C616.796 1549.48 619.055 1551.74 621.841 1551.74Z" fill="white"/>
<path d="M601.897 1528.55C604.684 1528.55 606.943 1526.29 606.943 1523.5C606.943 1520.72 604.684 1518.46 601.897 1518.46C599.11 1518.46 596.852 1520.72 596.852 1523.5C596.852 1526.29 599.11 1528.55 601.897 1528.55Z" fill="white"/>
<path d="M645.989 1545.08C648.776 1545.08 651.035 1542.82 651.035 1540.04C651.035 1537.25 648.776 1534.99 645.989 1534.99C643.202 1534.99 640.943 1537.25 640.943 1540.04C640.943 1542.82 643.202 1545.08 645.989 1545.08Z" fill="white"/>
<path d="M631.933 1576.74C634.72 1576.74 636.979 1574.48 636.979 1571.7C636.979 1568.91 634.72 1566.65 631.933 1566.65C629.147 1566.65 626.888 1568.91 626.888 1571.7C626.888 1574.48 629.147 1576.74 631.933 1576.74Z" fill="white"/>
<path d="M1353.14 1648.23H332.422V1144.24H845.543C1026.81 1144.24 1190.19 1253.54 1259.37 1421.09L1353.14 1648.23Z" stroke="#573240" stroke-width="5" stroke-miterlimit="10" stroke-linecap="round"/>
<path d="M333.125 1429.61H1260.41" stroke="#573240" stroke-width="5" stroke-miterlimit="10" stroke-linecap="round"/>
<path d="M739.307 1648.23H332.421V1145.02C465.21 1167.2 579.399 1260.92 631.927 1388.16L739.307 1648.23Z" stroke="#573240" stroke-width="5" stroke-miterlimit="10" stroke-linecap="round"/>
<path d="M1598.5 692.293C1598.5 706.484 1587 717.988 1572.81 717.988C1558.62 717.988 1547.12 706.484 1547.12 692.293" stroke="#573240" stroke-width="5" stroke-miterlimit="10"/>
<path d="M1574.48 203V613.456" stroke="#573240" stroke-width="5" stroke-miterlimit="10" stroke-linecap="round"/>
<path d="M1777.63 692.041H1371.34C1373.43 683.175 1377.96 675.245 1384.19 669.014C1392.93 660.286 1405 654.876 1418.33 654.876H1465.71C1471.63 654.876 1477.24 652.252 1481.03 647.72L1499.74 625.364C1506.07 617.816 1515.4 613.457 1525.24 613.457H1623.72C1633.56 613.457 1642.9 617.814 1649.21 625.364L1667.94 647.732C1671.73 652.264 1677.34 654.876 1683.24 654.876H1730.64C1753.47 654.876 1772.62 670.736 1777.63 692.041Z" fill="#F6ACC1"/>
<path d="M949.093 203V613.456" stroke="#573240" stroke-width="5" stroke-miterlimit="10" stroke-linecap="round"/>
<path d="M1152.24 692.041H745.944C748.037 683.175 752.569 675.245 758.799 669.014C767.538 660.286 779.607 654.876 792.935 654.876H840.319C846.237 654.876 851.844 652.252 855.635 647.72L874.35 625.364C880.673 617.816 890.003 613.457 899.851 613.457H998.33C1008.17 613.457 1017.51 617.814 1023.82 625.364L1042.55 647.732C1046.34 652.264 1051.94 654.876 1057.85 654.876H1105.25C1128.08 654.876 1147.22 670.736 1152.24 692.041Z" fill="#A9D8D5"/>
<path d="M975.425 692.293C975.425 706.484 963.922 717.987 949.731 717.987C935.541 717.987 924.037 706.484 924.037 692.293" stroke="#573240" stroke-width="5" stroke-miterlimit="10"/>
</svg>
