<svg width="128" height="128" viewBox="0 0 128 128" fill="none" xmlns="http://www.w3.org/2000/svg">
<circle cx="64" cy="64" r="64" fill="#3667E6" fill-opacity="0.2"/>
<g clip-path="url(#clip0_16:107)">
<path d="M94.8718 76.1851L77.7031 59.0181L88.9453 52.8184C89.9463 52.2664 90.5169 51.166 90.3929 50.028C90.2684 48.8903 89.4718 47.9398 88.3755 47.6174L35.6348 32.1153C34.6381 31.8226 33.5633 32.0964 32.8295 32.83C32.0965 33.5634 31.8224 34.6381 32.1156 35.635L47.615 88.3723C47.9372 89.4702 48.8899 90.2667 50.0259 90.391C51.1638 90.5158 52.2641 89.9444 52.8162 88.9435L59.0151 77.7044L76.1838 94.8716C77.6882 96.3761 80.1248 96.3761 81.6295 94.8716L94.8719 81.6305C96.3762 80.126 96.3762 77.6899 94.8718 76.1851Z" fill="#3667E6"/>
</g>
<defs>
<clipPath id="clip0_16:107">
<rect width="64" height="64" fill="white" transform="matrix(-1 0 0 1 96 32)"/>
</clipPath>
</defs>
</svg>
