<svg width="128" height="128" viewBox="0 0 128 128" fill="none" xmlns="http://www.w3.org/2000/svg">
<circle cx="64" cy="64" r="64" fill="#D6E0FF"/>
<g clip-path="url(#clip0_16_107)">
<path d="M91.0128 74.662L75.9902 59.6409L85.8271 54.2161C86.703 53.7331 87.2023 52.7703 87.0938 51.7745C86.9848 50.7791 86.2878 49.9473 85.3286 49.6652L39.1804 36.1009C38.3083 35.8448 37.3679 36.0843 36.7258 36.7262C36.0845 37.368 35.8446 38.3083 36.1012 39.1806L49.6632 85.3258C49.945 86.2864 50.7787 86.9834 51.7727 87.0921C52.7683 87.2013 53.7311 86.7013 54.2142 85.8255L59.6382 75.9913L74.6608 91.0127C75.9772 92.3291 78.1092 92.3291 79.4258 91.0127L91.0129 79.4267C92.3292 78.1102 92.3292 75.9786 91.0128 74.662Z" fill="#3366FF"/>
</g>
<defs>
<clipPath id="clip0_16_107">
<rect width="56" height="56" fill="white" transform="matrix(-1 0 0 1 92 36)"/>
</clipPath>
</defs>
</svg>
