<svg width="72" height="52" viewBox="0 0 72 52" fill="none" xmlns="http://www.w3.org/2000/svg">
<g clip-path="url(#clip0_16:130)">
<path d="M36.7924 51.078C36.4896 50.7916 36.4219 50.5875 36.4219 49.962C36.4219 48.3301 37.1681 47.3787 38.5765 47.2148L39.4275 47.1158L40.4532 45.0862C41.7222 42.5755 41.8127 42.2195 41.6155 40.5148C41.3934 38.5936 41.0321 37.3632 40.2258 35.7819C39.2498 33.8678 38.8568 32.421 38.6069 29.8222C38.5283 29.0046 38.5446 28.9343 38.8119 28.9343C38.9716 28.9343 39.4958 29.1383 39.9769 29.3877C40.7335 29.7798 41.0509 29.8426 42.3281 29.8528C43.87 29.865 44.4222 29.6656 45.4059 28.7417L45.7414 28.4265L46.2933 29.5683C46.5968 30.1963 47.0117 31.0018 47.2153 31.3583C47.5168 31.8862 47.5546 32.0588 47.419 32.2885C46.5789 33.7117 46.4107 34.5937 46.1232 39.0821C45.9364 41.9974 45.8106 42.5357 44.6253 45.4894C43.7634 47.6373 43.6408 47.8469 42.2268 49.5908L40.7367 51.4286H38.9498C37.355 51.4286 37.1231 51.3909 36.7924 51.078V51.078ZM22.8452 50.3369C22.5737 50.0104 22.5005 49.7486 22.5023 49.1107C22.506 47.8366 22.9534 47.0527 24.0273 46.4392L24.9154 45.9318L24.8451 43.9869C24.758 41.5784 24.3522 39.1535 23.5571 36.2914C23.1164 34.7053 22.9874 34.0331 23.0937 33.8787C23.1749 33.7609 23.4396 32.9999 23.682 32.1874C24.0605 30.9188 24.167 30.7119 24.4364 30.7222C24.6089 30.7289 25.5486 30.7479 26.5246 30.7645L28.2992 30.7947L28.2166 32.3591C28.1712 33.2196 28.0921 34.5532 28.0409 35.3227C27.9312 36.9729 28.1963 41.179 28.485 42.3685C28.8259 43.7727 28.7503 45.1956 28.264 46.5281C28.0311 47.1664 27.8039 48.0544 27.759 48.5015C27.6386 49.702 27.4321 50.3952 27.1386 50.5842C26.9952 50.6765 26.0482 50.752 25.0341 50.752C23.264 50.752 23.1765 50.7354 22.8452 50.3369V50.3369ZM57.6844 50.5491C57.4432 50.259 57.4761 49.1275 57.7456 48.4445C57.8721 48.1239 58.2518 47.633 58.5893 47.3537C59.1952 46.8524 59.2031 46.8331 59.2031 45.8622C59.2031 45.3213 59.1389 44.4687 59.0604 43.9677C58.8894 42.8768 58.1338 40.9046 57.5909 40.1322C57.3757 39.8261 56.3413 38.9645 55.2923 38.2176C50.3075 34.6686 47.7374 31.2685 45.878 25.7631C45.6249 25.0137 45.5213 24.8752 45.2143 24.8752C44.6926 24.8752 44.6427 25.2481 45.0073 26.4209L45.3282 27.4527L44.9883 27.7622C44.465 28.2388 42.82 28.8135 41.9792 28.8135C41.422 28.8135 41.027 28.6885 40.4751 28.3378C39.0609 27.4392 36.6903 27.5679 32.2031 28.7869C30.1438 29.3463 29.3979 29.4706 27.6328 29.5483C26.4727 29.5994 25.2937 29.5773 25.0129 29.4992L24.5023 29.3571L25.3307 26.5665C25.7863 25.0316 26.1427 23.6698 26.1225 23.5403C26.0564 23.1145 25.6242 22.9056 25.3911 23.1867C25.2768 23.3247 24.5456 25.6067 23.7663 28.2578C22.8623 31.3329 22.2366 33.2111 22.0379 33.4458C21.8667 33.648 19.7648 35.2262 17.3672 36.9527C14.9695 38.6793 12.803 40.3223 12.5528 40.6039C11.7606 41.495 11.4936 42.3463 11.3809 44.3392C11.2239 47.1154 10.6791 48.046 9.21094 48.046C8.85521 48.046 8.3813 47.9323 8.1578 47.7933C7.43168 47.3416 7.3125 46.9563 7.3125 45.0599C7.3125 43.3848 7.33793 43.2452 8.15909 40.4114C8.63346 38.7744 9.14354 37.3116 9.31924 37.0843C9.49171 36.8612 10.9934 35.307 12.6563 33.6303C14.3191 31.9537 15.7516 30.4205 15.8395 30.2232C15.9667 29.9374 15.8895 29.1675 15.4596 26.4368C15.1628 24.5515 14.8815 22.9342 14.8345 22.8427C14.7875 22.7513 14.6389 22.6765 14.5042 22.6765C14.0755 22.6765 13.9289 23.0221 14.0085 23.845L14.0836 24.6215L13.2645 23.5769C12.8139 23.0024 11.7204 21.569 10.8345 20.3916C9.44569 18.546 9.17428 18.2608 8.86572 18.3232C8.66887 18.3629 7.21889 18.8251 5.64354 19.3503C2.0363 20.5527 2.08863 20.5625 0.769042 18.4412C0.192916 17.515 0 17.0619 0 16.6349C0 15.9769 0.13954 15.7918 1.81357 14.2285C3.38244 12.7633 3.5991 12.3848 3.70619 10.922C3.76605 10.1043 3.92486 9.4156 4.21962 8.6955L4.64638 7.65289L4.27643 6.15851C3.79912 4.23041 3.65859 1.583 3.9839 0.64728C4.3588 -0.431072 4.68776 -0.274066 6.76557 1.9749C7.76248 3.05392 8.57677 3.98625 8.57512 4.04674C8.57347 4.10722 8.28869 4.68292 7.9423 5.32604C7.59591 5.96917 7.31347 6.53998 7.31465 6.59453C7.32128 6.89958 7.59746 7.13881 7.88554 7.08903C8.14336 7.04448 8.6193 6.2712 10.0547 3.56478C12.0509 -0.199085 12.1452 -0.303774 13.0264 0.266951C13.8684 0.812325 14.481 2.82935 14.4868 5.07573L14.4895 6.01716L16.7679 7.44085L19.0464 8.86454L22.496 8.8896C25.5254 8.91159 26.0843 8.95861 27.0849 9.27554C29.138 9.92583 32.6587 10.1989 40.6408 10.3272C46.7232 10.4248 48.1535 10.4924 48.7611 10.7105C51.0904 11.547 52.9613 13.4396 54.0692 16.0804C54.859 17.963 54.8813 18.1531 54.9813 23.8604C55.0677 28.7888 55.0978 29.2587 55.3823 30.1316C55.8385 31.5308 56.4858 32.3153 58.517 33.9306C59.5242 34.7316 60.7601 35.8569 61.2633 36.4312L62.1783 37.4754L62.5891 41.0271C63.0749 45.2259 63.0797 45.4439 62.7171 46.8349C62.5588 47.4423 62.4377 48.3818 62.4377 49.0024C62.4377 50.7955 62.4983 50.7521 59.9999 50.7521C58.5179 50.7521 57.8011 50.6892 57.6846 50.5491L57.6844 50.5491ZM6.56456 11.0575C6.76074 10.7587 6.65869 10.33 6.39137 10.33C6.17556 10.33 5.76562 10.9715 5.76562 11.3092C5.76562 11.5968 6.32656 11.4201 6.56456 11.0575ZM64.2984 35.3568C62.7656 34.9573 61.3073 34.2888 60.0428 33.4061C58.3708 32.2388 56.4759 30.3176 56.2592 29.5698C56.1686 29.2572 56.1083 27.3415 56.1066 24.7231C56.1039 20.2742 56.0001 18.7416 55.6059 17.3202C55.3105 16.255 54.628 14.62 54.1835 13.9129C53.9896 13.6045 53.8547 13.3236 53.8836 13.2888C53.9126 13.2539 54.3818 13.6677 54.9264 14.2082C56.8952 16.1622 58.8057 19.2518 60.4239 23.0986C61.6028 25.9009 62.2687 27.0244 63.7388 28.6911C65.5749 30.7728 68.0484 32.3559 70.5938 33.0785C71.8034 33.4219 72 33.5637 72 34.0927C72 34.6345 71.8007 34.7772 70.4531 35.2005C68.7196 35.7449 66.0478 35.8128 64.2984 35.3568V35.3568Z" fill="black"/>
</g>
<defs>
<clipPath id="clip0_16:130">
<rect width="72" height="51.4286" fill="white"/>
</clipPath>
</defs>
</svg>
