<svg width="128" height="128" viewBox="0 0 128 128" fill="none" xmlns="http://www.w3.org/2000/svg">
<circle cx="64" cy="64" r="64" fill="#F8E3DA"/>
<g clip-path="url(#clip0_49_146)">
<path d="M59.9287 48.4189L51.9051 40.3952C51.1337 39.6239 49.8829 39.6239 49.1116 40.3952L32.5785 56.9282C31.8072 57.6996 31.8072 58.9503 32.5785 59.7217L40.6021 67.7453C41.3734 68.5166 42.6246 68.5163 43.3956 67.7453L59.9289 51.2122C60.7002 50.4409 60.7002 49.1902 59.9287 48.4189Z" fill="#FFB020"/>
<path d="M95.4214 56.9281L78.8883 40.395C78.1169 39.6236 76.8661 39.6236 76.0948 40.395L68.0712 48.4186C67.2998 49.19 67.2998 50.4407 68.0712 51.2121L84.6044 67.7453C85.3757 68.5166 86.6269 68.5163 87.3979 67.7452L95.4215 59.7216C96.1929 58.9502 96.1929 57.6993 95.4214 56.9281Z" fill="#FFB020"/>
<path d="M78.6318 67.1213C76.9604 65.4497 69.137 57.6261 66.3155 54.8055C65.5112 54.0016 64.4921 53.449 63.3896 53.208C62.83 54.0085 45.9603 70.7687 45.6809 70.9912C45.9289 72.0707 46.4762 73.0677 47.2659 73.8574L59.1628 85.7528C63.4385 90.0321 67.6896 87.939 69.182 85.0003L61.6258 77.4442C60.8544 76.6728 60.8544 75.422 61.6258 74.6507C62.397 73.8793 63.6479 73.8793 64.4193 74.6507L71.9522 82.1837C73.5451 81.4093 74.7876 79.894 75.1297 78.0032L68.0982 70.9717C67.3269 70.2003 67.3269 68.9496 68.0982 68.1782C68.8695 67.4068 70.1204 67.4068 70.8917 68.1782L78.6386 75.9252C81.1002 73.7835 81.508 69.9981 78.6318 67.1213Z" fill="#FFB020"/>
</g>
<defs>
<clipPath id="clip0_49_146">
<rect width="64" height="64" fill="white" transform="translate(32 32)"/>
</clipPath>
</defs>
</svg>
