<svg width="128" height="128" viewBox="0 0 128 128" fill="none" xmlns="http://www.w3.org/2000/svg">
<circle cx="64" cy="64" r="64" fill="#E7E4F9"/>
<path d="M77.462 37.3361L77.7717 37.3696C79.2243 37.6117 80.2059 38.9856 79.9637 40.4383L77.8179 53.3126L87.9984 53.3066C89.4712 53.3057 90.6659 54.4989 90.6667 55.9717C90.6675 57.4445 89.4744 58.6391 88.0016 58.6399L76.9291 58.6464L75.1504 69.3176L85.3323 69.3131C86.8051 69.3125 87.9995 70.5059 88 71.9787C88.0008 73.4512 86.8075 74.6459 85.3347 74.6464L74.2616 74.6515L71.9637 88.4384C71.7216 89.8909 70.3475 90.8725 68.8949 90.6304C67.4421 90.3883 66.4608 89.0141 66.7029 87.5616L68.8541 74.6539L55.5861 74.6597L53.2883 88.4387C53.0461 89.8912 51.672 90.8725 50.2193 90.6304C48.7666 90.388 47.7854 89.0139 48.0276 87.5613L50.1787 74.6621L40.0012 74.6667C38.5285 74.6672 37.334 73.4739 37.3334 72.0011C37.3327 70.5283 38.5261 69.3339 39.9989 69.3333L51.0681 69.3283L52.8471 58.6606L42.6682 58.6666C41.1954 58.6675 40.0008 57.4743 39.9999 56.0015C39.9991 54.5288 41.1923 53.3342 42.665 53.3333L53.7365 53.3268L56.032 39.5613C56.2743 38.1086 57.6483 37.1274 59.1011 37.3696C60.5539 37.6119 61.5349 38.9859 61.2928 40.4386L59.144 53.3236L72.4104 53.3158L74.7029 39.5615C74.9451 38.1088 76.3189 37.1274 77.7717 37.3696L77.462 37.3361ZM71.5216 58.6496L58.2546 58.6575L56.4755 69.3259L69.7432 69.32L71.5216 58.6496Z" fill="#6E62B6"/>
</svg>
