<svg width="128" height="128" viewBox="0 0 128 128" fill="none" xmlns="http://www.w3.org/2000/svg">
<circle cx="64" cy="64" r="64" fill="#E7E4F9"/>
<path fill-rule="evenodd" clip-rule="evenodd" d="M53.6374 37.584C53.9494 37.7572 54.2094 38.0108 54.3904 38.3184C54.5714 38.626 54.6668 38.9764 54.6667 39.3333V56H58.0054C58.5358 56 59.0445 56.2107 59.4196 56.5858C59.7947 56.9609 60.0054 57.4696 60.0054 58C60.0054 58.5304 59.7947 59.0391 59.4196 59.4142C59.0445 59.7893 58.5358 60 58.0054 60H47.3334C46.8029 60 46.2942 59.7893 45.9192 59.4142C45.5441 59.0391 45.3334 58.5304 45.3334 58C45.3334 57.4696 45.5441 56.9609 45.9192 56.5858C46.2942 56.2107 46.8029 56 47.3334 56H50.6667V42.9413L48.392 44.3627C47.9422 44.6438 47.3992 44.7347 46.8823 44.6155C46.3655 44.4962 45.9172 44.1765 45.636 43.7267C45.3549 43.2769 45.264 42.7338 45.3833 42.2169C45.5025 41.7001 45.8222 41.2518 46.272 40.9707L51.6054 37.6373C51.9084 37.4476 52.2567 37.3426 52.6141 37.3333C52.9715 37.3239 53.3248 37.4105 53.6374 37.584V37.584ZM66.6747 52.6773C66.6747 52.1469 66.8854 51.6382 67.2605 51.2631C67.6356 50.888 68.1443 50.6773 68.6747 50.6773H82.6267C83.022 50.6777 83.4084 50.7952 83.7369 51.015C84.0655 51.2347 84.3216 51.547 84.4728 51.9122C84.624 52.2774 84.6636 52.6793 84.5866 53.067C84.5096 53.4548 84.3194 53.811 84.04 54.0907L76.6374 61.496C78.104 61.7547 79.456 62.1707 80.616 62.784C83.0294 64.056 84.6267 66.208 84.6267 69.232C84.6267 71.808 83.3707 73.8987 81.5014 75.2853C79.6694 76.648 77.2694 77.3387 74.7787 77.3387C71.1334 77.3387 68.7147 75.9307 67.6667 75.3227C67.2081 75.0557 66.8743 74.6174 66.7387 74.1043C66.6032 73.5912 66.6771 73.0453 66.944 72.5867C67.211 72.128 67.6493 71.7942 68.1624 71.6587C68.6755 71.5232 69.2214 71.597 69.68 71.864C70.5627 72.3787 72.2214 73.3387 74.7787 73.3387C76.5734 73.3387 78.0934 72.8373 79.1174 72.0773C80.104 71.344 80.6267 70.384 80.6267 69.232C80.6267 67.8987 80.0427 67.0027 78.752 66.3227C77.3174 65.5653 75.0854 65.1413 72.1627 65.1413C71.7674 65.141 71.3811 65.0235 71.0525 64.8037C70.7239 64.5839 70.4678 64.2717 70.3166 63.9065C70.1654 63.5412 70.1258 63.1394 70.2028 62.7516C70.2798 62.3639 70.47 62.0077 70.7494 61.728L77.7974 54.6773H68.6747C68.1443 54.6773 67.6356 54.4666 67.2605 54.0915C66.8854 53.7165 66.6747 53.2078 66.6747 52.6773V52.6773ZM53.0134 72.5733C52.2183 72.4801 51.4143 72.6449 50.72 73.0434C50.0257 73.4419 49.4779 74.0531 49.1574 74.7867C48.9346 75.26 48.5352 75.6271 48.0448 75.8094C47.5545 75.9917 47.0122 75.9747 46.5343 75.7619C46.0564 75.5491 45.6809 75.1575 45.4883 74.6712C45.2957 74.1848 45.3014 73.6423 45.504 73.16C46.1706 71.6495 47.3032 70.3919 48.736 69.5714C50.1688 68.7509 51.8265 68.4105 53.4667 68.6C55.038 68.7612 56.505 69.4613 57.6187 70.5813C58.776 71.7707 59.4454 73.4027 59.4454 75.3227C59.4454 79.6987 56.1014 81.8213 53.792 83.2853C52.3574 84.1947 50.6454 85.136 49.8054 86.68H58C58.5305 86.68 59.0392 86.8907 59.4143 87.2658C59.7893 87.6409 60 88.1496 60 88.68C60 89.2104 59.7893 89.7191 59.4143 90.0942C59.0392 90.4693 58.5305 90.68 58 90.68H47.3334C46.8029 90.68 46.2942 90.4693 45.9192 90.0942C45.5441 89.7191 45.3334 89.2104 45.3334 88.68C45.3334 83.8827 48.8987 81.6667 51.3147 80.12C54.0667 78.3627 55.448 77.3707 55.448 75.32C55.448 74.3733 55.1387 73.7627 54.7547 73.368C54.284 72.9107 53.6698 72.63 53.016 72.5733H53.0134Z" fill="#6E62B6"/>
</svg>
