<svg width="516" height="516" viewBox="0 0 516 516" fill="none" xmlns="http://www.w3.org/2000/svg">
<circle cx="258" cy="258" r="258" fill="#FDF3E3"/>
<path d="M311.629 179.139L268.617 158.037C266.515 156.986 264.09 157.229 262.23 158.603L182.513 216.329C180.653 217.704 179.683 219.967 180.007 222.231L186.394 268.153C186.555 269.204 186.96 270.094 187.525 270.983L287.212 408.75C289.234 411.499 293.114 412.146 295.944 410.124L410.911 326.85C413.66 324.829 414.307 320.948 412.286 318.118L311.629 179.139Z" fill="#F27932"/>
<path d="M414.954 207.597C419.158 206.385 423.281 204.525 427 202.019C423.362 199.512 419.158 197.734 414.954 196.44C410.588 195.227 407.273 191.589 406.141 186.981C405.009 182.292 403.311 178.007 400.967 174.126C398.622 178.087 396.924 182.534 395.792 186.981C394.661 191.67 391.265 195.227 386.98 196.44C382.776 197.653 378.652 199.512 374.933 202.019C378.572 204.525 382.776 206.304 386.98 207.597C391.346 208.81 394.661 212.448 395.792 217.057C396.924 221.503 398.622 226.031 400.967 229.912C403.311 225.95 405.009 221.503 406.141 217.057C407.273 212.448 410.588 208.891 414.954 207.597Z" fill="#C2D9F0"/>
<path d="M156.156 271.792C159.309 270.983 162.381 269.528 165.211 267.668C162.381 265.728 159.309 264.434 156.156 263.545C152.841 262.575 150.415 259.907 149.445 256.43C148.637 253.035 147.262 249.801 145.565 246.728C143.867 249.72 142.492 253.035 141.684 256.43C140.794 259.907 138.288 262.575 134.973 263.545C131.82 264.353 128.748 265.809 125.918 267.668C128.748 269.609 131.82 270.902 134.973 271.792C138.288 272.762 140.714 275.43 141.684 278.906C142.492 282.302 143.867 285.536 145.565 288.608C147.262 285.617 148.637 282.302 149.445 278.906C150.335 275.43 152.841 272.681 156.156 271.792Z" fill="#F7C689"/>
<path d="M133.356 202.181C158.406 202.181 178.713 180.426 178.713 153.59C178.713 126.755 158.406 105 133.356 105C108.307 105 88 126.755 88 153.59C88 180.426 108.307 202.181 133.356 202.181Z" stroke="#C2D9F0" stroke-miterlimit="10"/>
<path d="M152.517 141.948C150.496 136.935 144.998 134.833 140.309 136.935C136.428 138.876 133.599 144.05 132.952 149.063C129.799 145.344 124.948 142.433 120.582 143.161C115.569 144.05 112.254 149.063 112.901 154.399C113.71 158.522 116.782 161.513 119.935 163.696C125.595 167.415 139.177 171.539 139.177 171.539C142.815 167.092 148.394 160.058 151.224 153.833C152.841 150.195 153.892 145.91 152.517 141.948Z" fill="#F7C689"/>
<path d="M314.054 168.628L271.042 147.527C268.94 146.475 266.515 146.718 264.655 148.092L184.938 205.819C183.079 207.193 182.108 209.457 182.432 211.721L188.819 257.643C188.981 258.694 189.385 259.583 189.951 260.473L289.638 398.239C291.659 400.988 295.54 401.635 298.369 399.614L413.337 316.339C416.086 314.318 416.732 310.437 414.711 307.608L314.054 168.628Z" fill="#F7C689"/>
<path d="M194.155 255.541L309.122 172.266" stroke="#F27932" stroke-miterlimit="10" stroke-dasharray="4 4"/>
<path d="M235.064 198.704C239.753 198.704 243.553 194.903 243.553 190.215C243.553 185.527 239.753 181.726 235.064 181.726C230.376 181.726 226.575 185.527 226.575 190.215C226.575 194.903 230.376 198.704 235.064 198.704Z" fill="white"/>
<path d="M307.748 226.759C310.335 233.388 317.773 237.026 324.645 234.844C331.921 232.58 339.683 236.784 341.866 243.979C342.917 247.699 342.594 251.579 340.653 254.813C337.096 261.039 338.874 268.962 344.857 273.004C351.163 277.289 352.7 285.859 348.415 292.166C346.232 295.238 342.917 297.421 339.117 297.987C332.002 299.038 326.99 305.506 327.475 312.62C328.041 320.22 322.381 326.769 314.701 327.416C310.901 327.658 307.101 326.365 304.352 323.697C299.097 318.846 290.931 318.846 285.676 323.697C280.097 328.79 271.365 328.548 266.191 322.969C263.604 320.139 262.23 316.42 262.472 312.62C262.957 305.506 257.945 299.038 250.83 297.987C243.311 296.774 238.056 289.74 239.268 282.302C239.834 278.502 242.017 275.187 245.09 273.004C251.072 268.962 252.851 260.958 249.294 254.813C245.494 248.184 247.838 239.775 254.387 235.975C257.702 234.035 261.502 233.712 265.221 234.763C272.093 236.946 279.531 233.307 282.118 226.678C284.867 219.563 292.952 216.087 299.986 218.835C303.463 220.372 306.292 223.201 307.748 226.759Z" fill="#F27932"/>
<path d="M290.931 296.936H283.412L298.692 253.196H306.292L290.931 296.936Z" fill="white"/>
<path d="M278.076 254.652C272.983 254.652 268.779 258.856 268.779 263.949C268.779 269.043 272.983 273.247 278.076 273.247C283.17 273.247 287.374 269.043 287.374 263.949C287.374 258.775 283.17 254.652 278.076 254.652ZM278.076 267.587C276.055 267.587 274.357 265.89 274.357 263.868C274.357 261.847 276.055 260.149 278.076 260.149C280.097 260.149 281.795 261.847 281.795 263.868C281.876 265.97 280.097 267.587 278.076 267.587Z" fill="white"/>
<path d="M311.628 278.421C306.535 278.421 302.331 282.625 302.331 287.719C302.331 292.812 306.535 297.017 311.628 297.017C316.722 297.017 320.926 292.812 320.926 287.719C320.845 282.464 316.641 278.421 311.628 278.421ZM311.628 291.438C309.607 291.438 307.909 289.74 307.909 287.719C307.909 285.698 309.607 284 311.628 284C313.65 284 315.347 285.698 315.347 287.719C315.347 289.74 313.65 291.438 311.628 291.438Z" fill="white"/>
<path d="M134.811 369.538L135.782 348.517L118.157 359.755L112.901 350.781L131.497 341.241L112.901 331.701L118.157 322.726L135.782 334.207L134.811 313.186H145.16L144.19 334.207L161.896 322.646L167.151 331.62L148.394 341.16L167.151 350.7L161.896 359.755L144.271 348.517L145.241 369.538H134.811V369.538Z" stroke="#C2D9F0" stroke-miterlimit="10"/>
</svg>
