<svg width="5000" height="3500" viewBox="0 0 5000 3500" fill="none" xmlns="http://www.w3.org/2000/svg">
<path d="M4585.27 1977.53H4522.01L4419.68 1087.28H4482.94L4585.27 1977.53Z" fill="#FF6E00"/>
<path d="M4490.24 1150.72L4434.25 1213.95L4430.65 1182.69L4486.66 1119.46L4490.24 1150.72Z" fill="white"/>
<path d="M4499.3 1229.45L4443.29 1292.68L4439.7 1261.43L4495.7 1198.2L4499.3 1229.45Z" fill="white"/>
<path d="M4508.34 1308.19L4452.35 1371.42L4448.75 1340.16L4504.76 1276.93L4508.34 1308.19Z" fill="white"/>
<path d="M4517.39 1386.92L4461.39 1450.15L4457.8 1418.9L4513.8 1355.67L4517.39 1386.92Z" fill="white"/>
<path d="M4526.44 1465.66L4470.45 1528.87L4466.85 1497.63L4522.85 1434.4L4526.44 1465.66Z" fill="white"/>
<path d="M4535.49 1544.39L4479.49 1607.61L4475.9 1576.36L4531.9 1513.14L4535.49 1544.39Z" fill="white"/>
<path d="M4544.55 1623.12L4488.55 1686.34L4484.95 1655.1L4540.95 1591.87L4544.55 1623.12Z" fill="white"/>
<path d="M4553.59 1701.85L4497.59 1765.08L4494.01 1733.83L4550 1670.6L4553.59 1701.85Z" fill="white"/>
<path d="M4562.65 1780.58L4506.65 1843.81L4503.05 1812.55L4559.05 1749.34L4562.65 1780.58Z" fill="white"/>
<path d="M4571.69 1859.32L4515.69 1922.54L4512.11 1891.29L4568.1 1828.07L4571.69 1859.32Z" fill="white"/>
<path d="M4901.61 1977.53L4797.06 2894.22C4791.25 2944.84 4748.4 2983.04 4697.45 2983.04H4356.15C4305.2 2983.04 4262.36 2944.84 4256.54 2894.22L4151.38 1977.53H4901.61Z" fill="#A9D8D5"/>
<path d="M4580.75 1938.05L4545.78 1977.53H4522.02L4521.15 1970.02L4577.16 1906.8L4580.75 1938.05Z" fill="white"/>
<path d="M4919.44 1829.55L4797.06 2894.22C4791.25 2944.84 4748.4 2983.04 4697.45 2983.04H4356.14C4305.19 2983.04 4262.35 2944.84 4256.53 2894.22L4134.15 1829.55H4919.44Z" stroke="#A9D8D5" stroke-width="5" stroke-miterlimit="10"/>
<path d="M4437.63 2384.61L4763.48 2150.83C4805.27 2241.97 4781.38 2350.17 4701.06 2407.79C4620.74 2465.42 4510.58 2453.39 4437.63 2384.61Z" fill="#F1B104"/>
<path d="M4645.24 2407.13L4616.24 2289.1L4718.65 2354.29C4709.31 2366.12 4698.2 2376.82 4685.42 2385.99C4672.78 2395.06 4659.26 2402.08 4645.24 2407.13Z" fill="#FF6E00"/>
<path d="M4628.79 2272.52L4755.21 2244.46C4755.61 2276.39 4747.66 2307.74 4731.82 2334.92L4628.79 2272.52Z" fill="#FF6E00"/>
<path d="M4529.29 2406.87L4596.73 2295.51L4622.91 2413.44C4591.96 2419.91 4559.56 2417.48 4529.29 2406.87Z" fill="#FF6E00"/>
<path d="M4502 2394.74C4488.1 2387.16 4474.95 2377.68 4462.98 2366.41L4575.67 2285.56L4502 2394.74Z" fill="#FF6E00"/>
<path d="M4624.27 2250.69L4738.11 2169.02C4745.04 2184.1 4749.83 2199.76 4752.53 2215.54L4624.27 2250.69Z" fill="#FF6E00"/>
<path d="M4900.45 1768.7H4153.14C4119.53 1768.7 4092.29 1795.95 4092.29 1829.55H4961.3C4961.3 1795.95 4934.06 1768.7 4900.45 1768.7Z" stroke="#573240" stroke-width="5" stroke-miterlimit="10" stroke-linecap="round"/>
<path d="M4902.21 1768.7C4866.02 1614.46 4728.43 1505.41 4569.99 1505.41H4483.6C4325.16 1505.41 4187.57 1614.46 4151.38 1768.7H4902.21V1768.7Z" stroke="#573240" stroke-width="5" stroke-miterlimit="10" stroke-linecap="round"/>
<path d="M4639.45 2918.66H4509.28C4493.01 2918.66 4479.82 2905.48 4479.82 2889.21V2759.03C4479.82 2742.77 4493.01 2729.58 4509.28 2729.58H4639.45C4655.72 2729.58 4668.91 2742.77 4668.91 2759.03V2889.21C4668.91 2905.48 4655.72 2918.66 4639.45 2918.66Z" fill="#E0F1F0"/>
<path d="M4743.81 2684.33H4641.37C4625.1 2684.33 4611.92 2671.15 4611.92 2654.88V2552.44C4611.92 2536.17 4625.1 2522.99 4641.37 2522.99H4743.81C4760.08 2522.99 4773.26 2536.17 4773.26 2552.44V2654.88C4773.26 2671.15 4760.08 2684.33 4743.81 2684.33Z" fill="#E0F1F0"/>
<path d="M4395.94 2763.08H4293.49C4277.23 2763.08 4264.04 2749.89 4264.04 2733.62V2631.18C4264.04 2614.92 4277.23 2601.73 4293.49 2601.73H4395.94C4412.2 2601.73 4425.39 2614.92 4425.39 2631.18V2733.62C4425.39 2749.89 4412.2 2763.08 4395.94 2763.08Z" fill="#E0F1F0"/>
<path d="M4465.02 2286.68C4474.66 2286.68 4482.47 2278.86 4482.47 2269.22C4482.47 2259.58 4474.66 2251.76 4465.02 2251.76C4455.37 2251.76 4447.56 2259.58 4447.56 2269.22C4447.56 2278.86 4455.37 2286.68 4465.02 2286.68Z" stroke="white" stroke-width="5" stroke-miterlimit="10"/>
<path d="M4373.17 2542.15C4382.81 2542.15 4390.63 2534.33 4390.63 2524.69C4390.63 2515.05 4382.81 2507.23 4373.17 2507.23C4363.53 2507.23 4355.71 2515.05 4355.71 2524.69C4355.71 2534.33 4363.53 2542.15 4373.17 2542.15Z" stroke="white" stroke-width="5" stroke-miterlimit="10"/>
<path d="M4331 2142.97C4344.65 2142.97 4355.71 2131.9 4355.71 2118.26C4355.71 2104.61 4344.65 2093.55 4331 2093.55C4317.36 2093.55 4306.29 2104.61 4306.29 2118.26C4306.29 2131.9 4317.36 2142.97 4331 2142.97Z" stroke="white" stroke-width="5" stroke-miterlimit="10"/>
<path d="M4751.29 2397.53C4764.94 2397.53 4776 2386.47 4776 2372.82C4776 2359.18 4764.94 2348.12 4751.29 2348.12C4737.65 2348.12 4726.58 2359.18 4726.58 2372.82C4726.58 2386.47 4737.65 2397.53 4751.29 2397.53Z" stroke="white" stroke-width="5" stroke-miterlimit="10"/>
<path d="M4550.67 2553.1C4558.52 2553.1 4564.88 2546.74 4564.88 2538.9C4564.88 2531.05 4558.52 2524.69 4550.67 2524.69C4542.83 2524.69 4536.47 2531.05 4536.47 2538.9C4536.47 2546.74 4542.83 2553.1 4550.67 2553.1Z" stroke="white" stroke-width="5" stroke-miterlimit="10"/>
<path d="M4785.58 2431.83C4790.7 2431.83 4794.85 2427.68 4794.85 2422.56C4794.85 2417.44 4790.7 2413.29 4785.58 2413.29C4780.47 2413.29 4776.32 2417.44 4776.32 2422.56C4776.32 2427.68 4780.47 2431.83 4785.58 2431.83Z" stroke="white" stroke-width="5" stroke-miterlimit="10"/>
<path d="M4690.08 2127.01C4698.61 2127.01 4705.52 2120.1 4705.52 2111.57C4705.52 2103.04 4698.61 2096.13 4690.08 2096.13C4681.55 2096.13 4674.64 2103.04 4674.64 2111.57C4674.64 2120.1 4681.55 2127.01 4690.08 2127.01Z" stroke="white" stroke-width="5" stroke-miterlimit="10"/>
<path d="M4284.32 2178.96C4289.44 2178.96 4293.58 2174.81 4293.58 2169.69C4293.58 2164.57 4289.44 2160.43 4284.32 2160.43C4279.2 2160.43 4275.05 2164.57 4275.05 2169.69C4275.05 2174.81 4279.2 2178.96 4284.32 2178.96Z" stroke="white" stroke-width="5" stroke-miterlimit="10"/>
<path d="M4293.58 2467.62C4298.7 2467.62 4302.85 2463.47 4302.85 2458.36C4302.85 2453.24 4298.7 2449.09 4293.58 2449.09C4288.47 2449.09 4284.32 2453.24 4284.32 2458.36C4284.32 2463.47 4288.47 2467.62 4293.58 2467.62Z" stroke="white" stroke-width="5" stroke-miterlimit="10"/>
<path d="M3107.8 616.061V833.46H3012.57V613.01H2546.91V833.46H2451.69V616.061L2550.73 517.005H3008.74L3107.8 616.061Z" fill="#573240"/>
<path d="M3069.51 833.469V616.057L2970.45 517H2512.44L2413.39 616.057V833.469H2032.41L1785.32 2983.05H3446.61V833.469H3069.51ZM2974.28 833.469H2508.62V613.006H2974.28V833.469Z" fill="#F1B104"/>
<path d="M3744.35 2983.04H3446.61V833.46H3497.26L3744.35 2983.04Z" fill="#573240"/>
<path d="M3015.52 1544.61C3015.52 1706.7 2915.42 1844.19 2776.71 1892.41V1628.87C2776.71 1604.92 2788.54 1582.46 2808.47 1567.33C2829.41 1551.43 2843.27 1523.71 2843.27 1492.17C2843.27 1442.8 2809.32 1402.82 2767.46 1402.82C2725.59 1402.82 2691.64 1442.8 2691.64 1492.17C2691.64 1523.71 2705.5 1551.43 2726.44 1567.33C2746.37 1582.46 2758.2 1604.92 2758.2 1628.87V1898.25C2729.24 1906.47 2698.8 1910.84 2667.39 1910.84C2636.19 1910.84 2605.96 1906.53 2577.19 1898.43V1663.87C2577.19 1639.92 2589.02 1617.46 2608.95 1602.33C2620.59 1593.5 2630.05 1580.98 2636.15 1566.2C2641.02 1554.42 2643.75 1541.17 2643.75 1527.18V1412.07C2643.75 1406.96 2639.61 1402.82 2634.5 1402.82H2634.49C2629.38 1402.82 2625.23 1406.96 2625.23 1412.07V1536.86C2625.23 1543.5 2622.55 1549.5 2618.2 1553.85C2613.85 1558.2 2607.85 1560.89 2601.22 1560.89C2587.95 1560.89 2577.19 1550.13 2577.19 1536.86V1412.07C2577.19 1409.51 2576.15 1407.2 2574.48 1405.52C2572.8 1403.86 2570.49 1402.82 2567.93 1402.82C2562.82 1402.82 2558.68 1406.96 2558.68 1412.07V1536.86C2558.68 1550.13 2547.93 1560.89 2534.66 1560.89H2534.65C2521.38 1560.89 2510.62 1550.13 2510.62 1536.86V1412.07C2510.62 1409.51 2509.58 1407.2 2507.92 1405.52C2506.24 1403.86 2503.93 1402.82 2501.37 1402.82C2496.25 1402.82 2492.11 1406.96 2492.11 1412.07V1527.18C2492.11 1541.17 2494.85 1554.42 2499.71 1566.2C2505.82 1580.98 2515.27 1593.5 2526.9 1602.33C2546.84 1617.46 2558.68 1639.92 2558.68 1663.87V1892.63C2419.64 1844.6 2319.25 1706.93 2319.25 1544.61C2319.25 1342.34 2475.12 1178.36 2667.39 1178.36C2859.66 1178.36 3015.52 1342.34 3015.52 1544.61Z" fill="white"/>
<path d="M2413.39 614.825H3069.5" stroke="#573240" stroke-width="5" stroke-miterlimit="10" stroke-linecap="round"/>
<path d="M3901.91 2609.61L3767.77 2340.18C3736.41 2277.21 3672.13 2237.41 3601.79 2237.41H2729.95C2659.61 2237.41 2595.33 2277.21 2563.97 2340.18L2429.83 2609.61H3901.91Z" fill="#F1B104" stroke="#573240" stroke-width="5" stroke-miterlimit="10" stroke-linecap="round"/>
<path d="M3646.03 2694.22C3576.55 2768.39 3486.77 2797.16 3421.13 2735.66C3355.49 2674.17 3378.35 2582.7 3447.82 2508.54C3517.3 2434.38 3630.11 2402.89 3684.84 2454.17C3739.57 2505.44 3715.5 2620.06 3646.03 2694.22Z" fill="white"/>
<path d="M3610.81 2635.62C3619.84 2589.5 3589.78 2544.79 3543.66 2535.76C3497.54 2526.73 3452.83 2556.79 3443.79 2602.91C3434.76 2649.03 3464.82 2693.74 3510.95 2702.78C3557.07 2711.81 3601.78 2681.74 3610.81 2635.62Z" fill="#F1B104"/>
<path d="M4422.67 2547.08C4447.35 2625.63 4431.91 2700.45 4362.39 2722.29C4292.86 2744.14 4237.41 2691.6 4212.73 2613.04C4188.04 2534.49 4210.73 2442.35 4268.7 2424.13C4326.68 2405.92 4397.98 2468.53 4422.67 2547.08Z" fill="white"/>
<path d="M4371.31 2649.54C4398.24 2622.62 4398.24 2578.96 4371.31 2552.03C4344.39 2525.1 4300.73 2525.1 4273.8 2552.03C4246.87 2578.96 4246.87 2622.62 4273.8 2649.54C4300.73 2676.47 4344.39 2676.47 4371.31 2649.54Z" fill="#F1B104"/>
<path d="M3085.58 2705.61L2785.31 2540.07C2835.58 2482.84 2924.33 2467.92 2998.35 2508.72C3072.37 2549.53 3107.13 2632.56 3085.58 2705.61Z" fill="#FF6E00"/>
<path d="M2973.76 2582.07C2968.52 2591.57 2944.92 2605.65 2944.92 2605.65C2944.92 2605.65 2944.23 2578.18 2949.47 2568.68C2954.71 2559.18 2964.39 2554.47 2971.1 2558.17C2977.8 2561.87 2979 2572.57 2973.76 2582.07Z" stroke="#573240" stroke-width="4" stroke-miterlimit="10" stroke-linecap="round" stroke-linejoin="round"/>
<path d="M3004.25 2630.5C2993.49 2631.87 2968.2 2621.12 2968.2 2621.12C2968.2 2621.12 2989.98 2604.36 3000.74 2602.99C3011.5 2601.62 3021.01 2606.66 3021.98 2614.26C3022.95 2621.86 3015.01 2629.13 3004.25 2630.5Z" stroke="#573240" stroke-width="4" stroke-miterlimit="10" stroke-linecap="round" stroke-linejoin="round"/>
<path d="M2892.24 2568.75C2896.82 2578.58 2919.41 2594.22 2919.41 2594.22C2919.41 2594.22 2921.96 2566.86 2917.37 2557.03C2912.79 2547.2 2903.45 2541.85 2896.51 2545.08C2889.56 2548.32 2887.65 2558.91 2892.24 2568.75Z" stroke="#573240" stroke-width="4" stroke-miterlimit="10" stroke-linecap="round" stroke-linejoin="round"/>
<path d="M3905 2648.34L4153.9 2435.51C4187.77 2500.52 4170.98 2585.5 4109.63 2637.97C4048.27 2690.43 3962.67 2692.99 3905 2648.34Z" fill="#FF6E00"/>
<path d="M4052.73 2590.48C4046.06 2582.49 4041.53 2556.4 4041.53 2556.4C4041.53 2556.4 4066.19 2565.27 4072.87 2573.27C4079.54 2581.27 4080.44 2591.6 4074.89 2596.36C4069.33 2601.11 4059.41 2598.48 4052.73 2590.48Z" stroke="#573240" stroke-width="4" stroke-miterlimit="10" stroke-linecap="round" stroke-linejoin="round"/>
<path d="M3999.33 2601.16C4001.76 2591.01 4019.89 2571.98 4019.89 2571.98C4019.89 2571.98 4027.41 2597.36 4024.99 2607.52C4022.57 2617.67 4014.86 2624.48 4007.77 2622.73C4000.69 2620.97 3996.91 2611.31 3999.33 2601.16Z" stroke="#573240" stroke-width="4" stroke-miterlimit="10" stroke-linecap="round" stroke-linejoin="round"/>
<path d="M4092.19 2521.77C4081.89 2522.49 4060.33 2537.4 4060.33 2537.4C4060.33 2537.4 4083.8 2549.15 4094.1 2548.43C4104.39 2547.71 4112.31 2541.15 4111.79 2533.79C4111.26 2526.43 4102.48 2521.05 4092.19 2521.77Z" stroke="#573240" stroke-width="4" stroke-miterlimit="10" stroke-linecap="round" stroke-linejoin="round"/>
<path d="M3470.93 2652.99C3470.93 2652.99 3375.42 2609.2 3379.78 2479.61C3384.14 2350.02 3499.93 2308.63 3521.57 2349.16C3535.8 2375.79 3519.12 2408.9 3472.74 2426.03C3420.23 2445.43 3388.99 2461.62 3396.58 2523.4C3403.44 2579.21 3429.28 2621.41 3470.93 2652.99Z" fill="#A9D8D5"/>
<path d="M3470.93 2652.99C3470.93 2652.99 3360.94 2578.66 3401.77 2457.55C3435.75 2356.75 3503.25 2365.59 3503.25 2365.59" stroke="#573240" stroke-width="4" stroke-miterlimit="10" stroke-linecap="round" stroke-linejoin="round"/>
<path d="M3419.27 2418.99C3426.35 2408.98 3432.68 2392.33 3429.35 2372.65" stroke="#573240" stroke-width="4" stroke-miterlimit="10" stroke-linecap="round" stroke-linejoin="round"/>
<path d="M3248.53 2693.76C3304.44 2693.76 3349.75 2648.44 3349.75 2592.54C3349.75 2536.64 3304.44 2491.32 3248.53 2491.32C3192.63 2491.32 3147.31 2536.64 3147.31 2592.54C3147.31 2648.44 3192.63 2693.76 3248.53 2693.76Z" fill="#A9D8D5"/>
<path d="M3263.69 2553.71C3262.71 2561.2 3250.99 2576.32 3250.99 2576.32C3250.99 2576.32 3243.56 2558.69 3244.54 2551.19C3245.52 2543.7 3250.6 2538.19 3255.89 2538.88C3261.18 2539.58 3264.67 2546.21 3263.69 2553.71Z" stroke="#573240" stroke-width="4" stroke-miterlimit="10" stroke-linecap="round" stroke-linejoin="round"/>
<path d="M3233.85 2632.72C3234.84 2625.23 3246.56 2610.1 3246.56 2610.1C3246.56 2610.1 3253.99 2627.74 3253.01 2635.23C3252.02 2642.72 3246.94 2648.23 3241.65 2647.54C3236.36 2646.85 3232.87 2640.21 3233.85 2632.72Z" stroke="#573240" stroke-width="4" stroke-miterlimit="10" stroke-linecap="round" stroke-linejoin="round"/>
<path d="M3209.26 2578.29C3216.76 2579.28 3231.88 2591 3231.88 2591C3231.88 2591 3214.25 2598.43 3206.75 2597.45C3199.26 2596.47 3193.75 2591.38 3194.44 2586.09C3195.14 2580.8 3201.77 2577.31 3209.26 2578.29Z" stroke="#573240" stroke-width="4" stroke-miterlimit="10" stroke-linecap="round" stroke-linejoin="round"/>
<path d="M3288.28 2608.13C3280.79 2607.15 3265.66 2595.43 3265.66 2595.43C3265.66 2595.43 3283.3 2588 3290.79 2588.98C3298.28 2589.96 3303.79 2595.04 3303.1 2600.33C3302.41 2605.62 3295.77 2609.11 3288.28 2608.13Z" stroke="#573240" stroke-width="4" stroke-miterlimit="10" stroke-linecap="round" stroke-linejoin="round"/>
<path d="M2568.67 2676.14C2601.88 2676.14 2628.8 2649.22 2628.8 2616.01C2628.8 2582.81 2601.88 2555.89 2568.67 2555.89C2535.46 2555.89 2508.54 2582.81 2508.54 2616.01C2508.54 2649.22 2535.46 2676.14 2568.67 2676.14Z" fill="white"/>
<path d="M2787.45 2609.79C2762.78 2608.96 2735.34 2601.66 2704.63 2590.93C2582.15 2548.14 2582.91 2437 2622.05 2427.62C2652.69 2420.28 2675.71 2449.3 2678.24 2498.7C2681.12 2554.64 2691.39 2594.23 2752.65 2605.39C2764.3 2607.51 2775.94 2609.02 2787.45 2609.79Z" fill="#A9D8D5"/>
<path d="M2804.74 2610.04C2769.95 2611.96 2729.85 2604.89 2690.6 2577.34C2626.09 2532.07 2628.74 2448.92 2628.74 2448.92" stroke="#573240" stroke-width="4" stroke-miterlimit="10" stroke-linecap="round" stroke-linejoin="round"/>
<path d="M2796.3 2608.53C2800.83 2609.27 2727.44 2602.58 2707.39 2538.66C2692.47 2491.1 2729.42 2480.08 2744.24 2495.04C2760.76 2511.73 2747.91 2557.48 2768.87 2587.83C2774.95 2596.63 2774.12 2604.89 2796.3 2608.53Z" fill="#A9D8D5"/>
<path d="M2730.83 2509.12C2730.83 2509.12 2720.04 2589.87 2804.74 2610.04" stroke="#573240" stroke-width="4" stroke-miterlimit="10" stroke-linecap="round" stroke-linejoin="round"/>
<path d="M3842.01 2611.64C3836.64 2612.74 3831.92 2612.5 3827.7 2611.24C3867.34 2593.32 3880.62 2554.39 3890.08 2503.56C3901.17 2443.89 3934.86 2412.15 3972.37 2425.81C4020.29 2443.24 4003.46 2578.48 3842.01 2611.64Z" fill="#A9D8D5"/>
<path d="M3694.57 2629.55C3738.69 2633.84 3816.65 2627.43 3868.14 2595.9C3952.77 2544.07 3952.89 2451.09 3952.89 2451.09" stroke="#573240" stroke-width="4" stroke-miterlimit="10" stroke-linecap="round" stroke-linejoin="round"/>
<path d="M3705.4 2628.16C3699.59 2628.82 3793.27 2624.73 3822.47 2547.6C3844.19 2490.2 3797.86 2474.64 3778.16 2492.13C3756.19 2511.64 3769.87 2568.37 3741.46 2604.35C3733.22 2614.79 3733.8 2624.95 3705.4 2628.16Z" fill="#A9D8D5"/>
<path d="M3794.39 2510.12C3794.39 2510.12 3803.42 2609.59 3694.57 2629.55" stroke="#573240" stroke-width="4" stroke-miterlimit="10" stroke-linecap="round" stroke-linejoin="round"/>
<path d="M4496.15 2609.61L4362.01 2340.18C4330.66 2277.21 4266.38 2237.41 4196.03 2237.41H3601.79C3672.13 2237.41 3736.41 2277.21 3767.77 2340.18L3901.91 2609.61H4496.15Z" stroke="#573240" stroke-width="5" stroke-miterlimit="10" stroke-linecap="round"/>
<path d="M3901.91 2609.61L3767.77 2340.19C3736.41 2277.22 3672.13 2237.41 3601.79 2237.41H2729.95C2659.61 2237.41 2595.33 2277.22 2563.97 2340.19L2429.83 2609.61H3901.91Z" stroke="#573240" stroke-width="5" stroke-miterlimit="10" stroke-linecap="round"/>
<path d="M3331.89 2237.41H2904.64V2442.42H3331.89V2237.41Z" fill="#573240"/>
<path d="M3901.91 2610.84L3767.76 2880.27C3736.41 2943.24 3672.13 2983.04 3601.79 2983.04H2729.95C2659.61 2983.04 2595.32 2943.24 2563.97 2880.27L2429.83 2610.84H3901.91Z" fill="white"/>
<path d="M4496.15 2609.61L4362.01 2879.03C4330.65 2942 4266.38 2981.81 4196.03 2981.81H3601.79C3672.13 2981.81 3736.41 2942 3767.77 2879.03L3901.91 2609.61H4496.15Z" fill="white"/>
<path d="M4496.15 2609.6L4362.01 2879.03C4330.65 2942 4266.37 2981.8 4196.03 2981.8H2729.95C2659.6 2981.8 2595.32 2942 2563.97 2879.03L2429.83 2609.6H4496.15Z" fill="white"/>
<path d="M4362.01 2879.03C4330.66 2942 4266.38 2981.81 4196.03 2981.81H3601.79C3672.13 2981.81 3736.41 2942 3767.77 2879.03L3901.91 2609.61" stroke="#573240" stroke-width="5" stroke-miterlimit="10" stroke-linecap="round"/>
<path d="M3901.91 2609.61L3767.77 2879.03C3736.41 2942 3672.13 2981.81 3601.79 2981.81H2692.89" stroke="#573240" stroke-width="5" stroke-miterlimit="10" stroke-linecap="round"/>
<path d="M2387.38 2610.84H4538.6" stroke="#573240" stroke-width="5" stroke-miterlimit="10" stroke-linecap="round"/>
<path d="M3156.03 2370.12H3119.26V2333.35C3119.26 2295.19 3150.2 2264.25 3188.37 2264.25H3225.13V2301.02C3225.13 2339.18 3194.19 2370.12 3156.03 2370.12Z" stroke="#A9D8D5" stroke-width="4" stroke-miterlimit="10"/>
<path d="M3225.13 2264.25L3094.94 2394.45" stroke="#A9D8D5" stroke-width="4" stroke-miterlimit="10"/>
<path d="M3185.69 2265.48V2303.69H3223.9" stroke="#A9D8D5" stroke-width="4" stroke-miterlimit="10"/>
<path d="M3149.45 2276.84V2339.93H3212.54" stroke="#A9D8D5" stroke-width="4" stroke-miterlimit="10"/>
<path d="M3088.16 2372.78H3097.81V2363.13C3097.81 2324.97 3066.87 2294.03 3028.7 2294.03H3019.05V2303.68C3019.05 2341.84 3049.99 2372.78 3088.16 2372.78Z" stroke="#A9D8D5" stroke-width="4" stroke-miterlimit="10"/>
<path d="M3019.05 2294.03L3107.2 2382.18" stroke="#A9D8D5" stroke-width="4" stroke-miterlimit="10"/>
<path d="M3069.17 2307.1V2344.15H3032.13" stroke="#A9D8D5" stroke-width="4" stroke-miterlimit="10"/>
<path d="M4055.22 1959.31L3960.34 2149.89C3934.62 2201.53 3881.9 2234.18 3824.2 2234.18H3572.68C3630.38 2234.18 3683.1 2201.53 3708.81 2149.89L3803.69 1959.31H4055.22V1959.31Z" fill="#573240"/>
<path d="M3803.69 1959.31L3793.6 1979.58L3708.81 2149.89C3683.1 2201.53 3630.38 2234.18 3572.68 2234.18H3212.27C3154.58 2234.18 3101.86 2201.53 3076.14 2149.89L2991.35 1979.58L2981.26 1959.31H3803.69V1959.31Z" fill="#FF6E00"/>
<path d="M3803.69 1959.31L3788.87 1989.42H2996.5L2981.26 1959.31H3803.69Z" fill="#573240"/>
<path d="M4090.77 1959.32L3976.73 1730.27C3950.07 1676.73 3895.42 1642.89 3835.62 1642.89H3574.45C3634.25 1642.89 3688.9 1676.73 3715.56 1730.27L3829.6 1959.32H4090.77Z" fill="#FCD4D0"/>
<path d="M3829.6 1959.32L3715.56 1730.27C3688.9 1676.73 3634.25 1642.89 3574.45 1642.89H3200.86C3141.06 1642.89 3086.41 1676.73 3059.76 1730.27L2945.71 1959.32H3829.6Z" fill="white"/>
<path d="M1870.21 1726.8L1786.13 2458.35H640.887L727.145 1707.85H1853.32C1863.48 1707.85 1871.37 1716.71 1870.21 1726.8Z" fill="#F6ACC1"/>
<path d="M1697.33 1707.85C1683.74 1707.85 1672.32 1718.04 1670.76 1731.54L1662.07 1807.14C1655.29 1866.13 1605.35 1910.66 1545.97 1910.66H635.996C566.165 1910.66 511.92 1849.82 519.895 1780.45L526.156 1725.98C527.343 1715.65 536.091 1707.85 546.491 1707.85H1697.33Z" fill="#FCD4D0"/>
<path d="M1342.84 2965.47C1539.79 2965.47 1699.45 2802.66 1699.45 2601.82C1699.45 2400.98 1539.79 2238.17 1342.84 2238.17C1145.89 2238.17 986.227 2400.98 986.227 2601.82C986.227 2802.66 1145.89 2965.47 1342.84 2965.47Z" fill="#573240"/>
<path d="M1279.83 2238.17C1082.88 2238.17 923.213 2400.99 923.213 2601.82C923.213 2802.66 1082.88 2965.47 1279.83 2965.47C1476.79 2965.47 1636.44 2802.66 1636.44 2601.82C1636.44 2400.99 1476.79 2238.17 1279.83 2238.17ZM1279.83 2726.96C1213.53 2726.96 1159.79 2672.14 1159.79 2604.54C1159.79 2536.93 1213.53 2482.12 1279.83 2482.12C1346.13 2482.12 1399.88 2536.93 1399.88 2604.54C1399.88 2672.14 1346.13 2726.96 1279.83 2726.96Z" fill="#A9D8D5"/>
<path d="M1332.49 2302.4H1302.05C1298.65 2302.4 1295.9 2299.65 1295.9 2296.25V2295.83C1295.9 2292.44 1298.65 2289.69 1302.05 2289.69H1332.49C1335.88 2289.69 1338.64 2292.44 1338.64 2295.83V2296.25C1338.64 2299.65 1335.88 2302.4 1332.49 2302.4Z" fill="white"/>
<path d="M1381.55 2432.51H1351.11C1347.71 2432.51 1344.96 2429.75 1344.96 2426.36V2425.94C1344.96 2422.54 1347.71 2419.79 1351.11 2419.79H1381.55C1384.95 2419.79 1387.7 2422.54 1387.7 2425.94V2426.36C1387.7 2429.75 1384.95 2432.51 1381.55 2432.51Z" fill="#573240"/>
<path d="M1127.55 2354.92L1101.81 2371.18C1098.94 2372.99 1095.14 2372.13 1093.33 2369.26L1093.1 2368.91C1091.29 2366.03 1092.15 2362.24 1095.02 2360.42L1120.76 2344.17C1123.63 2342.36 1127.43 2343.22 1129.24 2346.09L1129.46 2346.44C1131.28 2349.31 1130.42 2353.11 1127.55 2354.92Z" fill="white"/>
<path d="M1523.99 2416.86L1507.38 2442.37C1505.53 2445.22 1501.72 2446.02 1498.87 2444.17L1498.52 2443.94C1495.67 2442.09 1494.87 2438.28 1496.72 2435.43L1513.33 2409.92C1515.19 2407.08 1518.99 2406.27 1521.84 2408.13L1522.19 2408.36C1525.04 2410.21 1525.84 2414.02 1523.99 2416.86Z" fill="white"/>
<path d="M1269.47 2413.22L1243.73 2429.48C1240.85 2431.29 1237.06 2430.43 1235.24 2427.56L1235.02 2427.21C1233.21 2424.34 1234.07 2420.54 1236.94 2418.73L1262.68 2402.47C1265.55 2400.66 1269.34 2401.52 1271.16 2404.39L1271.38 2404.74C1273.19 2407.61 1272.34 2411.41 1269.47 2413.22Z" fill="white"/>
<path d="M1204.56 2328.74L1186.82 2304.01C1184.84 2301.25 1185.47 2297.41 1188.23 2295.43L1188.57 2295.18C1191.33 2293.2 1195.17 2293.83 1197.15 2296.59L1214.9 2321.33C1216.88 2324.09 1216.25 2327.93 1213.49 2329.91L1213.14 2330.15C1210.38 2332.13 1206.54 2331.5 1204.56 2328.74Z" fill="#573240"/>
<path d="M1450.98 2423.58L1433.24 2398.85C1431.26 2396.09 1431.89 2392.25 1434.65 2390.27L1434.99 2390.02C1437.75 2388.05 1441.59 2388.68 1443.57 2391.44L1461.32 2416.17C1463.29 2418.93 1462.66 2422.77 1459.9 2424.75L1459.56 2425C1456.8 2426.97 1452.96 2426.34 1450.98 2423.58Z" fill="#FF6E00"/>
<path d="M1068.57 2433.2L1044.9 2414.06C1042.26 2411.92 1041.85 2408.05 1043.99 2405.41L1044.25 2405.09C1046.39 2402.45 1050.26 2402.04 1052.9 2404.17L1076.57 2423.31C1079.21 2425.45 1079.62 2429.32 1077.48 2431.96L1077.22 2432.29C1075.08 2434.93 1071.21 2435.34 1068.57 2433.2Z" fill="#FF6E00"/>
<path d="M1435.77 2346.65L1412.1 2327.51C1409.46 2325.38 1409.05 2321.5 1411.19 2318.86L1411.45 2318.54C1413.59 2315.9 1417.46 2315.49 1420.1 2317.62L1443.77 2336.77C1446.41 2338.9 1446.82 2342.77 1444.68 2345.41L1444.42 2345.74C1442.28 2348.38 1438.41 2348.79 1435.77 2346.65Z" fill="white"/>
<path d="M1157.48 2425.81L1162.66 2395.81C1163.24 2392.47 1166.42 2390.22 1169.77 2390.8L1170.18 2390.87C1173.53 2391.45 1175.77 2394.63 1175.19 2397.98L1170.01 2427.97C1169.43 2431.32 1166.25 2433.56 1162.91 2432.99L1162.49 2432.91C1159.15 2432.34 1156.9 2429.16 1157.48 2425.81Z" fill="#F1B104"/>
<path d="M1120.53 2531.88L1125.71 2501.88C1126.29 2498.53 1129.47 2496.29 1132.82 2496.87L1133.23 2496.94C1136.58 2497.52 1138.83 2500.7 1138.25 2504.04L1133.06 2534.04C1132.49 2537.39 1129.3 2539.63 1125.96 2539.05L1125.54 2538.98C1122.2 2538.4 1119.95 2535.22 1120.53 2531.88Z" fill="#F1B104"/>
<path d="M1257.28 2353.17L1281.19 2334.33C1283.86 2332.23 1287.72 2332.68 1289.83 2335.35L1290.09 2335.68C1292.19 2338.35 1291.73 2342.21 1289.06 2344.32L1265.15 2363.16C1262.49 2365.26 1258.62 2364.8 1256.52 2362.13L1256.26 2361.8C1254.16 2359.14 1254.61 2355.27 1257.28 2353.17Z" fill="#FF6E00"/>
<path d="M1352.81 2367.07L1357.99 2337.07C1358.57 2333.73 1361.75 2331.48 1365.1 2332.06L1365.51 2332.13C1368.86 2332.71 1371.1 2335.89 1370.52 2339.24L1365.34 2369.23C1364.76 2372.58 1361.58 2374.82 1358.23 2374.24L1357.82 2374.17C1354.47 2373.59 1352.23 2370.41 1352.81 2367.07Z" fill="#F1B104"/>
<path d="M1495 2796.32L1513.11 2771.85C1515.13 2769.12 1518.98 2768.55 1521.71 2770.57L1522.04 2770.82C1524.77 2772.84 1525.35 2776.69 1523.33 2779.42L1505.22 2803.89C1503.2 2806.62 1499.35 2807.19 1496.62 2805.17L1496.28 2804.92C1493.55 2802.9 1492.98 2799.05 1495 2796.32Z" fill="white"/>
<path d="M1375.39 2749.91L1393.5 2725.44C1395.52 2722.72 1399.37 2722.14 1402.1 2724.16L1402.44 2724.41C1405.17 2726.43 1405.75 2730.28 1403.73 2733.01L1385.62 2757.48C1383.6 2760.21 1379.75 2760.78 1377.02 2758.76L1376.68 2758.51C1373.95 2756.49 1373.37 2752.64 1375.39 2749.91Z" fill="#573240"/>
<path d="M1574.69 2600.34L1576.94 2569.99C1577.19 2566.6 1580.14 2564.06 1583.53 2564.31L1583.95 2564.34C1587.33 2564.59 1589.88 2567.54 1589.62 2570.93L1587.38 2601.28C1587.13 2604.67 1584.18 2607.21 1580.79 2606.96L1580.37 2606.93C1576.98 2606.68 1574.44 2603.73 1574.69 2600.34Z" fill="white"/>
<path d="M1406.85 2504.77L1409.1 2474.41C1409.35 2471.03 1412.3 2468.48 1415.68 2468.73L1416.1 2468.76C1419.49 2469.02 1422.03 2471.96 1421.78 2475.35L1419.53 2505.71C1419.28 2509.1 1416.33 2511.64 1412.95 2511.39L1412.53 2511.36C1409.14 2511.11 1406.6 2508.16 1406.85 2504.77Z" fill="white"/>
<path d="M1306.91 2902.2L1296.29 2873.67C1295.1 2870.49 1296.72 2866.95 1299.9 2865.77L1300.3 2865.62C1303.48 2864.43 1307.02 2866.05 1308.2 2869.23L1318.83 2897.76C1320.01 2900.94 1318.39 2904.48 1315.21 2905.67L1314.82 2905.82C1311.63 2907 1308.1 2905.38 1306.91 2902.2Z" fill="white"/>
<path d="M1443.41 2679.74L1445.65 2649.38C1445.9 2645.99 1448.85 2643.45 1452.24 2643.7L1452.66 2643.73C1456.04 2643.98 1458.59 2646.93 1458.34 2650.32L1456.09 2680.68C1455.84 2684.06 1452.89 2686.61 1449.5 2686.36L1449.08 2686.32C1445.7 2686.07 1443.16 2683.12 1443.41 2679.74Z" fill="white"/>
<path d="M1549.93 2677.83L1580.36 2678.28C1583.76 2678.33 1586.47 2681.12 1586.42 2684.52L1586.41 2684.94C1586.36 2688.33 1583.57 2691.04 1580.17 2690.99L1549.74 2690.54C1546.34 2690.49 1543.63 2687.7 1543.68 2684.3L1543.69 2683.88C1543.74 2680.49 1546.53 2677.78 1549.93 2677.83Z" fill="#573240"/>
<path d="M1255.99 2781.29L1286.43 2781.74C1289.83 2781.79 1292.54 2784.58 1292.49 2787.98L1292.48 2788.4C1292.43 2791.79 1289.64 2794.5 1286.24 2794.46L1255.81 2794.01C1252.41 2793.95 1249.7 2791.16 1249.75 2787.77L1249.75 2787.35C1249.8 2783.95 1252.6 2781.24 1255.99 2781.29Z" fill="#573240"/>
<path d="M1327.1 2819.48L1357.54 2819.93C1360.93 2819.98 1363.64 2822.78 1363.59 2826.17L1363.59 2826.59C1363.54 2829.99 1360.74 2832.7 1357.35 2832.65L1326.91 2832.2C1323.52 2832.15 1320.8 2829.35 1320.85 2825.96L1320.86 2825.54C1320.91 2822.14 1323.7 2819.43 1327.1 2819.48Z" fill="#FF6E00"/>
<path d="M1546.85 2506.37L1576.32 2498.73C1579.61 2497.88 1582.97 2499.85 1583.82 2503.14L1583.92 2503.55C1584.78 2506.84 1582.8 2510.19 1579.51 2511.04L1550.05 2518.68C1546.76 2519.53 1543.4 2517.56 1542.55 2514.27L1542.45 2513.86C1541.59 2510.58 1543.57 2507.22 1546.85 2506.37Z" fill="#FF6E00"/>
<path d="M1443.53 2541.24L1473 2533.61C1476.29 2532.76 1479.64 2534.73 1480.49 2538.02L1480.6 2538.42C1481.45 2541.71 1479.48 2545.07 1476.19 2545.92L1446.72 2553.56C1443.44 2554.41 1440.08 2552.43 1439.23 2549.15L1439.12 2548.74C1438.27 2545.45 1440.24 2542.1 1443.53 2541.24Z" fill="#FF6E00"/>
<path d="M1397.99 2853.02L1427.45 2845.38C1430.74 2844.53 1434.1 2846.5 1434.95 2849.79L1435.05 2850.2C1435.91 2853.48 1433.93 2856.84 1430.65 2857.69L1401.18 2865.33C1397.89 2866.18 1394.53 2864.21 1393.68 2860.92L1393.58 2860.51C1392.73 2857.22 1394.7 2853.87 1397.99 2853.02Z" fill="white"/>
<path d="M1499.91 2582.24L1520.94 2604.25C1523.28 2606.7 1523.19 2610.59 1520.74 2612.94L1520.43 2613.23C1517.98 2615.58 1514.09 2615.49 1511.74 2613.03L1490.71 2591.02C1488.37 2588.57 1488.45 2584.68 1490.91 2582.33L1491.21 2582.04C1493.67 2579.69 1497.56 2579.78 1499.91 2582.24Z" fill="#F1B104"/>
<path d="M1498.93 2705.67L1499.85 2736.1C1499.95 2739.49 1497.28 2742.33 1493.89 2742.43L1493.47 2742.44C1490.08 2742.55 1487.24 2739.88 1487.14 2736.48L1486.22 2706.06C1486.11 2702.66 1488.78 2699.83 1492.18 2699.72L1492.6 2699.71C1495.99 2699.61 1498.83 2702.28 1498.93 2705.67Z" fill="#FF6E00"/>
<path d="M1430.93 2774.19L1451.96 2796.2C1454.3 2798.66 1454.22 2802.55 1451.76 2804.89L1451.46 2805.18C1449 2807.53 1445.11 2807.44 1442.76 2804.98L1421.73 2782.97C1419.39 2780.52 1419.48 2776.63 1421.93 2774.28L1422.24 2773.99C1424.69 2771.65 1428.58 2771.73 1430.93 2774.19Z" fill="#F1B104"/>
<path d="M1008.32 2692.92L1021.72 2720.25C1023.21 2723.3 1021.96 2726.99 1018.91 2728.48L1018.53 2728.67C1015.48 2730.16 1011.8 2728.9 1010.3 2725.85L996.897 2698.52C995.403 2695.47 996.662 2691.79 999.711 2690.3L1000.09 2690.11C1003.14 2688.62 1006.82 2689.87 1008.32 2692.92Z" fill="white"/>
<path d="M1104.52 2608.05L1117.92 2635.38C1119.42 2638.43 1118.16 2642.12 1115.11 2643.61L1114.73 2643.8C1111.68 2645.29 1108 2644.03 1106.5 2640.98L1093.1 2613.65C1091.61 2610.6 1092.87 2606.92 1095.91 2605.42L1096.29 2605.24C1099.34 2603.74 1103.03 2605 1104.52 2608.05Z" fill="#573240"/>
<path d="M1145.71 2853.8L1171.63 2869.76C1174.52 2871.54 1175.43 2875.32 1173.65 2878.22L1173.43 2878.58C1171.65 2881.47 1167.86 2882.37 1164.97 2880.59L1139.04 2864.63C1136.15 2862.86 1135.25 2859.07 1137.03 2856.18L1137.25 2855.82C1139.03 2852.93 1142.81 2852.02 1145.71 2853.8Z" fill="white"/>
<path d="M1010.89 2475.06L1041.11 2478.74C1044.48 2479.15 1046.88 2482.21 1046.47 2485.58L1046.42 2486C1046 2489.37 1042.94 2491.77 1039.57 2491.36L1009.35 2487.68C1005.98 2487.27 1003.58 2484.2 1003.99 2480.83L1004.04 2480.41C1004.45 2477.04 1007.52 2474.65 1010.89 2475.06Z" fill="white"/>
<path d="M1135.57 2700.71L1161.49 2716.67C1164.38 2718.45 1165.29 2722.23 1163.51 2725.13L1163.29 2725.49C1161.51 2728.38 1157.72 2729.28 1154.83 2727.5L1128.9 2711.54C1126.01 2709.76 1125.11 2705.98 1126.89 2703.09L1127.11 2702.73C1128.89 2699.84 1132.67 2698.93 1135.57 2700.71Z" fill="white"/>
<path d="M1088.29 2796.18L1073.89 2823.01C1072.29 2826 1068.56 2827.12 1065.57 2825.52L1065.2 2825.32C1062.21 2823.71 1061.08 2819.98 1062.69 2816.99L1077.08 2790.17C1078.69 2787.18 1082.41 2786.05 1085.41 2787.66L1085.78 2787.86C1088.77 2789.46 1089.89 2793.19 1088.29 2796.18Z" fill="#573240"/>
<path d="M1064.95 2533.18L1050.55 2560C1048.95 2562.99 1045.22 2564.12 1042.23 2562.51L1041.86 2562.31C1038.86 2560.7 1037.74 2556.98 1039.35 2553.99L1053.74 2527.16C1055.35 2524.17 1059.07 2523.05 1062.07 2524.65L1062.44 2524.85C1065.43 2526.46 1066.55 2530.18 1064.95 2533.18Z" fill="#FF6E00"/>
<path d="M1241.96 2872.29L1235.19 2901.97C1234.44 2905.28 1231.14 2907.35 1227.83 2906.6L1227.42 2906.5C1224.11 2905.75 1222.04 2902.45 1222.79 2899.14L1229.56 2869.46C1230.31 2866.15 1233.61 2864.08 1236.92 2864.84L1237.33 2864.93C1240.64 2865.68 1242.71 2868.98 1241.96 2872.29Z" fill="#FF6E00"/>
<path d="M994.104 2572.21L987.338 2601.89C986.583 2605.2 983.287 2607.27 979.976 2606.52L979.566 2606.42C976.255 2605.67 974.183 2602.37 974.938 2599.06L981.704 2569.38C982.459 2566.07 985.755 2564 989.066 2564.75L989.476 2564.85C992.787 2565.6 994.859 2568.9 994.104 2572.21Z" fill="white"/>
<path d="M1196.17 2795.72L1166.96 2804.27C1163.7 2805.23 1160.28 2803.36 1159.33 2800.1L1159.21 2799.7C1158.26 2796.44 1160.12 2793.02 1163.38 2792.07L1192.6 2783.51C1195.86 2782.56 1199.27 2784.43 1200.23 2787.69L1200.35 2788.09C1201.3 2791.35 1199.43 2794.76 1196.17 2795.72Z" fill="#F1B104"/>
<path d="M1087.01 2738.1L1059.56 2724.92C1056.5 2723.45 1055.21 2719.78 1056.68 2716.72L1056.86 2716.34C1058.33 2713.28 1062.01 2711.99 1065.07 2713.46L1092.51 2726.63C1095.57 2728.1 1096.86 2731.77 1095.39 2734.83L1095.21 2735.21C1093.74 2738.27 1090.07 2739.56 1087.01 2738.1Z" fill="#FF6E00"/>
<path d="M1059.77 2632.22L1018.76 2644.23L1022.33 2656.43L1063.35 2644.42L1059.77 2632.22Z" fill="#F1B104"/>
<path d="M540.816 2070.58C334.351 2070.58 166.974 2241.26 166.974 2451.79C166.974 2662.34 334.351 2833.02 540.816 2833.02C747.282 2833.02 914.659 2662.34 914.659 2451.79C914.659 2241.26 747.282 2070.58 540.816 2070.58ZM540.816 2570.15C478.264 2570.15 427.544 2518.44 427.544 2454.65C427.544 2390.85 478.265 2339.13 540.816 2339.13C603.38 2339.13 654.1 2390.85 654.1 2454.65C654.1 2518.44 603.38 2570.15 540.816 2570.15Z" fill="#573240"/>
<path d="M490.164 2070.58C283.698 2070.58 116.322 2241.26 116.322 2451.79C116.322 2662.34 283.698 2833.02 490.164 2833.02C696.63 2833.02 864.006 2662.34 864.006 2451.79C864.006 2241.26 696.63 2070.58 490.164 2070.58ZM490.164 2582.97C420.671 2582.97 364.323 2525.52 364.323 2454.65C364.323 2383.77 420.671 2326.31 490.164 2326.31C559.669 2326.31 616.018 2383.77 616.018 2454.65C616.018 2525.52 559.669 2582.97 490.164 2582.97Z" fill="#FF6E00"/>
<path d="M539.847 2149.11H506.477C503.081 2149.11 500.328 2146.36 500.328 2142.96V2141.67C500.328 2138.27 503.081 2135.52 506.477 2135.52H539.848C543.245 2135.52 545.997 2138.27 545.997 2141.67V2142.96C545.996 2146.36 543.243 2149.11 539.847 2149.11Z" fill="white"/>
<path d="M736.992 2430.84H703.621C700.225 2430.84 697.473 2428.09 697.473 2424.69V2423.4C697.473 2420 700.225 2417.25 703.621 2417.25H736.992C740.388 2417.25 743.14 2420 743.14 2423.4V2424.69C743.14 2428.08 740.388 2430.84 736.992 2430.84Z" fill="#A9D8D5"/>
<path d="M812.279 2389.69L780.248 2399.05C776.988 2400.01 773.574 2398.14 772.621 2394.88L772.259 2393.64C771.307 2390.38 773.177 2386.96 776.436 2386.01L808.467 2376.65C811.726 2375.7 815.141 2377.57 816.094 2380.83L816.456 2382.07C817.408 2385.33 815.538 2388.74 812.279 2389.69Z" fill="#573240"/>
<path d="M320.264 2418.69H286.892C283.496 2418.69 280.744 2415.94 280.744 2412.54V2411.25C280.744 2407.85 283.496 2405.1 286.892 2405.1H320.264C323.66 2405.1 326.413 2407.85 326.413 2411.25V2412.54C326.413 2415.93 323.66 2418.69 320.264 2418.69Z" fill="white"/>
<path d="M682.107 2377.57L650.009 2368.44C646.743 2367.51 644.849 2364.11 645.778 2360.85L646.131 2359.6C647.06 2356.34 650.461 2354.44 653.728 2355.37L685.826 2364.5C689.092 2365.43 690.986 2368.83 690.057 2372.1L689.704 2373.34C688.773 2376.61 685.372 2378.5 682.107 2377.57Z" fill="#F1B104"/>
<path d="M219.424 2326.31H186.052C182.656 2326.31 179.904 2323.56 179.904 2320.16V2318.87C179.904 2315.47 182.656 2312.72 186.052 2312.72H219.424C222.82 2312.72 225.573 2315.47 225.573 2318.87V2320.16C225.571 2323.56 222.819 2326.31 219.424 2326.31Z" fill="#F1B104"/>
<path d="M576.012 2278.7H542.64C539.244 2278.7 536.492 2275.94 536.492 2272.55V2271.26C536.492 2267.86 539.244 2265.11 542.64 2265.11H576.012C579.408 2265.11 582.161 2267.86 582.161 2271.26V2272.55C582.161 2275.94 579.407 2278.7 576.012 2278.7Z" fill="#573240"/>
<path d="M735.876 2244.13L706.976 2227.44C704.035 2225.74 703.027 2221.98 704.725 2219.04L705.371 2217.92C707.068 2214.98 710.829 2213.97 713.771 2215.67L742.671 2232.36C745.611 2234.05 746.62 2237.81 744.922 2240.76L744.276 2241.88C742.578 2244.82 738.818 2245.82 735.876 2244.13Z" fill="#F6ACC1"/>
<path d="M338.469 2208.66L310.253 2226.48C307.382 2228.29 303.584 2227.43 301.772 2224.56L301.081 2223.47C299.267 2220.6 300.126 2216.8 302.997 2214.99L331.213 2197.17C334.084 2195.36 337.882 2196.22 339.695 2199.09L340.385 2200.18C342.199 2203.05 341.34 2206.85 338.469 2208.66Z" fill="white"/>
<path d="M759.921 2295.55L741.711 2323.52C739.858 2326.36 736.049 2327.17 733.204 2325.31L732.12 2324.61C729.275 2322.75 728.47 2318.95 730.323 2316.1L748.533 2288.14C750.386 2285.29 754.195 2284.48 757.04 2286.34L758.124 2287.04C760.969 2288.9 761.775 2292.7 759.921 2295.55Z" fill="white"/>
<path d="M485.641 2280.5L457.425 2298.32C454.554 2300.14 450.756 2299.28 448.944 2296.41L448.253 2295.31C446.44 2292.44 447.298 2288.64 450.17 2286.83L478.386 2269.01C481.257 2267.2 485.055 2268.06 486.867 2270.93L487.558 2272.02C489.37 2274.89 488.513 2278.69 485.641 2280.5Z" fill="white"/>
<path d="M392.334 2274.92L380.798 2243.61C379.624 2240.42 381.255 2236.89 384.441 2235.71L385.654 2235.27C388.84 2234.09 392.375 2235.72 393.55 2238.91L405.086 2270.22C406.26 2273.41 404.629 2276.94 401.443 2278.12L400.23 2278.57C397.044 2279.74 393.509 2278.11 392.334 2274.92Z" fill="#F1B104"/>
<path d="M402.98 2177.59L383.527 2150.48C381.547 2147.72 382.179 2143.88 384.939 2141.9L385.989 2141.15C388.748 2139.17 392.59 2139.8 394.569 2142.56L414.022 2169.67C416.001 2172.43 415.37 2176.27 412.61 2178.25L411.56 2179.01C408.8 2180.98 404.959 2180.35 402.98 2177.59Z" fill="#573240"/>
<path d="M686.037 2296.21L666.584 2269.1C664.605 2266.34 665.236 2262.5 667.996 2260.52L669.047 2259.77C671.805 2257.79 675.647 2258.42 677.627 2261.18L697.08 2288.29C699.059 2291.05 698.428 2294.89 695.668 2296.87L694.618 2297.63C691.858 2299.61 688.017 2298.97 686.037 2296.21Z" fill="#573240"/>
<path d="M257.746 2278.39L231.799 2257.4C229.159 2255.27 228.75 2251.4 230.885 2248.76L231.698 2247.75C233.834 2245.11 237.704 2244.7 240.345 2246.84L266.291 2267.82C268.931 2269.96 269.34 2273.83 267.205 2276.47L266.392 2277.47C264.258 2280.11 260.386 2280.52 257.746 2278.39Z" fill="#A9D8D5"/>
<path d="M650.115 2196.66L624.168 2175.67C621.528 2173.54 621.119 2169.67 623.254 2167.03L624.067 2166.02C626.203 2163.38 630.074 2162.97 632.715 2165.11L658.662 2186.09C661.302 2188.23 661.711 2192.1 659.576 2194.74L658.763 2195.74C656.627 2198.38 652.755 2198.79 650.115 2196.66Z" fill="#F1B104"/>
<path d="M200.744 2421.6L180.09 2395.39C177.989 2392.72 178.447 2388.86 181.114 2386.75L182.13 2385.96C184.797 2383.85 188.663 2384.31 190.765 2386.98L211.419 2413.19C213.521 2415.86 213.063 2419.72 210.395 2421.83L209.38 2422.63C206.711 2424.73 202.845 2424.27 200.744 2421.6Z" fill="#A9D8D5"/>
<path d="M316.719 2317.34L322.401 2284.45C322.979 2281.11 326.16 2278.86 329.507 2279.44L330.781 2279.66C334.128 2280.24 336.371 2283.42 335.793 2286.77L330.111 2319.65C329.533 2323 326.352 2325.24 323.005 2324.66L321.731 2324.44C318.385 2323.86 316.141 2320.68 316.719 2317.34Z" fill="#F6ACC1"/>
<path d="M445.533 2216.82L471.744 2196.16C474.411 2194.06 478.277 2194.52 480.38 2197.19L481.179 2198.2C483.28 2200.87 482.822 2204.73 480.155 2206.84L453.944 2227.49C451.276 2229.59 447.411 2229.13 445.308 2226.47L444.509 2225.45C442.407 2222.78 442.866 2218.92 445.533 2216.82Z" fill="#A9D8D5"/>
<path d="M241.63 2368.84L267.841 2348.19C270.508 2346.09 274.373 2346.54 276.476 2349.21L277.276 2350.23C279.377 2352.89 278.919 2356.76 276.251 2358.86L250.04 2379.52C247.373 2381.62 243.507 2381.16 241.405 2378.49L240.605 2377.48C238.504 2374.81 238.962 2370.94 241.63 2368.84Z" fill="#573240"/>
<path d="M561.068 2218.62L566.75 2185.74C567.328 2182.39 570.509 2180.15 573.856 2180.73L575.13 2180.95C578.476 2181.52 580.72 2184.7 580.142 2188.05L574.46 2220.93C573.882 2224.28 570.7 2226.53 567.354 2225.95L566.08 2225.73C562.733 2225.15 560.49 2221.97 561.068 2218.62Z" fill="#F6ACC1"/>
<path d="M600.42 2320.58L622.635 2295.67C624.895 2293.14 628.782 2292.92 631.316 2295.18L632.281 2296.04C634.815 2298.3 635.037 2302.19 632.776 2304.72L610.562 2329.62C608.301 2332.16 604.414 2332.38 601.881 2330.12L600.916 2329.26C598.382 2327 598.159 2323.11 600.42 2320.58Z" fill="#A9D8D5"/>
<path d="M445.699 2760.56L479.066 2761.07C482.461 2761.12 485.172 2763.91 485.12 2767.31L485.1 2768.6C485.048 2772 482.253 2774.7 478.858 2774.65L445.492 2774.14C442.097 2774.09 439.386 2771.3 439.438 2767.9L439.458 2766.61C439.51 2763.22 442.305 2760.5 445.699 2760.56Z" fill="white"/>
<path d="M252.875 2475.85L286.242 2476.36C289.637 2476.41 292.347 2479.21 292.295 2482.6L292.276 2483.9C292.224 2487.29 289.429 2490 286.034 2489.95L252.668 2489.44C249.273 2489.39 246.562 2486.6 246.614 2483.2L246.634 2481.91C246.684 2478.51 249.479 2475.8 252.875 2475.85Z" fill="#A9D8D5"/>
<path d="M176.969 2515.84L209.14 2506.97C212.414 2506.07 215.799 2507.99 216.702 2511.27L217.045 2512.51C217.948 2515.79 216.026 2519.17 212.752 2520.08L180.581 2528.95C177.307 2529.85 173.922 2527.93 173.019 2524.65L172.676 2523.41C171.774 2520.13 173.696 2516.75 176.969 2515.84Z" fill="#573240"/>
<path d="M669.37 2494.36L702.736 2494.87C706.131 2494.92 708.842 2497.71 708.79 2501.11L708.77 2502.4C708.718 2505.8 705.924 2508.51 702.529 2508.45L669.162 2507.95C665.767 2507.89 663.057 2505.1 663.109 2501.7L663.128 2500.41C663.179 2497.02 665.974 2494.31 669.37 2494.36Z" fill="white"/>
<path d="M306.941 2529.95L338.896 2539.57C342.147 2540.55 343.991 2543.97 343.011 2547.23L342.638 2548.46C341.659 2551.72 338.23 2553.56 334.978 2552.58L303.024 2542.96C299.772 2541.98 297.929 2538.55 298.908 2535.3L299.282 2534.06C300.26 2530.81 303.69 2528.97 306.941 2529.95Z" fill="#F1B104"/>
<path d="M768.789 2588.26L802.155 2588.77C805.55 2588.83 808.261 2591.62 808.209 2595.01L808.189 2596.31C808.137 2599.7 805.343 2602.41 801.948 2602.36L768.581 2601.85C765.186 2601.8 762.476 2599.01 762.528 2595.61L762.547 2594.32C762.599 2590.92 765.394 2588.21 768.789 2588.26Z" fill="#F1B104"/>
<path d="M411.516 2630.43L444.883 2630.94C448.278 2630.99 450.988 2633.79 450.936 2637.18L450.917 2638.47C450.865 2641.87 448.07 2644.58 444.675 2644.53L411.309 2644.02C407.914 2643.97 405.203 2641.17 405.255 2637.78L405.275 2636.49C405.327 2633.09 408.12 2630.38 411.516 2630.43Z" fill="#573240"/>
<path d="M251.142 2662.56L279.785 2679.68C282.699 2681.43 283.649 2685.2 281.907 2688.12L281.244 2689.23C279.5 2692.14 275.726 2693.09 272.81 2691.35L244.168 2674.22C241.254 2672.48 240.304 2668.71 242.046 2665.79L242.709 2664.68C244.452 2661.77 248.228 2660.82 251.142 2662.56Z" fill="#F6ACC1"/>
<path d="M647.962 2704.08L676.447 2686.7C679.346 2684.93 683.13 2685.84 684.899 2688.74L685.572 2689.84C687.341 2692.74 686.426 2696.53 683.528 2698.3L655.042 2715.68C652.144 2717.45 648.36 2716.53 646.591 2713.64L645.917 2712.53C644.148 2709.63 645.064 2705.85 647.962 2704.08Z" fill="white"/>
<path d="M227.885 2610.78L246.519 2583.09C248.415 2580.27 252.236 2579.53 255.053 2581.42L256.126 2582.15C258.942 2584.04 259.69 2587.86 257.793 2590.68L239.159 2618.36C237.263 2621.18 233.442 2621.93 230.625 2620.03L229.553 2619.31C226.736 2617.41 225.988 2613.59 227.885 2610.78Z" fill="white"/>
<path d="M501.903 2630L530.388 2612.62C533.287 2610.85 537.071 2611.77 538.84 2614.66L539.513 2615.77C541.282 2618.67 540.367 2622.45 537.469 2624.22L508.983 2641.6C506.085 2643.37 502.301 2642.46 500.532 2639.56L499.858 2638.46C498.089 2635.56 499.005 2631.77 501.903 2630Z" fill="white"/>
<path d="M595.114 2637.01L606.172 2668.49C607.298 2671.7 605.612 2675.21 602.408 2676.33L601.188 2676.76C597.985 2677.89 594.475 2676.2 593.349 2673L582.291 2641.51C581.166 2638.31 582.851 2634.8 586.055 2633.67L587.275 2633.24C590.48 2632.12 593.988 2633.8 595.114 2637.01Z" fill="#F1B104"/>
<path d="M582.986 2734.16L602.022 2761.57C603.96 2764.36 603.269 2768.19 600.481 2770.13L599.419 2770.87C596.63 2772.8 592.799 2772.11 590.862 2769.32L571.825 2741.92C569.888 2739.13 570.578 2735.29 573.367 2733.36L574.428 2732.62C577.217 2730.68 581.049 2731.37 582.986 2734.16Z" fill="#573240"/>
<path d="M301.77 2611.24L320.807 2638.65C322.744 2641.44 322.054 2645.27 319.265 2647.2L318.204 2647.94C315.414 2649.88 311.583 2649.19 309.646 2646.4L290.609 2618.99C288.672 2616.2 289.363 2612.37 292.151 2610.43L293.212 2609.69C296.002 2607.76 299.833 2608.45 301.77 2611.24Z" fill="#573240"/>
<path d="M729.741 2635.6L755.365 2656.97C757.973 2659.15 758.322 2663.03 756.147 2665.64L755.319 2666.63C753.144 2669.24 749.267 2669.58 746.659 2667.41L721.035 2646.03C718.427 2643.85 718.077 2639.98 720.253 2637.37L721.08 2636.38C723.256 2633.77 727.133 2633.42 729.741 2635.6Z" fill="#A9D8D5"/>
<path d="M336.17 2711.33L361.794 2732.71C364.402 2734.89 364.752 2738.76 362.577 2741.37L361.749 2742.36C359.573 2744.97 355.696 2745.32 353.088 2743.14L327.464 2721.76C324.856 2719.59 324.507 2715.71 326.682 2713.1L327.51 2712.11C329.686 2709.51 333.562 2709.16 336.17 2711.33Z" fill="#F1B104"/>
<path d="M788.92 2493.27L809.172 2519.79C811.233 2522.49 810.716 2526.35 808.017 2528.41L806.991 2529.19C804.291 2531.26 800.433 2530.74 798.372 2528.04L778.12 2501.52C776.059 2498.82 776.577 2494.96 779.275 2492.9L780.302 2492.11C783 2490.05 786.859 2490.57 788.92 2493.27Z" fill="#A9D8D5"/>
<path d="M671.368 2595.75L665.184 2628.55C664.555 2631.88 661.34 2634.08 658.003 2633.45L656.733 2633.21C653.396 2632.58 651.2 2629.36 651.829 2626.03L658.012 2593.23C658.641 2589.9 661.857 2587.7 665.194 2588.33L666.464 2588.57C669.802 2589.2 671.998 2592.41 671.368 2595.75Z" fill="#F6ACC1"/>
<path d="M541.035 2694.3L514.512 2714.55C511.813 2716.61 507.954 2716.09 505.894 2713.39L505.109 2712.37C503.048 2709.67 503.566 2705.81 506.264 2703.75L532.788 2683.5C535.487 2681.44 539.345 2681.95 541.406 2684.65L542.191 2685.68C544.253 2688.38 543.735 2692.24 541.035 2694.3Z" fill="#A9D8D5"/>
<path d="M747.234 2545.4L720.711 2565.65C718.011 2567.71 714.153 2567.19 712.092 2564.5L711.308 2563.47C709.247 2560.77 709.765 2556.91 712.463 2554.85L738.986 2534.6C741.686 2532.54 745.544 2533.05 747.605 2535.75L748.389 2536.78C750.451 2539.48 749.934 2543.34 747.234 2545.4Z" fill="#573240"/>
<path d="M425.542 2690.73L419.358 2723.52C418.73 2726.86 415.514 2729.05 412.177 2728.43L410.907 2728.19C407.57 2727.56 405.375 2724.34 406.003 2721L412.187 2688.21C412.816 2684.87 416.031 2682.68 419.368 2683.31L420.638 2683.55C423.975 2684.18 426.171 2687.39 425.542 2690.73Z" fill="#F6ACC1"/>
<path d="M387.749 2588.19L365.158 2612.75C362.859 2615.25 358.97 2615.41 356.47 2613.11L355.519 2612.23C353.02 2609.94 352.857 2606.05 355.156 2603.55L377.747 2578.99C380.046 2576.49 383.935 2576.32 386.435 2578.62L387.386 2579.5C389.885 2581.8 390.048 2585.69 387.749 2588.19Z" fill="#A9D8D5"/>
<path d="M1669.38 1743.64L1668.38 1752.29H523.13L524.131 1743.64H1669.38Z" fill="#FDE5E3"/>
<path d="M1649.22 1848.58C1647.66 1851.54 1645.95 1854.42 1644.15 1857.22H537.832C536.016 1854.42 534.311 1851.53 532.742 1848.58H1649.22Z" fill="#FDE5E3"/>
<path d="M1663.35 1796.11L1662.35 1804.76H519.622C519.35 1801.9 519.19 1799.02 519.14 1796.11H1663.35Z" fill="#FDE5E3"/>
<path d="M1785.32 2458.36H1316.7V2983.05H1785.32V2458.36Z" fill="#F6ACC1"/>
<path d="M1316.7 2458.36H38V2983.05H1316.7V2458.36Z" fill="#FCD4D0"/>
<path d="M1317.27 2506.5H38V2515.15H1317.27V2506.5Z" fill="#FDE5E3"/>
<path d="M1316.7 2558.97H38V2567.62H1316.7V2558.97Z" fill="#FDE5E3"/>
<path d="M1316.7 2611.44H38V2620.09H1316.7V2611.44Z" fill="#FDE5E3"/>
<path d="M1316.7 2663.91H38V2672.56H1316.7V2663.91Z" fill="#FDE5E3"/>
<path d="M1316.7 2716.38H38V2725.02H1316.7V2716.38Z" fill="#FDE5E3"/>
<path d="M1316.7 2768.85H38V2777.49H1316.7V2768.85Z" fill="#FDE5E3"/>
<path d="M1316.7 2873.78H38V2882.43H1316.7V2873.78Z" fill="#FDE5E3"/>
<path d="M1316.7 2821.32H38V2829.96H1316.7V2821.32Z" fill="#FDE5E3"/>
<path d="M1316.7 2926.25H38V2934.9H1316.7V2926.25Z" fill="#FDE5E3"/>
<path d="M1785.32 2506.5H1317.27V2515.15H1785.32V2506.5Z" fill="#FABFD6"/>
<path d="M1785.32 2558.97H1316.7V2567.62H1785.32V2558.97Z" fill="#FABFD6"/>
<path d="M1785.32 2611.44H1316.7V2620.09H1785.32V2611.44Z" fill="#FABFD6"/>
<path d="M1785.32 2663.91H1316.7V2672.56H1785.32V2663.91Z" fill="#FABFD6"/>
<path d="M1785.32 2716.38H1316.7V2725.02H1785.32V2716.38Z" fill="#FABFD6"/>
<path d="M1785.32 2768.85H1316.7V2777.49H1785.32V2768.85Z" fill="#FABFD6"/>
<path d="M1785.32 2873.78H1316.7V2882.43H1785.32V2873.78Z" fill="#FABFD6"/>
<path d="M1785.32 2821.32H1316.7V2829.96H1785.32V2821.32Z" fill="#FABFD6"/>
<path d="M1785.32 2926.25H1316.7V2934.9H1785.32V2926.25Z" fill="#FABFD6"/>
<path d="M2268.09 2014.02L2156.72 2983.04H1603.52L1492.14 2014.02H2268.09Z" fill="white"/>
<path d="M2268.09 2014.02L2156.71 2983.04H2036.2L2143.31 2051.08H1496.4L1492.14 2014.02H2268.09Z" fill="#E0F1F0"/>
<path d="M2328.16 2014.02H1432.08L1439.19 1974.4C1442.23 1957.47 1456.95 1945.14 1474.15 1945.14H1489.52L1500.8 1902.14C1508.71 1871.93 1536.01 1850.86 1567.24 1850.86H2193C2224.23 1850.86 2251.52 1871.93 2259.44 1902.14L2270.71 1945.14H2286.09C2303.29 1945.14 2318.01 1957.47 2321.04 1974.4L2328.16 2014.02Z" fill="#573240"/>
<path d="M1603.52 2983.04H2156.72" stroke="#573240" stroke-width="5" stroke-miterlimit="10" stroke-linecap="round"/>
<path d="M1858.99 2618.41C1954.85 2618.41 2032.56 2535.44 2032.56 2433.1C2032.56 2330.75 1954.85 2247.78 1858.99 2247.78C1763.12 2247.78 1685.41 2330.75 1685.41 2433.1C1685.41 2535.44 1763.12 2618.41 1858.99 2618.41Z" fill="#A9D8D5"/>
<path d="M1886.08 2380.44L1824.01 2475.76C1820.73 2480.8 1813.47 2481.12 1809.76 2476.39C1794.15 2456.54 1793.75 2425.11 1810.63 2399.18C1827.52 2373.24 1856.42 2360.91 1880.89 2367.15C1886.72 2368.63 1889.36 2375.4 1886.08 2380.44Z" fill="#573240"/>
<path d="M1908.83 2463.12C1892.11 2488.79 1863.61 2501.13 1839.3 2495.33C1833.42 2493.93 1830.72 2487.09 1834.02 2482.02L1895.86 2387.06C1899.16 2381.99 1906.5 2381.69 1910.17 2386.5C1925.3 2406.39 1925.55 2437.44 1908.83 2463.12Z" fill="#573240"/>
</svg>
