<svg width="516" height="516" viewBox="0 0 516 516" fill="none" xmlns="http://www.w3.org/2000/svg">
<circle cx="258" cy="258" r="258" fill="#FDE9E3"/>
<path d="M88.915 365.334L115.823 214.33H235.357L261.076 365.334H88.915Z" fill="#F7C689"/>
<path d="M147.69 214.859C147.36 199.785 159.392 187.29 174.466 187.025C189.54 186.695 202.036 198.727 202.3 213.801C202.3 214.132 202.3 214.528 202.3 214.793" stroke="#F27932" stroke-width="3" stroke-miterlimit="10" stroke-linecap="round" stroke-linejoin="round"/>
<path d="M260.15 180.612C259.753 161.968 274.629 146.497 293.273 146.101C311.917 145.704 327.388 160.58 327.784 179.224C327.784 179.621 327.784 180.083 327.784 180.48" stroke="#EF749B" stroke-width="3" stroke-miterlimit="10" stroke-linecap="round" stroke-linejoin="round"/>
<path d="M202.565 282.427L147.69 365.07H188.747L202.565 282.427Z" fill="#F27932"/>
<path d="M187.425 367.318L220.746 180.414H368.643L400.51 367.318H187.425Z" fill="#F2B3CA"/>
<path d="M428.542 428.605H334.396L290.1 383.317V290.163H428.542V428.605Z" fill="white" stroke="#F27932" stroke-width="1.9037" stroke-miterlimit="10"/>
<path d="M290.1 290.163L266.695 367.186H290.1" fill="#EF749B"/>
<path d="M367.651 332.74L370.891 341.533C371.618 343.649 373.667 345.17 376.048 345.302L385.502 345.831C388.675 345.963 391.188 348.74 391.055 351.847C390.923 353.5 390.196 355.021 388.94 356.145L381.535 362.029C379.75 363.417 379.023 365.797 379.552 368.045L382.064 377.103C382.923 380.144 381.072 383.383 378.031 384.177C376.378 384.574 374.791 384.309 373.403 383.45L365.469 378.293C363.552 377.037 361.04 377.037 359.189 378.293L351.255 383.45C348.61 385.235 344.974 384.441 343.189 381.797C342.329 380.408 342.065 378.623 342.462 377.169L344.974 368.111C345.635 365.863 344.842 363.483 342.991 362.095L335.586 356.211C333.074 354.227 332.677 350.525 334.726 348.013C335.718 346.756 337.371 345.897 339.024 345.897L348.478 345.368C350.726 345.236 352.775 343.715 353.635 341.6L356.875 332.806C358.131 329.897 361.436 328.377 364.412 329.633C365.866 330.228 367.122 331.352 367.651 332.74Z" fill="#F7C689"/>
<path d="M298.629 112.382C298.959 122.3 290.563 130.828 281.108 133.407C271.588 135.985 261.406 133.605 252.283 129.837C243.225 126.068 234.63 120.911 225.44 117.473C216.251 114.035 205.739 112.515 196.549 116.085C186.896 119.853 179.954 129.043 177.045 139.026C174.136 149.01 174.863 159.72 176.847 169.835" stroke="#FBD7AD" stroke-width="2" stroke-miterlimit="10" stroke-dasharray="4 4"/>
<path d="M315.818 100.614C317.603 100.218 319.256 99.4904 320.843 98.4326C319.256 97.507 317.603 96.7797 315.818 96.2508C314.033 95.7219 312.578 94.3996 312.049 92.4823C311.653 90.6972 310.926 89.0444 309.868 87.4576C308.942 89.0444 308.215 90.6972 307.686 92.4823C307.157 94.2674 305.835 95.7219 303.917 96.2508C302.132 96.6475 300.347 97.3747 298.827 98.4326C300.413 99.3581 302.066 100.085 303.917 100.614C305.703 101.143 307.157 102.465 307.686 104.383C308.083 106.168 308.81 107.821 309.868 109.407C310.793 107.821 311.521 106.168 312.049 104.383C312.644 102.465 313.967 101.011 315.818 100.614Z" fill="#F7C689"/>
</svg>
