<svg width="18" height="48" viewBox="0 0 18 48" fill="none" xmlns="http://www.w3.org/2000/svg">
<path d="M14.9993 15H3.00034C1.35063 15 0 16.35 0 18.0005V30.0005C0 31.6496 1.35063 33 3.00034 33H14.9997C16.6494 33 18 31.65 18 30.0005V18.0005C17.9997 16.35 16.649 15 14.9993 15ZM14.7266 28.7736C14.7266 29.2981 14.2973 29.7261 13.7725 29.7261H4.22646C3.70204 29.7261 3.27236 29.2978 3.27236 28.7736V19.2274C3.27236 18.7029 3.70204 18.2732 4.22646 18.2732H13.7725C14.2973 18.2732 14.7266 18.7029 14.7266 19.2274V28.7736ZM11.4549 25.9092C11.4549 26.2099 11.2093 26.4546 10.9102 26.4546H7.09214C6.79204 26.4546 6.54742 26.2096 6.54742 25.9092V22.0912C6.54742 21.7911 6.79204 21.5461 7.09214 21.5461H10.9099C11.2093 21.5461 11.4546 21.7914 11.4546 22.0912V25.9092H11.4549Z" fill="white"/>
</svg>
