<svg width="128" height="128" viewBox="0 0 128 128" fill="none" xmlns="http://www.w3.org/2000/svg">
<circle cx="64" cy="64" r="64" fill="#F8E3DA"/>
<path d="M96.8575 56.1469C96.5152 55.0935 95.6047 54.3257 94.5087 54.1667L75.9217 51.4661L67.6091 34.622C67.119 33.6289 66.1074 33 65 33C63.8924 33 62.8808 33.6289 62.3909 34.622L54.0789 51.466L35.4913 54.1665C34.3953 54.3257 33.4846 55.0935 33.1425 56.1467C32.8003 57.2002 33.0856 58.3565 33.8788 59.1295L47.3288 72.2386L44.1524 90.7527C43.9652 91.8444 44.4139 92.9475 45.3099 93.5985C45.8167 93.9669 46.4171 94.1542 47.0203 94.1542C47.4834 94.1542 47.9483 94.0439 48.3741 93.82L64.9998 85.0797L81.6253 93.82C82.0536 94.0452 82.5227 94.1525 82.9872 94.1542C84.5924 94.1519 85.8928 92.8501 85.8928 91.2446C85.8928 91.0212 85.8675 90.8033 85.8198 90.5944L82.671 72.2388L96.121 59.1295C96.9144 58.3565 97.1997 57.2002 96.8575 56.1469Z" fill="#FFB020"/>
</svg>
